<?xml version="1.0" encoding="UTF-8"?>
<svg id="Speech_Bubble" data-name="Speech Bubble" xmlns="http://www.w3.org/2000/svg" viewBox="0 0 413.4 403.56">
  <g>
    <path d="m52.3,280.58c-.05-1.92-.12-3.81-.13-5.7l.28.28c-4.54.05-9.09.16-13.63.17l-13.63.06.51-.51-.06,11.52-.46-.46c2.25.02,4.49,0,6.74.06l6.77.12,13.75.29-.15-5.82Zm-13.37,6.11l-6.86.12c-2.29.05-4.59.04-6.89.06h-.46s0-.46,0-.46l-.06-11.52v-.52s.51,0,.51,0l13.63.06c4.54,0,9.09.12,13.63.17h.28s0,.28,0,.28c-.02,1.95-.09,3.9-.13,5.82l-.15,5.7-13.51.29Z" style="fill: #ebebeb;"/>
    <path d="m37.1,295.11c-.05-1.92-.12-3.81-.13-5.7l.28.28c-4.54.05-9.09.16-13.63.17l-13.63.06.51-.51-.06,11.52-.46-.46c2.25.02,4.49,0,6.74.06l6.77.12,13.75.29-.15-5.82Zm-13.37,6.11l-6.86.12c-2.29.05-4.59.04-6.89.06h-.46s0-.46,0-.46l-.06-11.52v-.52s.51,0,.51,0l13.63.06c4.54,0,9.09.12,13.63.17h.28s0,.28,0,.28c-.02,1.95-.09,3.9-.13,5.82l-.15,5.7-13.51.29Z" style="fill: #ebebeb;"/>
    <path d="m67.51,295.11c-.05-1.92-.12-3.81-.13-5.7l.28.28c-4.54.05-9.09.16-13.63.17l-13.63.06.51-.51-.06,11.52-.46-.46c2.25.02,4.49,0,6.74.06l6.77.12,13.75.29-.15-5.82Zm-13.37,6.11l-6.86.12c-2.29.05-4.59.04-6.89.06h-.46s0-.46,0-.46l-.06-11.52v-.52s.51,0,.51,0l13.63.06c4.54,0,9.09.12,13.63.17h.28s0,.28,0,.28c-.02,1.95-.09,3.9-.13,5.82l-.15,5.7-13.51.29Z" style="fill: #ebebeb;"/>
    <path d="m388.3,295.11c-.05-1.92-.12-3.81-.13-5.7l.28.28c-4.54.05-9.09.16-13.63.17l-13.63.06.51-.51-.06,11.52-.46-.46c2.25.02,4.49,0,6.74.06l6.77.12,13.75.29-.15-5.82Zm-13.37,6.11l-6.86.12c-2.29.05-4.59.04-6.89.06h-.46s0-.46,0-.46l-.06-11.52v-.52s.51,0,.51,0l13.63.06c4.54,0,9.09.12,13.63.17h.28s0,.28,0,.28c-.02,1.95-.09,3.9-.13,5.82l-.15,5.7-13.51.29Z" style="fill: #ebebeb;"/>
    <path d="m388.3,11.11c-.05-1.92-.12-3.81-.13-5.7l.28.28c-4.54.05-9.09.16-13.63.17l-13.63.06.51-.51-.06,11.52-.46-.46c2.25.02,4.49,0,6.74.06l6.77.12,13.75.29-.15-5.82Zm-13.37,6.11l-6.86.12c-2.29.05-4.59.04-6.89.06h-.46s0-.46,0-.46l-.06-11.52v-.52s.51,0,.51,0l13.63.06c4.54,0,9.09.12,13.63.17h.28s0,.28,0,.28c-.02,1.95-.09,3.9-.13,5.82l-.15,5.7-13.51.29Z" style="fill: #ebebeb;"/>
    <path d="m403.51,25.64c-.05-1.92-.12-3.81-.13-5.7l.28.28c-4.54.05-9.09.16-13.63.17l-13.63.06.51-.51-.06,11.52-.46-.46c2.25.02,4.49,0,6.74.06l6.77.12,13.75.29-.15-5.82Zm-13.37,6.11l-6.86.12c-2.29.05-4.59.04-6.89.06h-.46s0-.46,0-.46l-.06-11.52v-.52s.51,0,.51,0l13.63.06c4.54,0,9.09.12,13.63.17h.28s0,.28,0,.28c-.02,1.95-.09,3.9-.13,5.82l-.15,5.7-13.51.29Z" style="fill: #ebebeb;"/>
    <path d="m37.1,11.12c-.05-1.92-.12-3.81-.13-5.7l.28.28c-4.54.05-9.09.16-13.63.17l-13.63.06.51-.51-.06,11.52-.46-.46c2.25.02,4.49,0,6.74.06l6.77.12,13.75.29-.15-5.82Zm-13.37,6.11l-6.86.12c-2.29.05-4.59.04-6.89.06h-.46s0-.46,0-.46l-.06-11.52v-.52s.51,0,.51,0l13.63.06c4.54,0,9.09.12,13.63.17h.28s0,.28,0,.28c-.02,1.95-.09,3.9-.13,5.82l-.15,5.7-13.51.29Z" style="fill: #ebebeb;"/>
    <path d="m251.11,207.79c.05,1.92.12,3.81.13,5.7l-.28-.28c4.54-.05,9.09-.16,13.63-.17l13.63-.06-.51.51.06-11.52.46.46c-2.25-.02-4.49,0-6.74-.06l-6.77-.12-13.75-.29.15,5.82Zm13.37-6.11l6.86-.12c2.29-.05,4.59-.04,6.89-.06h.46s0,.46,0,.46l.06,11.52v.52s-.51,0-.51,0l-13.63-.06c-4.54,0-9.09-.12-13.63-.17h-.28s0-.28,0-.28c.02-1.95.09-3.9.13-5.82l.15-5.7,13.51-.29Z" style="fill: #ebebeb;"/>
    <path d="m266.31,193.26c.05,1.92.12,3.81.13,5.7l-.28-.28c4.54-.05,9.09-.16,13.63-.17l13.63-.06-.51.51.06-11.52.46.46c-2.25-.02-4.49,0-6.74-.06l-6.77-.12-13.75-.29.15,5.82Zm13.37-6.11l6.86-.12c2.29-.05,4.59-.04,6.89-.06h.46s0,.46,0,.46l.06,11.52v.52s-.51,0-.51,0l-13.63-.06c-4.54,0-9.09-.12-13.63-.17h-.28s0-.28,0-.28c.02-1.95.09-3.9.13-5.82l.15-5.7,13.51-.29Z" style="fill: #ebebeb;"/>
  </g>
  <g>
    <g>
      <polygon points="303.15 19.73 230.06 105.86 341.2 126.08 303.15 19.73" style="fill: #ebebeb;"/>
      <polygon points="300.61 33.67 243.41 101.08 330.39 116.92 300.61 33.67" style="fill: #fff;"/>
      <g>
        <polygon points="292.24 54.67 301.05 56.27 294.54 88.64 286.92 87.25 292.24 54.67" style="fill: #ebebeb;"/>
        <rect x="285.42" y="91.95" width="7.74" height="7.74" transform="translate(21.83 -50.25) rotate(10.32)" style="fill: #ebebeb;"/>
      </g>
    </g>
    <g>
      <polygon points="99.91 216.65 72.21 284.31 144.65 274.47 99.91 216.65" style="fill: #ebebeb;"/>
      <polygon points="101.14 225.74 79.46 278.7 136.16 271 101.14 225.74" style="fill: #fff;"/>
      <g>
        <polygon points="100.2 240.34 105.95 239.56 108.43 260.78 103.46 261.46 100.2 240.34" style="fill: #ebebeb;"/>
        <rect x="104.14" y="263.75" width="5.01" height="5.01" transform="translate(-34.86 16.78) rotate(-7.73)" style="fill: #ebebeb;"/>
      </g>
    </g>
  </g>
  <ellipse cx="206.7" cy="356.16" rx="172.13" ry="14.42" style="fill: #ebebeb;"/>
  <g>
    <g>
      <g>
        <path d="m364.87,298.6s8.17-29.33,14.7-39.29c6.53-9.96,18.69-20.9,18.69-20.9,0,0-.29,45.22-33.39,60.2Z" style="fill: #ffc727;"/>
        <path d="m365.45,298.09c2.8-4.55,5.18-9.35,7.45-14.21,1.01-5.21,2.23-10.45,4.06-15.42.03-.09.17-.04.14.05-1.08,4.63-2.35,9.23-3.49,13.85,3.3-7.14,6.43-14.37,10.36-21.12.79-3.27,2.3-6.42,3.79-9.39.04-.09.19-.04.14.05-1.05,2.3-1.8,4.66-2.55,7.04,1.86-2.99,3.89-5.87,6.21-8.58.14-.17.43.02.29.2-5.25,6.7-8.88,14.33-12.33,22.06,3.73-3.99,7.13-8.36,10.25-12.82.03-.05.1,0,.07.05-3.23,5.13-6.95,9.74-10.98,14.24-2.52,5.66-4.99,11.34-7.99,16.72,5.99-5.06,10.6-11.62,15.16-17.94.1-.14.32,0,.23.15-4.56,6.94-9.29,13.47-15.85,18.61-1.34,2.35-2.78,4.65-4.39,6.85-.27.36-.81-.01-.58-.4Z" style="fill: #263238;"/>
      </g>
      <g>
        <path d="m362.33,301.24s14.69-27.05,10.42-53.27c-4.27-26.22-8.84-35.56-8.84-35.56,0,0-23.09,40.79-1.59,88.83Z" style="fill: #ffc727;"/>
        <g>
          <path d="m356.3,258.72c1.17,7.57,3.23,14.66,5.67,21.84.04-9.62.22-19.25.48-28.87-1.69-5.85-2.54-11.84-2.77-17.92,0-.18.26-.17.27,0,.43,5.23,1.35,10.34,2.57,15.42.22-7.94.49-15.88.78-23.81,0-.13.21-.13.21,0-.01,12.4,0,24.8-.08,37.2,1.9-4.78,3.08-9.69,4.23-14.73.01-.05.09-.04.09.01-.44,5.79-2.2,11.39-4.34,16.77-.06,7.93-.14,15.85-.32,23.78,2.48-8.43,5.14-16.59,5.86-25.49,0-.12.19-.12.19,0-.19,9.82-2.73,19.79-5.97,29.02-.04.1-.1.17-.16.23-.07,2.9-.16,5.79-.25,8.69-.01.42-.64.4-.64-.01-.11-5.93-.15-11.85-.14-17.78-3.3-7.62-5.06-16.11-5.79-24.34,0-.07.12-.09.13-.02Z" style="fill: #263238;"/>
          <path d="m357.31,254.54c.47,2.32.9,4.78,1.03,7.15,0,.08-.12.09-.14.02-.61-2.29-.94-4.77-1.21-7.12-.02-.18.29-.22.32-.04Z" style="fill: #263238;"/>
          <path d="m365.9,234.76c.01-.08.14-.06.14.02.02,1.63-.31,3.37-.74,4.93-.04.13-.22.07-.2-.06.32-1.63.52-3.26.8-4.89Z" style="fill: #263238;"/>
        </g>
      </g>
      <g>
        <path d="m356.98,303.31s.6-28.23-7.5-42.27c-8.1-14.03-21.53-21.18-21.53-21.18,0,0,5.42,49.77,29.03,63.45Z" style="fill: #ffc727;"/>
        <g>
          <path d="m342.22,279.16c3.41,4.9,6.79,9.63,10.96,13.89-1.62-5.77-3.49-11.45-5.61-17.03-4.54-3.98-9.04-8.11-11.83-13.55-.04-.09.08-.16.13-.08,2.99,4.82,7,8.69,11.21,12.4-3.23-8.39-7-16.57-11.27-24.55-.11-.2.19-.38.31-.18,2.59,4.16,4.95,8.47,7.07,12.89-.76-3.02-1.37-6.1-2.14-9.1-.02-.08.1-.11.13-.04,1.44,3.77,2.87,7.94,3.33,11.97,2.83,6.26,5.22,12.72,7.13,19.32-.21-4.23-.47-8.45-.91-12.67,0-.08.13-.1.14-.02.88,4.69,1.34,9.45,1.23,14.22,1.17,4.21,2.15,8.46,2.94,12.75.02.11-.15.17-.18.05-.44-1.8-.92-3.58-1.4-5.36-.03-.01-.06,0-.09-.04-4.34-4.35-8.47-9.31-11.18-14.86-.01-.03.03-.05.04-.03Z" style="fill: #263238;"/>
          <path d="m332.83,256.19c.9.97,1.73,2,2.6,3,.77.89,1.71,1.72,2.33,2.72.02.04-.02.09-.06.06-1.04-.66-1.88-1.73-2.69-2.66-.86-.97-1.62-1.93-2.31-3.03-.05-.08.06-.17.13-.1Z" style="fill: #263238;"/>
        </g>
      </g>
    </g>
    <g>
      <g>
        <path d="m381.04,299.86l-1.02,9.05-3.08,27.36h-26.83l-3.08-27.36-1.02-9.05h35.03Z" style="fill: #455a64;"/>
        <path d="m381.04,299.86l-1.02,9.05h-32.98l-1.02-9.05h35.03Z" style="fill: #37474f;"/>
      </g>
      <rect x="343.63" y="293.3" width="39.79" height="10.25" transform="translate(727.05 596.85) rotate(180)" style="fill: #455a64;"/>
    </g>
  </g>
  <path d="m409.43,336.2c-129.88.61-275.58.62-405.46,0,129.88-.62,275.58-.61,405.46,0h0Z" style="fill: #263238;"/>
  <g>
    <path d="m78.49,214.44v-30.64H13.15v-24.47l74.96-88.42h20.36v88.22h19.69v24.68h-19.69v30.64h-29.98Zm-35.35-55.32h38.71v-46.47l-38.71,46.47Z" style="fill: #ffc727;"/>
    <path d="m262.87,128.07c0,9.05-1.46,17.38-4.36,24.98-2.91,7.61-6.94,14.19-12.08,19.74-5.15,5.55-11.26,9.87-18.35,12.95-7.09,3.08-14.73,4.63-22.94,4.63s-16.04-1.54-23.05-4.63c-7.01-3.08-13.09-7.4-18.24-12.95-5.15-5.55-9.17-12.13-12.08-19.74-2.91-7.61-4.36-15.94-4.36-24.98s1.45-17.38,4.36-24.98c2.91-7.61,6.94-14.19,12.08-19.74,5.15-5.55,11.22-9.9,18.24-13.06,7.01-3.15,14.69-4.73,23.05-4.73s15.85,1.58,22.94,4.73c7.08,3.16,13.2,7.51,18.35,13.06,5.15,5.55,9.17,12.13,12.08,19.74,2.91,7.61,4.36,15.94,4.36,24.98Zm-30.21,0c0-5.48-.67-10.52-2.01-15.11-1.34-4.59-3.25-8.53-5.71-11.82-2.46-3.29-5.37-5.83-8.73-7.61-3.36-1.78-7.05-2.67-11.08-2.67s-7.94.89-11.3,2.67c-3.36,1.78-6.27,4.32-8.73,7.61s-4.36,7.23-5.71,11.82c-1.34,4.59-2.01,9.63-2.01,15.11s.67,10.49,2.01,15.01c1.34,4.52,3.24,8.43,5.71,11.72,2.46,3.29,5.37,5.83,8.73,7.61,3.36,1.78,7.12,2.67,11.3,2.67s7.72-.89,11.08-2.67c3.36-1.78,6.27-4.32,8.73-7.61,2.46-3.29,4.36-7.2,5.71-11.72,1.34-4.52,2.01-9.53,2.01-15.01Z" style="fill: #ffc727;"/>
    <path d="m400.25,128.07c0,9.05-1.46,17.38-4.36,24.98-2.91,7.61-6.94,14.19-12.08,19.74-5.15,5.55-11.26,9.87-18.35,12.95-7.09,3.08-14.73,4.63-22.94,4.63s-16.04-1.54-23.05-4.63c-7.01-3.08-13.09-7.4-18.24-12.95-5.15-5.55-9.17-12.13-12.08-19.74-2.91-7.61-4.36-15.94-4.36-24.98s1.46-17.38,4.36-24.98c2.91-7.61,6.94-14.19,12.08-19.74,5.15-5.55,11.22-9.9,18.24-13.06,7.01-3.15,14.69-4.73,23.05-4.73s15.85,1.58,22.94,4.73c7.08,3.16,13.2,7.51,18.35,13.06,5.15,5.55,9.17,12.13,12.08,19.74,2.91,7.61,4.36,15.94,4.36,24.98Zm-30.21,0c0-5.48-.67-10.52-2.01-15.11-1.34-4.59-3.25-8.53-5.71-11.82-2.46-3.29-5.37-5.83-8.73-7.61-3.36-1.78-7.05-2.67-11.08-2.67s-7.94.89-11.3,2.67c-3.36,1.78-6.27,4.32-8.73,7.61-2.46,3.29-4.36,7.23-5.71,11.82-1.34,4.59-2.01,9.63-2.01,15.11s.67,10.49,2.01,15.01c1.34,4.52,3.24,8.43,5.71,11.72,2.46,3.29,5.37,5.83,8.73,7.61,3.36,1.78,7.12,2.67,11.3,2.67s7.72-.89,11.08-2.67c3.36-1.78,6.27-4.32,8.73-7.61,2.46-3.29,4.36-7.2,5.71-11.72,1.34-4.52,2.01-9.53,2.01-15.01Z" style="fill: #ffc727;"/>
  </g>
  <g>
    <path d="m174.68,41.05v3.49h-14.23v-20.5h13.97v3.49h-9.99v4.94h8.63v3.23h-8.63v5.34h10.25Z" style="fill: #263238;"/>
    <path d="m177.8,44.55v-20.5h9.07c.94,0,1.81.2,2.61.59.8.39,1.49.92,2.06,1.56.58.64,1.03,1.38,1.36,2.19.33.82.49,1.64.49,2.47,0,1.33-.33,2.54-1,3.62-.66,1.09-1.56,1.87-2.7,2.35l4.68,7.71h-4.48l-4.19-6.87h-3.93v6.87h-3.98Zm3.98-10.37h5c.37,0,.71-.09,1.02-.26.32-.17.59-.41.82-.71.23-.3.41-.65.55-1.05.13-.4.2-.84.2-1.3s-.08-.92-.23-1.33c-.15-.4-.36-.76-.62-1.05-.26-.3-.56-.53-.89-.69-.34-.16-.68-.25-1.02-.25h-4.82v6.64Z" style="fill: #263238;"/>
    <path d="m197,44.55v-20.5h9.07c.94,0,1.81.2,2.61.59.8.39,1.49.92,2.06,1.56.58.64,1.03,1.38,1.36,2.19.33.82.49,1.64.49,2.47,0,1.33-.33,2.54-1,3.62-.66,1.09-1.56,1.87-2.7,2.35l4.68,7.71h-4.48l-4.19-6.87h-3.93v6.87h-3.98Zm3.98-10.37h5c.37,0,.71-.09,1.02-.26.32-.17.59-.41.82-.71.23-.3.41-.65.55-1.05.13-.4.2-.84.2-1.3s-.08-.92-.23-1.33-.36-.76-.62-1.05c-.26-.3-.56-.53-.9-.69-.34-.16-.68-.25-1.02-.25h-4.82v6.64Z" style="fill: #263238;"/>
    <path d="m224.95,44.69c-1.5,0-2.86-.29-4.08-.88-1.22-.59-2.27-1.37-3.15-2.34-.88-.97-1.55-2.08-2.04-3.33-.48-1.25-.72-2.53-.72-3.84s.25-2.67.76-3.93c.51-1.25,1.21-2.36,2.11-3.32.9-.96,1.96-1.73,3.19-2.3,1.23-.57,2.57-.85,4.01-.85s2.83.3,4.06.91c1.22.61,2.27,1.4,3.13,2.38s1.54,2.1,2.02,3.35c.48,1.25.72,2.52.72,3.81,0,1.37-.25,2.67-.75,3.91-.5,1.24-1.19,2.34-2.08,3.29-.88.95-1.94,1.71-3.18,2.28-1.23.57-2.57.85-4.01.85Zm-5.95-10.39c0,.89.13,1.74.4,2.57.27.83.66,1.56,1.17,2.19.51.64,1.14,1.15,1.88,1.53.74.39,1.58.58,2.53.58s1.81-.2,2.56-.59c.74-.39,1.37-.92,1.88-1.57.51-.65.9-1.39,1.16-2.21.26-.82.39-1.65.39-2.5s-.14-1.74-.42-2.57c-.28-.83-.67-1.56-1.18-2.19-.51-.64-1.14-1.14-1.88-1.52-.74-.38-1.57-.56-2.5-.56s-1.82.2-2.57.59c-.75.39-1.38.91-1.88,1.56-.5.64-.88,1.38-1.14,2.19-.26.82-.39,1.65-.39,2.5Z" style="fill: #263238;"/>
    <path d="m238.03,44.55v-20.5h9.07c.94,0,1.81.2,2.61.59.8.39,1.49.92,2.06,1.56.58.64,1.03,1.38,1.36,2.19.33.82.49,1.64.49,2.47,0,1.33-.33,2.54-1,3.62-.66,1.09-1.56,1.87-2.7,2.35l4.68,7.71h-4.48l-4.19-6.87h-3.93v6.87h-3.98Zm3.98-10.37h5c.37,0,.71-.09,1.03-.26.32-.17.59-.41.82-.71.23-.3.41-.65.55-1.05.13-.4.2-.84.2-1.3s-.08-.92-.23-1.33-.36-.76-.62-1.05c-.26-.3-.56-.53-.9-.69-.34-.16-.68-.25-1.02-.25h-4.82v6.64Z" style="fill: #263238;"/>
  </g>
  <g>
    <g>
      <ellipse cx="206.7" cy="127.71" rx="59.53" ry="63.15" style="fill: #ffc727;"/>
      <path d="m266.23,127.71c0,34.88-26.65,63.15-59.53,63.15-26.46,0-48.87-18.31-56.62-43.63,12.41,10.97,36.63,27.51,64.26,20.93,30.52-7.27,44.66-29.28,50.68-53.18.79,4.11,1.21,8.37,1.21,12.73Z" style="opacity: .1;"/>
      <path d="m239.35,82.76c-.91-.92-1.9-1.72-2.96-2.42.9-.12,1.8-.23,2.69-.36.21-.03.14-.33-.05-.35-1.25-.11-2.48-.06-3.71.07-1.72-.99-3.58-1.71-5.51-2.16,1.75-.56,3.56-1.01,5.45-1.37.19-.04.15-.35-.05-.34-2.22.15-4.38.68-6.44,1.47-1.34-.25-2.7-.38-4.07-.38-.11,0-.11.16,0,.17,1.14.1,2.22.29,3.29.53-1.21.51-2.39,1.11-3.52,1.78-.92-.06-1.84-.05-2.78.06-.1.01-.1.16,0,.15.78-.04,1.54,0,2.29.08-1.24.77-2.43,1.62-3.54,2.54-.08.06.03.17.11.11,1.3-1.01,2.63-1.85,4-2.59,1.68.22,3.28.68,4.86,1.27-1.32.42-2.63.9-3.92,1.39-.08.03-.05.17.04.14,1.51-.56,3.05-.95,4.6-1.26,1.41.55,2.81,1.17,4.24,1.77.21.09.35-.26.16-.37-1.07-.59-2.16-1.13-3.28-1.6,1.33-.23,2.66-.41,4-.59,1.3.75,2.56,1.6,3.8,2.56.21.16.49-.1.29-.29Zm-9-2.04c-1.68-.64-3.42-1.11-5.2-1.28,1.24-.62,2.51-1.13,3.82-1.59,1.8.48,3.52,1.16,5.16,2.01-1.27.2-2.54.49-3.78.86Z" style="opacity: .1;"/>
      <path d="m160.83,124.63c.2-.09.05-.36-.14-.33-.84.14-1.64.43-2.42.79.28-.9.61-1.8.99-2.68.11-.25-.22-.46-.37-.22-.66,1.07-1.12,2.18-1.44,3.32-1.14.66-2.19,1.52-3.09,2.51.05-1.67.3-3.35.73-5.09.06-.25-.29-.33-.38-.1-.76,1.89-1.03,3.88-.92,5.87-.81,1-1.5,2.08-2.01,3.17-.04.09.08.17.13.08.57-1.02,1.22-1.89,1.93-2.67.08.87.24,1.74.46,2.59-.38.35-.75.7-1.09,1.05-.1.1.05.24.15.15.33-.3.68-.57,1.03-.86.24.85.53,1.69.89,2.5.04.09.2.03.16-.07-.34-.9-.58-1.79-.76-2.67.7-.55,1.41-1.06,2.19-1.5.05-.03.09-.04.14-.07.06.85.16,1.7.34,2.55.02.11.17.06.16-.04-.13-.91-.15-1.8-.12-2.69,1-.51,2.04-.92,3.02-1.47.18-.1.05-.36-.14-.33-.98.19-1.95.59-2.87,1.12.08-1.18.28-2.34.58-3.49.89-.51,1.83-.98,2.83-1.43Zm-6.21,6.98c-.17-.94-.26-1.88-.27-2.82.87-.86,1.83-1.6,2.87-2.25-.21,1.08-.28,2.18-.24,3.29-.84.53-1.63,1.14-2.36,1.78Z" style="opacity: .1;"/>
    </g>
    <g>
      <g>
        <path d="m182.68,99.48c-10.44,7.11-15.61,16.38-14.99,26.7.62,10.32-7.11,18.56-7.99,29.82-.88,11.26,5.74,19.24,5.74,24.38s-5.08,14.21-5.08,14.21c0,0,11.07,14.47,41.56,13.99,30.49-.48,44.84-10.81,44.84-10.81,0,0-4.42-9.61-4.86-12.49-.44-2.88,6.24-13.42,6.43-22.45.19-9.03-7.92-21.21-7.95-25.69-.03-4.48.94-29.95-18.42-39.32-19.36-9.37-35.93-.63-39.29,1.66Z" style="fill: #263238;"/>
        <path d="m170.98,131.24c.21-.45-.33-.98-.67-.56-5.25,6.28-9.79,15.24-12.14,23.35-2.35,8.09-.17,15.83,3.68,22.9.11.2.39.02.29-.18-4.16-8.28-4.98-16.36-1.49-25.1,2.86-7.18,7.12-13.46,10.34-20.4Z" style="fill: #263238;"/>
        <path d="m249.79,162.68c-1.37-8.43-6.58-16.77-10.41-24.11-.2-.39-.83-.13-.68.31,2.37,7.06,6.38,13.44,8.56,20.55,2.4,7.85,1.54,16.19-1.96,23.45-.11.23.19.42.32.2,3.68-5.99,5.33-13.26,4.17-20.41Z" style="fill: #263238;"/>
        <path d="m248.28,153.1c-3.93-6.8-7.85-14.15-9.35-22.09-.03-.18-.28-.1-.25.08,1.2,6.66,3.13,12.58,6.22,18.48,3.45,6.59,8.63,12.71,9.21,20.58.01.19.26.18.28,0,.42-6.65-3-11.66-6.11-17.03Z" style="fill: #263238;"/>
      </g>
      <g>
        <path d="m168.47,203.44c-33.58,39.08-73.7,119.18-64.16,134.2,10.63,16.73,59.09-38.93,57.35-41.38-1.48-2.09,13.78-49.85,24.85-84.78,11.06-34.9-9.74-17.7-18.05-8.03Z" style="fill: #d3766a;"/>
        <path d="m168.47,203.44c-33.58,39.08-73.7,119.18-64.16,134.2,10.63,16.73,59.09-38.93,57.35-41.38-1.48-2.09,13.78-49.85,24.85-84.78,11.06-34.9-9.74-17.7-18.05-8.03Z" style="fill: #455a64;"/>
      </g>
      <g>
        <path d="m136.38,333.42l5.84-37.38s-13.78-24.06-5.79-41.33c4.04-8.75,31.71-51.49,46.61-62.3,13.98-10.15,35.32-.16,41.84,8.67,18.73,25.39,28.43,49.47,38.89,132.34h-127.39Z" style="fill: #455a64;"/>
        <path d="m214.33,192.69c-.64.96-1.16,1.98-1.65,3.02-.69,1.62-1.3,3.27-1.53,5.09,1.21-1.38,2.04-2.93,2.79-4.52.44-1.04.85-2.09,1.15-3.19-.25-.14-.5-.27-.76-.4Zm-19.35,68.92c-.7,1.61-1.31,3.26-1.54,5.08,1.21-1.38,2.05-2.93,2.79-4.52.69-1.61,1.3-3.27,1.53-5.09-1.2,1.38-2.04,2.93-2.78,4.53Zm-16.81,69.89c-.27.63-.53,1.27-.76,1.92h1.35c.24-.45.46-.9.67-1.36.69-1.61,1.3-3.26,1.53-5.09-1.21,1.39-2.04,2.94-2.79,4.53Zm70.67-81.09s-.01.09-.02.14c0-.02.03-.03.04-.05,0-.03-.01-.06-.02-.09Zm-34,71.84c-.69,1.61-1.3,3.27-1.53,5.09,1.21-1.38,2.04-2.93,2.79-4.52.69-1.62,1.3-3.27,1.53-5.09-1.21,1.38-2.04,2.93-2.79,4.52Zm-71.67-33.29c-.69,1.61-1.3,3.26-1.53,5.08,1.21-1.38,2.04-2.93,2.79-4.52.69-1.61,1.3-3.27,1.53-5.09-1.21,1.39-2.04,2.94-2.79,4.53Zm23.52-51.8c-.7,1.61-1.31,3.26-1.54,5.09,1.22-1.38,2.05-2.94,2.79-4.53.7-1.61,1.3-3.26,1.53-5.08-1.2,1.38-2.04,2.93-2.78,4.52Zm63.49-19.33c-1.61-.69-3.26-1.3-5.08-1.53,1.38,1.21,2.93,2.05,4.52,2.79,1.61.69,3.27,1.3,5.09,1.53-1.39-1.21-2.94-2.04-4.53-2.79Zm14.89,58.04c-1.61-.7-3.26-1.31-5.08-1.53,1.38,1.21,2.93,2.04,4.52,2.78,1.61.7,3.27,1.3,5.09,1.54-1.39-1.21-2.94-2.05-4.53-2.79Zm-82.19-61.38l-.45.6c.52.13,1.05.23,1.59.3-.37-.32-.75-.62-1.14-.9Zm15.15,71.96c-1.61-.7-3.26-1.3-5.09-1.53,1.39,1.21,2.94,2.04,4.53,2.78,1.61.7,3.26,1.31,5.09,1.54-1.39-1.21-2.94-2.04-4.53-2.79Zm17.28-59.74c-.65-1.63-1.39-3.23-2.52-4.68.13,1.83.63,3.51,1.23,5.17.65,1.63,1.39,3.23,2.51,4.68-.12-1.84-.62-3.52-1.22-5.17Zm23.64,59.91c-.64-1.63-1.38-3.23-2.51-4.68.13,1.83.63,3.52,1.23,5.17.65,1.63,1.39,3.23,2.51,4.68-.12-1.83-.62-3.52-1.23-5.17Zm-78.53-39.09c-.23.4-.47.8-.7,1.18.36.68.78,1.33,1.27,1.96-.07-1.09-.28-2.13-.57-3.14Zm15.76,64.08c-.65-1.63-1.39-3.23-2.52-4.68.13,1.83.63,3.52,1.23,5.17.65,1.63,1.39,3.23,2.52,4.68-.12-1.83-.63-3.52-1.23-5.17Zm25.79-109.58c-1.63.65-3.23,1.39-4.68,2.51,1.83-.12,3.51-.63,5.17-1.23,1.63-.64,3.23-1.38,4.68-2.51-1.84.12-3.52.63-5.17,1.23Zm59.21,104.26c-1.63.65-3.23,1.39-4.68,2.51,1.83-.12,3.52-.63,5.17-1.23,1.63-.64,3.23-1.38,4.68-2.51-1.83.12-3.52.63-5.17,1.23Zm-81.67-41.25c-1.63.65-3.23,1.39-4.68,2.51,1.83-.12,3.52-.63,5.17-1.22,1.63-.65,3.23-1.39,4.68-2.52-1.83.12-3.52.63-5.17,1.23Zm33.04,42.38c-1.63.65-3.23,1.39-4.68,2.51,1.83-.12,3.52-.63,5.17-1.23,1.63-.65,3.23-1.38,4.68-2.51-1.83.12-3.52.63-5.17,1.23Zm-55.43,21.29l-.25,1.55.09-.03c1.63-.65,3.23-1.39,4.68-2.51-1.59.1-3.07.5-4.52.99Zm85.25-82.32c-1.63.65-3.23,1.39-4.68,2.52,1.83-.13,3.52-.63,5.17-1.23,1.63-.65,3.23-1.39,4.68-2.51-1.83.12-3.52.62-5.17,1.22Z" style="fill: #37474f;"/>
        <path d="m158.71,219.27c-2.83,3.88-5.57,7.82-8.27,11.79.74-1.55,1.48-3.09,2.2-4.64.05-.11-.11-.2-.17-.09-1,1.94-1.93,3.91-2.83,5.89-3.61,5.34-7.11,10.76-10.49,16.24-1.43,2.33-2.75,4.7-3.72,7.26-.94,2.48-1.52,5.1-1.82,7.73-.31,2.64-.33,5.29-.13,7.93.21,2.73.54,5.42,1.15,8.09.69,3.01,1.63,6,2.85,8.84.6,1.39,1.24,2.78,1.93,4.13.63,1.23,1.91,3.75,1.89,3.85-.26,1.4-.52,2.37-.7,3.55-.18,1.2-.36,2.39-.54,3.59-.36,2.39-.71,4.78-1.06,7.18-.7,4.75-1.29,9.5-1.88,14.27-.34,2.73-.52,5.49-.9,8.22-.02.11.15.15.17.04.39-2.38.98-4.72,1.41-7.09.43-2.37.87-4.74,1.32-7.11.9-4.79,1.6-9.62,2.35-14.44.21-1.33.42-2.66.62-3.99.21-1.32.56-3.1.51-4.44,0,0-4.27-8.76-5.92-14.91-.7-2.58-1.41-5.26-1.69-7.92-.28-2.61-.31-5.25-.1-7.87.21-2.62.71-5.22,1.51-7.73.83-2.58,2.02-4.99,3.35-7.35,2.79-4.95,5.74-9.81,8.75-14.63,3.4-5.47,6.85-10.91,10.37-16.3.06-.09-.08-.16-.15-.08Z" style="fill: #263238;"/>
        <g>
          <path d="m185.09,291.37c-5.94.37-11.91.93-17.74,2.18-2.9.62-5.75,1.37-8.6,2.18-1.42.41-2.85.76-4.28,1.11-1.47.36-3.05.68-4.58.67-.14,0-.14.2,0,.21,1.48.1,2.89.19,4.38.1,1.41-.09,2.82-.33,4.2-.62,2.95-.6,5.87-1.33,8.81-1.96,5.93-1.27,11.87-2.54,17.88-3.37.28-.04.23-.51-.05-.49Z" style="fill: #263238;"/>
          <path d="m199.55,297.23c-4.85-.69-9.8-1.17-14.69-1.31-2.46-.07-4.91,0-7.37.14-1.17.07-2.35.15-3.52.25-1.29.11-2.56.39-3.85.49-.13,0-.14.22,0,.21,1.22-.05,2.45.1,3.67.12,1.23.02,2.45.03,3.68.05,2.45.04,4.91.11,7.36.13,4.92.03,9.81.12,14.72.32.27.01.26-.37.01-.4Z" style="fill: #263238;"/>
        </g>
      </g>
      <g>
        <g>
          <path d="m105.1,339.31c10.17,9.93,32.37,7.98,88.72,8.32,7.8.05,22.93-54.89,14.61-55.37-10.48-.6-51.31-.67-54.29-.29-25.18,3.14-55.94,40.61-49.04,47.35Z" style="fill: #d3766a;"/>
          <g>
            <path d="m189.53,293.37s21.8-6.44,34.3-6.28c16.74.21,31.1,7.29,36.94,10.62,12.19,6.95,36.86,32.18,30.83,40.55-5.46,7.58-29.37-19.48-29.37-19.48,0,0,28.93,23.57,20.69,31.49-8.25,7.92-34.22-25.08-34.22-25.08,0,0,29.19,24.88,19.39,31.7-7.4,5.15-32.61-23.4-32.61-23.4,0,0,24.94,21.56,17.55,27.19-8.16,6.22-33.08-18.68-33.08-18.68-21.18,11.15-36.07,6.89-46.21,3.26-2.45-.88,15.79-51.89,15.79-51.89Z" style="fill: #d3766a;"/>
            <g>
              <path d="m252.74,309.98c3.5,2.65,7.06,5.3,10.31,8.25,3.25,2.95,6.4,6.01,9.37,9.25,7.27,7.94,10.58,14.05,10.33,13.69-5.81-8.4-17.28-19.13-20.54-22.08-3.24-2.94-6.34-6.05-9.59-8.99-.08-.07.03-.18.12-.12Z" style="fill: #263238;"/>
              <path d="m241.89,321.53c4.32,3.57,8.74,6.96,12.91,10.72,4.14,3.74,7.75,7.66,11.63,11.68.3.31.03.37-.28.07-4.03-3.86-8.06-7.12-12.14-10.94-4.06-3.8-8.01-7.79-12.21-11.44-.07-.06.03-.15.09-.1Z" style="fill: #263238;"/>
              <path d="m230.79,329.77c6.88,5.12,12.82,11.5,18.48,17.9.28.32-.07.36-.38.05-6.03-6.07-10.72-10.87-18.29-17.71-.12-.11.03-.35.18-.24Z" style="fill: #263238;"/>
            </g>
          </g>
        </g>
        <g>
          <path d="m215.47,286.87l-38.88,62.72s-62.75,4.15-72.14-11.26c-9.39-15.4,34.69-45.72,49.6-46.44,14.92-.72,61.42-5.02,61.42-5.02Z" style="fill: #455a64;"/>
          <path d="m136.47,328.94c-1.63.65-3.23,1.39-4.68,2.52,1.83-.13,3.52-.63,5.17-1.23,1.63-.65,3.23-1.39,4.68-2.51-1.83.12-3.52.62-5.17,1.22Zm56.08-21.52c-1.63.65-3.23,1.39-4.68,2.51,1.83-.12,3.52-.63,5.17-1.23,1.63-.65,3.23-1.38,4.68-2.51-1.83.12-3.52.63-5.17,1.23Zm-36.37,4.19c-.65-1.63-1.39-3.23-2.52-4.68.13,1.83.63,3.52,1.23,5.17.65,1.63,1.39,3.23,2.52,4.68-.12-1.83-.63-3.52-1.23-5.17Zm-34.89-1.92c-.1-.26-.21-.51-.32-.76-.37.29-.73.59-1.09.89.04.12.08.23.12.35.65,1.64,1.39,3.23,2.52,4.69-.12-1.84-.63-3.52-1.23-5.17Zm34.49,37.31c-1.62-.7-3.27-1.31-5.09-1.54,1.38,1.21,2.93,2.05,4.52,2.79,1.62.69,3.27,1.3,5.09,1.53-1.38-1.21-2.93-2.04-4.52-2.78Zm-43.95-9.68c-1.61-.7-3.26-1.31-5.09-1.54,1.38,1.22,2.94,2.05,4.53,2.79,1.61.7,3.26,1.3,5.08,1.53-1.38-1.2-2.93-2.04-4.52-2.78Zm66.34-5.82c-.69,1.61-1.3,3.26-1.53,5.09,1.21-1.39,2.05-2.94,2.79-4.53.69-1.61,1.3-3.26,1.53-5.09-1.21,1.39-2.04,2.94-2.79,4.53Z" style="fill: #37474f;"/>
          <path d="m131.07,302.24c3.24-2.93,12.6-10.11,22.98-10.36.12,0,.14.16.03.18-8.35,1.4-19.53,7.73-22.9,10.31-.09.07-.19-.06-.11-.13Z" style="fill: #263238;"/>
          <path d="m165.7,341.64c15.3-21.38,28.15-46.18,30.69-50.34.12-.2-.21-.37-.32-.16-2.28,4.21-20.03,30.96-30.72,50.32-.12.22.21.39.35.18Z" style="fill: #263238;"/>
        </g>
      </g>
      <g>
        <g>
          <path d="m211.39,192.84c-.8,2.32-16.64,19.42-27.13,16.05-7.38-2.36.99-18.61.99-18.61l-2.58-21.98,28.73-14.32s.32,37.86-.01,38.85Z" style="fill: #d3766a;"/>
          <path d="m211.45,168.13c-7.55,14.27-20.3,19.3-26.35,20.93l-2.44-20.75,28.73-14.32s.03,6.39.06,14.14Z" style="fill: #263238;"/>
        </g>
        <g>
          <path d="m162.14,128.63c-12.48,34.03,6.49,45.35,13.83,48.03,6.66,2.44,29.67,9.88,45.6-22.68,15.93-32.56,4.05-49.12-10.89-55.5-14.95-6.38-36.06-3.89-48.54,30.14Z" style="fill: #d3766a;"/>
          <g>
            <path d="m172.89,123.9c.83-.21,1.63-.26,2.48-.38.95-.13,1.7-.34,2.6.1.48.23.73.98.55,1.47-.43,1.15-1.55,1.6-2.69,1.81-1.24.23-2.25.09-3.35-.52-1.07-.59-.69-2.21.41-2.48Z" style="fill: #263238;"/>
            <path d="m198.97,127.49c-.79-.33-1.46-.77-2.21-1.19-.84-.46-1.56-.75-2.02-1.64-.25-.48,0-1.23.45-1.51,1.03-.66,2.2-.35,3.24.17,1.12.56,1.85,1.28,2.36,2.42.5,1.11-.78,2.18-1.82,1.74Z" style="fill: #263238;"/>
            <g>
              <g>
                <path d="m191.42,134.82c.05-.08.15.17.11.27-.83,2.33-1.38,5.13.5,6.59.06.05.01.16-.06.12-2.48-1.19-1.71-4.91-.55-6.98Z" style="fill: #263238;"/>
                <path d="m194.3,133.03c3.87.92,1.75,8.6-1.84,7.75-3.53-.84-1.41-8.52,1.84-7.75Z" style="fill: #263238;"/>
              </g>
              <path d="m195.7,133.85c.55.62,1,1.57,1.78,1.87.91.35,1.84-.26,2.66-.86.09-.06.13.02.11.12-.38,1.48-1.37,2.83-3.01,2.61-1.49-.2-2.17-1.79-2.13-3.37,0-.29.36-.63.58-.38Z" style="fill: #263238;"/>
            </g>
            <g>
              <g>
                <path d="m177.02,130.82c0-.1-.22.06-.24.16-.56,2.4-1.61,5.06-3.98,5.28-.07,0-.1.13-.02.14,2.73.34,4.09-3.21,4.24-5.58Z" style="fill: #263238;"/>
                <path d="m175.56,127.76c-3.76-1.32-6.12,6.29-2.64,7.51,3.43,1.2,5.79-6.41,2.64-7.51Z" style="fill: #263238;"/>
              </g>
              <path d="m173.81,127.76c-.73.22-1.55.76-2.28.59-.85-.2-1.21-1.22-1.5-2.17-.03-.1-.11-.05-.14.05-.49,1.44-.48,3.11.83,3.82,1.2.65,2.52-.31,3.32-1.65.15-.25.07-.72-.22-.63Z" style="fill: #263238;"/>
            </g>
            <path d="m184.06,153.63c-.7.43-1.46,1.08-2.35.95-.85-.12-1.75-.72-2.45-1.2-.07-.05-.16.02-.13.1.41,1.07,1.6,1.94,2.76,2,1.13.06,1.89-.76,2.38-1.7.07-.13-.1-.22-.21-.16Z" style="fill: #263238;"/>
            <path d="m176.62,142.19s-1.7,3.75-2.18,5.42c-.04.16,6.24,1.89,9.69,2.41.21.03.38-.73.19-.79-4.68-1.45-5.57-1.75-8.2-2.46.02-.5,2.79-5.74,2.53-5.83-.89-.34-2.87-.24-4.04-.24,2.95-7.18,7.02-13.82,9.85-21.01.1-.26-.26-.45-.41-.23-4.76,6.66-8.34,14.84-11.57,22.18-.41.91,3.39.65,4.14.56Z" style="fill: #263238;"/>
          </g>
          <path d="m221.35,150.3c-8.54-2.36-4.72-29.42-4.21-32.73-.43,2.07-2.73,13.04-3.66,13.27-.24.05-1.15-.38-2.58-1.16h-.02c.29-1.24.51-2.6.62-3.98.07-.62-.54,1.26-1.43,3.53-.46-.25-.94-.54-1.48-.82.62-2.33,1.17-5.27,1.16-8.48,0-1.09-1.39,3.48-3.34,7.29-5.56-3.02-13.63-7.17-21.59-9.35-2.13-.59-3.99-1.01-5.65-1.32.76-3.22,1.94-6.56,1.53-5.88-1.21,1.93-2.12,3.94-2.77,5.65-.9-.16-1.74-.3-2.49-.4.86-4.6,4.75-11.33,3.76-10.39-3.81,3.64-6.04,7.86-7.06,10.14-3.24-.14-4.14-.56-4.14-.56.2-1.49,2.93-10.35,14.09-18.77,13.69-10.33,38.29-6.94,46.67,11.56,0,0,8.41,8.88,7.48,19.74-.92,10.83-9.95,24.03-14.88,22.67Z" style="fill: #263238;"/>
          <g>
            <path d="m215.69,152.17s10.6-8.85,14.81-4.78c4.22,4.07-5.82,18.34-12.23,18.92-6.4.59-7.06-5.33-7.06-5.33l4.47-8.81Z" style="fill: #d3766a;"/>
            <path d="m227.53,151.41c.1.02.08.15-.01.16-4.53.55-7.7,3.74-10.27,7.26,1.62-1.18,3.5-1.56,5.13.43.09.1-.06.24-.17.19-1.57-.81-2.86-.85-4.35.18-1.06.73-1.93,1.78-2.8,2.72-.29.31-.9-.06-.64-.44.02-.03.04-.06.06-.09,1.31-5.23,7.32-11.41,13.05-10.42Z" style="fill: #263238;"/>
          </g>
        </g>
      </g>
      <path d="m182.66,95.94s13.71-5.94,29.38,1.23c11.78,5.39,24.47,14.49,28.65,36.82,0,0,5.29-24.88-12.56-37.4-22.42-15.73-40.68-5.71-45.47-.65Z" style="fill: #ffc727;"/>
      <g>
        <g>
          <g>
            <g>
              <path d="m155.5,173.52s4.8-8.99,11.37-4.66c6.58,4.33.23,12.29.23,12.29l-11.6-7.63Z" style="fill: #ff9cbd;"/>
              <rect x="134.91" y="171.11" width="13.88" height="71.56" transform="translate(137.06 -43.91) rotate(33.34)" style="fill: #ffc727;"/>
              <rect x="152.84" y="176.45" width="16.21" height="2.84" transform="translate(124.25 -59.18) rotate(33.34)" style="fill: #37474f;"/>
              <rect x="151.11" y="179.07" width="16.21" height="2.84" transform="translate(125.4 -57.8) rotate(33.34)" style="fill: #37474f;"/>
              <g>
                <path d="m128,240.6l-9.22,4.51-3.03,1.5.15-3.39.49-10.25,2.15-.72s.16,2.21.17,2.24l2.15-.72s.16,2.21.17,2.25l2.13-.73s.18,2.22.19,2.26l2.13-.73s.18,2.22.19,2.26l2.13-.73s.18,2.22.19,2.26Z" style="fill: #ebebeb;"/>
                <polygon points="118.78 245.11 115.74 246.6 115.89 243.21 118.78 245.11" style="fill: #37474f;"/>
              </g>
            </g>
            <g style="opacity: .1;">
              <path d="m121.43,230.32c9.79-15.78,21.01-32.84,31.63-48.08-9.79,15.78-21.02,32.84-31.63,48.08h0Z"/>
              <path d="m124.91,232.64c9.79-15.78,21.01-32.84,31.63-48.08-9.79,15.78-21.02,32.84-31.63,48.08h0Z"/>
              <path d="m128.4,234.95c9.79-15.78,21.01-32.84,31.63-48.08-9.79,15.78-21.02,32.84-31.63,48.08h0Z"/>
            </g>
          </g>
          <path d="m233.95,218.93c11.82,28.53,29.77,88.26,16.33,107.08-12.95,18.12-86.84-22.63-101.83-30.97-6.15-3.42,10.23-56.16,17.21-53.33,15.32,6.21,46.55,27.6,47.38,27.21.73-.35-.3-24.52-.48-48.32-.26-34.62,12.9-22.18,21.39-1.67Z" style="fill: #d3766a;"/>
          <g>
            <path d="m121.95,208.52c-5.1,4.28-.6,9.48-.6,9.48,0,0-4.65-.28-8.04,2.64-3.88,3.35-.33,10.9-.33,10.9,0,0-4.76.69-8.03,4.14-3.39,3.58-.9,11.71-.9,11.71,0,0-4.08,3.08-4.77,8.09-1.18,8.56,8.9,17.08,15.34,22.45,9.57,7.98,29.59,14.88,33.83,17.13l35.25-40.68s-22.03-32.03-30.11-37.86c-8.25-5.95-26.62-12.2-31.64-7.98Z" style="fill: #d3766a;"/>
            <g>
              <path d="m122.2,217.59c8.68,2.96,16.02,8.33,23.64,13.27.17.11,0,.37-.17.26-7.53-5-15.95-8.45-23.66-13.14-.21-.13-.04-.47.19-.39Z" style="fill: #263238;"/>
              <path d="m113.57,231.12c1.94.73,3.64,2.1,5.31,3.3,1.8,1.3,3.57,2.63,5.33,3.98,3.51,2.71,6.96,5.51,10.32,8.4.15.13,0,.39-.17.26-3.5-2.7-7.05-5.34-10.66-7.89-1.81-1.28-3.63-2.53-5.46-3.78-1.7-1.16-3.59-2.24-5-3.76-.21-.22.04-.62.33-.51Z" style="fill: #263238;"/>
              <path d="m104.2,247.5c1.71.57,3.24,2.11,4.62,3.23,1.57,1.27,3.15,2.53,4.74,3.78,3.17,2.5,6.35,5.01,9.61,7.4.16.12,0,.38-.17.26-3.33-2.41-6.68-4.78-9.99-7.22-1.62-1.2-3.24-2.41-4.85-3.62-1.37-1.03-3.2-2.17-4.1-3.67-.05-.08.05-.18.13-.15Z" style="fill: #263238;"/>
            </g>
          </g>
        </g>
        <g>
          <path d="m184.03,249.12l-28.33,54.51s63.58,30.29,85.97,27.29c22.39-2.99,12.01-45.78,10.64-55.42-.98-6.89-12.72-48.55-21.88-65.49-9.16-16.94-17.26-17.23-18.51,5.84-1.26,23.06.62,51.1-.31,50.69-.93-.42-27.58-17.42-27.58-17.42Z" style="fill: #455a64;"/>
          <path d="m222.37,246.39c-1.63.65-3.23,1.39-4.68,2.52,1.83-.13,3.52-.63,5.17-1.23,1.63-.65,3.23-1.39,4.68-2.51-1.83.12-3.52.62-5.17,1.22Zm-29.82,61.03c-1.63.65-3.23,1.39-4.68,2.51,1.83-.12,3.52-.63,5.17-1.23,1.63-.65,3.23-1.38,4.68-2.51-1.83.12-3.52.63-5.17,1.23Zm48.63-1.13c-1.63.65-3.23,1.39-4.68,2.51,1.83-.12,3.52-.63,5.17-1.23,1.63-.64,3.23-1.38,4.68-2.51-1.83.12-3.52.63-5.17,1.23Zm-22.23-19.67c-.64-1.63-1.38-3.23-2.51-4.68.13,1.83.63,3.52,1.23,5.17.65,1.63,1.39,3.23,2.51,4.68-.12-1.83-.62-3.52-1.23-5.17Zm-40.92-.17c-1.61-.7-3.26-1.3-5.09-1.53,1.39,1.21,2.94,2.04,4.53,2.78,1.61.7,3.26,1.31,5.09,1.54-1.39-1.21-2.94-2.04-4.53-2.79Zm67.04-10.58c-1.61-.7-3.26-1.31-5.08-1.53,1.38,1.21,2.93,2.04,4.52,2.78,1.61.7,3.27,1.3,5.09,1.54-1.39-1.21-2.94-2.05-4.53-2.79Zm-14.89-58.04c-1.61-.69-3.26-1.3-5.08-1.53,1.38,1.21,2.93,2.05,4.52,2.79,1.61.69,3.27,1.3,5.09,1.53-1.39-1.21-2.94-2.04-4.53-2.79Zm-15.34,104.42c-.57,1.33-1.09,2.7-1.38,4.16.16.05.32.09.48.14.89-1.17,1.55-2.44,2.16-3.73.69-1.62,1.3-3.27,1.53-5.09-1.21,1.38-2.04,2.93-2.79,4.52Zm-17.5-64.66c-.98,1.24-1.71,2.61-2.36,4.02-.7,1.61-1.31,3.26-1.54,5.08,1.21-1.38,2.05-2.93,2.79-4.52.6-1.4,1.14-2.84,1.42-4.38h0c-.1-.08-.21-.14-.31-.2Z" style="fill: #37474f;"/>
          <g>
            <path d="m211.72,265.77c2.97,3.04,5.12,6.38,7.29,9.66,2.21,3.33,3.89,6.76,5.68,10.19.04.08-.16.12-.21.04-2-3.35-4.41-6.6-6.62-9.9-2.2-3.28-4.78-6.47-6.77-9.81-.13-.21.44-.37.63-.18Z" style="fill: #263238;"/>
            <path d="m243.19,242.6c1.68,6.87,8.28,30.61,9.45,37.57,1.22,6.94,2.16,13.94,2.43,20.95.07,3.51.01,6.97-.43,10.44-.42,3.45-1.08,6.89-2.46,9.98-1.36,3.08-3.6,5.7-6.61,7.06-3,1.38-6.47,1.67-9.88,1.49-6.88-.38-13.69-2.38-20.41-4.42-6.72-2.08-13.36-4.47-20-6.87-6.64-2.39-13.24-4.9-19.82-7.47-6.58-2.57-13.17-5.13-19.71-7.79l.06.17,1.75-3.64-1.97,3.53-.06.11.12.06c6.42,2.97,12.87,5.87,19.37,8.64,6.51,2.76,13.06,5.44,19.65,8.02,6.6,2.56,13.26,4.95,20.02,7.14,6.76,2.1,13.62,4.26,20.9,4.66,3.61.15,7.4-.16,10.85-1.77,1.72-.79,3.27-1.98,4.53-3.38,1.27-1.41,2.24-3.04,2.98-4.73,1.47-3.4,2.11-7,2.52-10.55.45-3.55.38-7.18.21-10.73-1.64-23.57-9.4-44.92-13.5-58.44Z" style="fill: #263238;"/>
            <path d="m211.5,229.4c-.12,2.91-.14,5.81-.22,8.72l-.08,8.71c-.08,5.8,0,11.63-.13,17.4l-.04,1.07-.03.51-.02.23v.08s-.02.02-.01,0v-.02s.07-.12.07-.12c.09-.14.25-.26.4-.3l.11-.04c.06-.02.14-.02.2,0,.03,0,.06.02.09.03.02,0,0,0,0,0l-.05-.02c-.07-.03-.12-.05-.2-.1l-.46-.25-.93-.53c-1.24-.73-2.48-1.49-3.71-2.24l-7.43-4.53-7.46-4.51-7.51-4.42-.07-.04-.03.07-.54,1.2.67-1.13-.1.03c2.36,1.7,4.74,3.37,7.13,5.02l7.23,4.88c2.41,1.62,4.86,3.19,7.31,4.76,1.23.77,2.47,1.54,3.73,2.29l.96.56.5.27c.08.04.2.1.29.14l.08.04.05.02s.1.03.15.04c.11.02.22.03.33.03.06,0,.09,0,.18-.03.16-.05.34-.19.44-.35.06-.1.08-.15.07-.14l.02-.04.03-.09c.02-.07.03-.11.03-.14l.03-.19.03-.31.04-.57.04-1.11c.09-5.85-.04-11.64-.25-17.46l-.36-8.71c-.18-2.9-.32-5.81-.56-8.71Z" style="fill: #263238;"/>
            <path d="m180.08,287.89c3.22-6.27,6.39-12.57,9.84-18.73,1.96-3.5,3.91-7.01,5.9-10.49.08-.13.31-.02.25.12-2.98,6.42-5.98,12.86-9.26,19.14-3.26,6.25-6.46,12.54-9.81,18.75-1.9,3.53-3.9,7-6.02,10.41-.04.07-.16.01-.13-.06,2.76-6.53,5.97-12.84,9.22-19.15Z" style="fill: #263238;"/>
            <path d="m209.22,236.26c.2,1.72.55,3.39.94,5.06.41,1.66.85,3.32,1.46,4.94-.19-1.72-.55-3.39-.94-5.06-.41-1.66-.86-3.32-1.46-4.94Z" style="fill: #263238;"/>
          </g>
        </g>
      </g>
      <path d="m178.46,194.06s-1.54,16.56,8.05,17.41c9.59.85,24.31-12.5,30.25-17.41,0,0-8.01-7.32-21.16-6.57-11.32.65-17.14,6.57-17.14,6.57Z" style="fill: #d3766a;"/>
    </g>
  </g>
  <g>
    <g>
      <rect x="113.99" y="360.04" width="112.38" height="5.04" style="fill: #a6a6a6;"/>
      <rect x="169.81" y="360.04" width="56.56" height="5.04" style="fill: #c7c7c7;"/>
    </g>
    <g>
      <polygon points="160.71 365.08 51.19 365.08 35.72 290.69 145.24 290.69 160.71 365.08" style="fill: #c7c7c7;"/>
      <path d="m106.7,329.55c.42,4.03-2.5,7.3-6.53,7.3s-7.64-3.27-8.07-7.3c-.42-4.03,2.5-7.3,6.53-7.3s7.64,3.27,8.07,7.3Z" style="fill: #fff;"/>
    </g>
  </g>
  <g>
    <path d="m10.64,252.03c-3.9,11.48,2.25,23.95,13.72,27.84,4.64,1.58,9.44,1.51,13.77.11l9.3,6.06-1.02-10.92c2.57-2.39,4.59-5.43,5.79-8.97,3.9-11.48-2.25-23.95-13.72-27.84-11.48-3.9-23.95,2.25-27.84,13.72Z" style="fill: #ffc727;"/>
    <g>
      <rect x="29.91" y="249.44" width="2.98" height="20.05" transform="translate(-174.27 98.2) rotate(-45)" style="fill: #fff;"/>
      <rect x="29.91" y="249.44" width="2.98" height="20.05" transform="translate(192.67 53.79) rotate(45)" style="fill: #fff;"/>
    </g>
  </g>
  <g>
    <g>
      <path d="m102.96,67.7c.33,15.89,13.48,28.52,29.37,28.19,6.42-.13,12.31-2.36,17.03-6.03l14.17,3.31-6.14-13.01c2.1-4.09,3.23-8.75,3.13-13.65-.33-15.89-13.48-28.52-29.37-28.19s-28.52,13.48-28.19,29.37Z" style="fill: #fff;"/>
      <path d="m102.96,67.7c.36,16.71,15.21,29.75,31.82,27.8,5.28-.59,10.36-2.71,14.49-6.02,0,0,.17.04.17.04l14.19,3.23s-.5.61-.5.61c0,0-6.18-12.99-6.18-12.99,0,0-.1-.21-.1-.21l.11-.21c1.93-3.82,2.99-8.08,3.08-12.36.41-13.05-9.17-25.43-21.94-28.24-17.96-4.44-35.58,9.9-35.14,28.36h0Zm0,0c.07-31.34,41.21-41.02,55.25-12.96,3.81,7.99,3.76,17.77-.38,25.65v-.42s6.11,13.03,6.11,13.03c0,0,.39.83.39.83,0,0-.88-.21-.88-.21l-14.15-3.39s.3-.07.3-.07c-4.26,3.26-9.43,5.31-14.75,5.82-16.57,1.76-31.69-11.58-31.87-28.27h0Z" style="fill: #263238;"/>
    </g>
    <path d="m126.76,72.17c0-1.31.21-2.48.64-3.52.43-1.04,1.31-1.95,2.64-2.72.4-.24.89-.51,1.48-.82.59-.31,1.16-.67,1.72-1.1.56-.43,1.03-.93,1.42-1.5.39-.57.58-1.23.58-1.98,0-.56-.11-1.05-.32-1.48-.21-.43-.49-.79-.84-1.08-.35-.29-.75-.51-1.22-.66-.47-.15-.94-.22-1.42-.22-.59,0-1.12.1-1.6.3-.48.2-.91.45-1.3.76-.39.31-.73.65-1.04,1.04-.31.39-.57.75-.78,1.1l-3.48-2.4c.35-.83.81-1.56,1.38-2.2.57-.64,1.23-1.18,1.96-1.62.73-.44,1.53-.77,2.38-1s1.73-.34,2.64-.34c1.01,0,2.01.15,3,.44.99.29,1.87.76,2.66,1.4s1.43,1.46,1.92,2.46c.49,1,.74,2.2.74,3.58,0,.85-.1,1.61-.3,2.26-.2.65-.49,1.25-.86,1.78-.37.53-.81,1.01-1.32,1.44-.51.43-1.08.84-1.72,1.24-.53.32-1.07.63-1.6.92-.53.29-1.02.62-1.46.98-.44.36-.8.77-1.08,1.24-.28.47-.42,1.03-.42,1.7h-4.4Zm.08,9.33v-5.52h4.44v5.52h-4.44Z" style="fill: #ffc727;"/>
  </g>
  <g>
    <path d="m108.23,403.35h-5.1l-8.53-12.91v12.91h-5.1v-20.93h5.1l8.53,12.97v-12.97h5.1v20.93Z" style="fill: #ffc727;"/>
    <path d="m116.41,402.19c-1.64-.91-2.94-2.19-3.9-3.83-.96-1.64-1.45-3.48-1.45-5.53s.48-3.88,1.45-5.51c.96-1.63,2.27-2.9,3.9-3.82s3.44-1.37,5.41-1.37,3.77.46,5.41,1.37c1.64.91,2.93,2.19,3.88,3.82s1.42,3.47,1.42,5.51-.48,3.89-1.43,5.53c-.95,1.64-2.25,2.92-3.88,3.83s-3.43,1.37-5.4,1.37-3.77-.46-5.41-1.37Zm9.42-4.95c1-1.11,1.51-2.58,1.51-4.41s-.5-3.32-1.51-4.43-2.34-1.65-4.01-1.65-3.04.55-4.04,1.64-1.51,2.57-1.51,4.44.5,3.32,1.51,4.43c1,1.1,2.35,1.65,4.04,1.65s3.01-.56,4.01-1.67Z" style="fill: #ffc727;"/>
    <path d="m155.29,383.74c1.65.88,2.93,2.1,3.83,3.68.9,1.58,1.36,3.4,1.36,5.47s-.45,3.87-1.36,5.46c-.91,1.59-2.19,2.82-3.85,3.7-1.66.88-3.58,1.31-5.77,1.31h-7.84v-20.93h7.84c2.21,0,4.13.44,5.78,1.31Zm-1.61,13.62c1.07-1.05,1.61-2.54,1.61-4.47s-.54-3.43-1.61-4.5-2.57-1.61-4.5-1.61h-2.41v12.16h2.41c1.93,0,3.43-.53,4.5-1.58Z" style="fill: #ffc727;"/>
    <path d="m176.37,399.66h-7.81l-1.25,3.7h-5.34l7.57-20.93h5.9l7.57,20.93h-5.4l-1.25-3.7Zm-1.31-3.93l-2.59-7.66-2.56,7.66h5.16Z" style="fill: #ffc727;"/>
    <path d="m200.36,382.43v4.08h-5.54v16.84h-5.1v-16.84h-5.54v-4.08h16.19Z" style="fill: #ffc727;"/>
    <path d="m215.96,399.66h-7.81l-1.25,3.7h-5.34l7.57-20.93h5.9l7.57,20.93h-5.4l-1.25-3.7Zm-1.31-3.93l-2.59-7.66-2.56,7.66h5.16Z" style="fill: #ffc727;"/>
    <path d="m244.84,382.43v4.08h-8.53v4.41h6.38v3.96h-6.38v8.47h-5.1v-20.93h13.62Z" style="fill: #ffc727;"/>
    <path d="m252.01,402.19c-1.64-.91-2.94-2.19-3.9-3.83-.96-1.64-1.45-3.48-1.45-5.53s.48-3.88,1.45-5.51c.96-1.63,2.27-2.9,3.9-3.82,1.64-.91,3.44-1.37,5.41-1.37s3.77.46,5.41,1.37,2.93,2.19,3.88,3.82c.94,1.63,1.42,3.47,1.42,5.51s-.48,3.89-1.43,5.53-2.25,2.92-3.88,3.83c-1.63.91-3.43,1.37-5.4,1.37s-3.77-.46-5.41-1.37Zm9.42-4.95c1-1.11,1.51-2.58,1.51-4.41s-.5-3.32-1.51-4.43-2.34-1.65-4.01-1.65-3.04.55-4.04,1.64c-1,1.09-1.51,2.57-1.51,4.44s.5,3.32,1.51,4.43c1,1.1,2.35,1.65,4.04,1.65s3-.56,4.01-1.67Z" style="fill: #ffc727;"/>
    <path d="m275.96,382.43v12.52c0,1.25.31,2.22.92,2.89.62.68,1.52,1.01,2.71,1.01s2.11-.34,2.74-1.01c.64-.68.95-1.64.95-2.89v-12.52h5.1v12.49c0,1.87-.4,3.45-1.19,4.74s-1.86,2.27-3.2,2.92c-1.34.66-2.84.98-4.49.98s-3.12-.32-4.43-.97-2.33-1.62-3.08-2.92c-.76-1.3-1.13-2.89-1.13-4.75v-12.49h5.1Z" style="fill: #ffc727;"/>
    <path d="m310.69,403.35h-5.1l-8.53-12.91v12.91h-5.1v-20.93h5.1l8.53,12.97v-12.97h5.1v20.93Z" style="fill: #ffc727;"/>
    <path d="m328.01,383.74c1.65.88,2.93,2.1,3.83,3.68.9,1.58,1.36,3.4,1.36,5.47s-.45,3.87-1.36,5.46c-.91,1.59-2.19,2.82-3.85,3.7-1.66.88-3.58,1.31-5.77,1.31h-7.84v-20.93h7.84c2.21,0,4.13.44,5.78,1.31Zm-1.61,13.62c1.07-1.05,1.61-2.54,1.61-4.47s-.54-3.43-1.61-4.5-2.57-1.61-4.5-1.61h-2.42v12.16h2.42c1.93,0,3.43-.53,4.5-1.58Z" style="fill: #ffc727;"/>
  </g>
</svg>