<?xml version="1.0" encoding="UTF-8"?>
<svg id="Layer_1" data-name="Layer 1" xmlns="http://www.w3.org/2000/svg" viewBox="0 0 375.3 382.81">
  <path d="m334.62,353.69c11.83.06,23.65.11,35.48.17,4.81.02,5.17.37,5.18,5.04.01,6.59-.03,13.17.03,19.76.01,1.66-.1,3.17-1.66,4.15H37.06c-1.55-6.27-.51-12.64-.7-18.96-.1-3.32-.58-6.73.7-9.98,1.28.6,2.54.8,3.69-.28,8.51.02,17.03.05,25.54.07,49.47,0,98.94,0,148.42,0,8.74,0,17.49,0,26.23,0,31.22,0,62.45.01,93.67.02Z" style="fill: #fac600;"/>
  <path d="m37.06,353.86c-1.28,3.25-.8,6.65-.7,9.98.19,6.32-.85,12.69.7,18.96H1.08C.3,381.63,0,380.35,0,378.94c.03-7.08.06-14.16,0-21.24-.03-2.95,1.05-4.12,4.21-4.06,10.95.23,21.9.17,32.85.22Z" style="fill: #e8b800;"/>
  <path d="m214.71,353.66c-49.47,0-98.94,0-148.42,0,0-33.72,0-67.45-.01-101.17,0-1.88.08-3.72.72-5.49.26-.1.52-.21.78-.31,1.33.25,2.66.7,3.99.71,7.45.04,14.89-.02,22.34-.05,4.94.01,9.89.02,14.83.03.03,8.68.14,17.36.04,26.04-.03,2.8.79,4.16,3.81,4,3.47-.19,6.96-.08,10.43-.1,6.48.02,12.96-.07,19.43.1,2.94.08,3.94-1.02,3.91-3.92-.11-8.7-.02-17.4,0-26.1,13.81-.07,27.62-.14,41.42-.22,8.91.05,17.83.09,26.74.14,0,35.46,0,70.91,0,106.37Z" style="fill: #f6a96c;"/>
  <path d="m277.07,35c25.85,0,51.69,0,77.54.01,5.11,0,5.53.43,5.53,5.58,0,52.2,0,104.4,0,156.6,0,5.16-.93,6.1-6.07,6.1-31.71,0-63.43,0-95.14-.02,0-10.7,0-21.4.04-32.1,0-1.3-.5-2.78.81-3.83,1.43.38,2.83.81,4.37.81,12.58-.05,25.15,0,37.73-.04,4.13-.01,6.52-2.1,6.57-5.49.05-3.63-2.31-5.7-6.66-5.7-12.58-.02-25.15,0-37.73-.01-1.5,0-2.99,0-4.35.78-1.69-4.4-.48-8.96-.69-13.44-.09-1.98-.84-4.19.71-6.03,1.36.78,2.85.78,4.36.78,19.36-.01,38.72,0,58.08-.01,5.02,0,6.57-1.47,6.49-5.96-.07-3.81-1.78-5.25-6.45-5.25-19.24-.02-38.47,0-57.71-.03-1.66,0-3.2.35-4.76.8-1.18-.93-.85-2.27-.77-3.44.37-5.34-.93-10.75.71-16.03,1.6.94,3.36.78,5.1.78,12.6,0,25.21,0,37.81,0,6.86,0,13.73.06,20.59-.03,4.03-.06,5.61-1.86,5.47-5.81-.13-3.75-2.04-5.37-6.47-5.38-19.22-.02-38.43,0-57.65-.03-1.66,0-3.2.34-4.75.8-1.2-.9-.81-2.22-.82-3.39-.04-4.39-.03-8.79-.04-13.19.59-1.26,1.82-1.68,2.95-2.24,20.59.04,41.19.09,61.78.09,3.29,0,5.06-1.61,5.03-5.06-.04-4.21-2.1-6.11-7.02-6.12-16.73-.04-33.45-.04-50.18-.06,4.06-8.07,6.7-16.43,6.32-25.66-.12-2.95-1.07-5.8-.73-8.76Z" style="fill: #eaf6ff;"/>
  <path d="m334.62,353.69c-31.22,0-62.45-.01-93.67-.02.02-35.44.04-70.88.06-106.32,5.48.02,10.95.04,16.43.05.03,8.31.05,16.63.09,24.94.02,4.66.4,5.04,5.18,5.03,2.98,0,5.97-.06,8.95-.1,5.12.03,10.24-.1,15.35.13,3.28.15,4.39-1.03,4.34-4.3-.15-8.59,0-17.18.02-25.78,12.96,0,25.92.11,38.88-.05,3.51-.04,4.47,1.2,4.46,4.57-.1,33.95-.07,67.89-.07,101.84Z" style="fill: #fed2a4;"/>
  <path d="m108.93,247.36c-4.94-.01-9.89-.02-14.83-.03-.02-29.77-.06-59.53-.04-89.3,0-1.34.44-2.67.68-4.01,5.33.05,10.66.1,16,.15-.03,8.58-.02,17.15-.09,25.73-.03,3.18,1.09,4.98,4.61,4.67,2.97-.26,5.96-.35,8.94-.52,5.34.16,10.69.21,16.02.51,3.46.19,4.73-1.4,4.7-4.62-.07-8.58-.08-17.15-.12-25.73,13.21-.08,26.42-.18,39.63-.21,2.86,0,3.33,1.97,3.32,4.35-.04,12.94-.02,25.88-.02,38.82,0,15.18,0,30.36.01,45.54,0,1.49.15,2.97.23,4.46-13.81.07-27.61.14-41.42.22-8.29.08-16.55-1.14-24.85-.43-4.26-.03-8.55-.81-12.77.42Z" style="fill: #fed2a4;"/>
  <path d="m259.69,109.06c-1.64,5.28-.34,10.69-.71,16.03-.08,1.17-.41,2.5.77,3.44-3.28,4.03-3.28,5.63-.01,9.68-1.56,1.84-.81,4.05-.71,6.03.21,4.48-1,9.04.69,13.44-3.25,4.09-3.24,5.72.07,9.67-1.31,1.06-.8,2.53-.81,3.83-.04,10.7-.03,21.4-.04,32.1-8.87,0-17.74.01-26.6,0-5.2,0-5.61-.4-5.61-5.49,0-35.52-.01-71.04-.02-106.56,6.03-.23,12.13.23,17.97-1.84,5.05-1.55,9.55-4.29,14.26-6.58,0,4.4,0,8.79.04,13.19.01,1.17-.37,2.48.82,3.39-3.31,3.93-3.33,5.54-.1,9.67Z" style="fill: #d8ecfe;"/>
  <path d="m258.92,82.82c-4.71,2.29-9.21,5.03-14.26,6.58-.53-.98-1.54-1.09-2.46-1.48-16.65-7.01-26.34-19.42-28.94-37.29,3.65,3.56,7.31,7.1,10.95,10.67,3,2.94,7.08,3.13,10.1.17,7.38-7.24,14.7-14.55,21.96-21.91,2.61-2.65,2.73-6.44.53-8.57-2.18-2.09-5.96-1.76-8.58.83-5.4,5.35-10.89,10.61-16.09,16.15-2.12,2.27-3.25,1.85-5.2-.11-4.18-4.23-8.63-8.19-12.97-12.26,2.83-11.17,8.69-20.3,18.03-27.23,3.92-2.91,8.55-4.38,12.68-6.84,7.42,2.44,14.15,5.95,19.77,11.57,5.67,5.68,9.47,12.34,11.72,19.94.22.74.53,1.35.91,1.96-.34,2.96.61,5.81.73,8.76.39,9.23-2.25,17.59-6.32,25.66-3.03,3.87-6.04,7.76-9.62,11.16-1.12.56-2.35.98-2.95,2.24Z" style="fill: #4fc124;"/>
  <path d="m241,247.34c-.02,35.44-.04,70.88-.06,106.32-8.74,0-17.49,0-26.23,0,0-35.46,0-70.91,0-106.37,7.54-1.14,15.13-.23,22.69-.49,1.2-.04,2.51-.36,3.6.54Z" style="fill: #ffbd86;"/>
  <path d="m67,246.98c-.65,1.78-.72,3.62-.72,5.49.02,33.72.02,67.45.01,101.17-8.51-.02-17.03-.05-25.54-.07.02-33.64.05-67.29.07-100.93,0-5.61.23-5.86,5.96-5.83,6.74.03,13.48.11,20.22.17Z" style="fill: #ea9b58;"/>
  <path d="m94.74,154.03c-.24,1.34-.68,2.67-.68,4.01-.02,29.77.02,59.53.04,89.3-7.44.03-14.89.09-22.34.05-1.33,0-2.66-.46-3.99-.71,0-29.11.01-58.22.03-87.33,0-5.05.32-5.39,5.25-5.38,7.23,0,14.46.04,21.69.07Z" style="fill: #ffbd86;"/>
  <path d="m244.67,1.53c-4.13,2.46-8.76,3.93-12.68,6.84-9.34,6.92-15.2,16.06-18.03,27.23-2.6-.91-4.94-.9-6.78,1.58-2.15,2.89-1.23,5.47.77,7.85,1.65,1.96,3.53,3.74,5.3,5.6,2.6,17.87,12.29,30.28,28.94,37.29.91.38,1.93.5,2.46,1.48-5.84,2.07-11.94,1.6-17.97,1.84-7.67-1.74-15.06-4.08-21.43-8.99-10.19-7.87-16.4-17.96-18.3-30.78-1.79-12.06,1.26-22.86,8.25-32.55,7.4-10.25,17.27-16.6,30.09-18.48,6.65-.98,12.97-.2,19.37,1.09Z" style="fill: #48a921;"/>
  <path d="m144.8,154.21c.04,8.58.05,17.15.12,25.73.03,3.22-1.24,4.82-4.7,4.62-5.33-.3-10.68-.35-16.02-.51-.07-9.97-.14-19.95-.21-29.92,6.94.03,13.88.05,20.82.08Z" style="fill: #fe646f;"/>
  <path d="m291.35,247.33c-.03,8.59-.17,17.19-.02,25.78.06,3.27-1.06,4.44-4.34,4.3-5.11-.23-10.23-.11-15.35-.13-.64-1.11-.73-2.32-.73-3.58.04-8.79.04-17.58.05-26.37,6.79,0,13.59,0,20.38,0Z" style="fill: #fe646f;"/>
  <path d="m270.97,247.32c-.01,8.79-.02,17.58-.05,26.37,0,1.26.08,2.47.73,3.58-2.98.03-5.97.1-8.95.1-4.78,0-5.16-.38-5.18-5.03-.04-8.31-.06-16.63-.09-24.94,4.51-1.08,9.02-.59,13.54-.08Z" style="fill: #fd4855;"/>
  <path d="m123.98,154.13c.07,9.97.14,19.95.21,29.92-2.98.17-5.96.26-8.93.52-3.52.31-4.64-1.49-4.61-4.67.07-8.58.07-17.15.09-25.73,4.41-.37,8.83-.31,13.24-.04Z" style="fill: #fd4855;"/>
  <path d="m121.7,246.95c8.3-.71,16.56.51,24.85.43-.01,8.7-.11,17.4,0,26.1.04,2.9-.96,4-3.91,3.92-6.47-.17-12.95-.08-19.43-.1-1.13-1.4-1.49-2.97-1.48-4.79.06-8.52-.01-17.04-.04-25.56Z" style="fill: #fe646f;"/>
  <path d="m121.7,246.95c.02,8.52.1,17.04.04,25.56-.01,1.83.35,3.39,1.48,4.79-3.48.02-6.97-.08-10.44.1-3.02.16-3.84-1.19-3.81-4,.09-8.68-.01-17.36-.04-26.04,4.22-1.23,8.51-.45,12.77-.42Z" style="fill: #fd4855;"/>
  <path d="m259.73,138.21c-3.27-4.04-3.27-5.65.01-9.68,1.56-.45,3.1-.8,4.76-.8,19.24.04,38.47.02,57.71.03,4.67,0,6.38,1.44,6.45,5.25.08,4.48-1.47,5.95-6.49,5.96-19.36.02-38.72,0-58.08.01-1.51,0-3,0-4.36-.78Z" style="fill: #8bc9fe;"/>
  <path d="m259.69,109.06c-3.23-4.13-3.22-5.73.1-9.67,1.55-.46,3.09-.8,4.75-.8,19.22.04,38.43.02,57.65.03,4.44,0,6.34,1.63,6.47,5.38.14,3.95-1.44,5.75-5.47,5.81-6.86.1-13.73.03-20.59.03-12.6,0-25.21,0-37.81,0-1.74,0-3.51.16-5.1-.78Z" style="fill: #8bc9fe;"/>
  <path d="m261.87,80.58c3.58-3.4,6.59-7.29,9.62-11.16,16.73.02,33.45.02,50.18.06,4.92.01,6.98,1.92,7.02,6.12.03,3.46-1.75,5.07-5.03,5.06-20.59,0-41.19-.06-61.78-.09Z" style="fill: #8bc9fe;"/>
  <path d="m259.77,167.35c-3.31-3.95-3.32-5.57-.07-9.67,1.36-.78,2.84-.78,4.35-.78,12.58.01,25.15,0,37.73.01,4.35,0,6.72,2.07,6.66,5.7-.05,3.39-2.45,5.48-6.57,5.49-12.58.04-25.15,0-37.73.04-1.54,0-2.93-.42-4.37-.81Z" style="fill: #8bc9fe;"/>
  <path d="m213.26,50.63c-1.78-1.86-3.65-3.64-5.3-5.6-2-2.38-2.92-4.96-.77-7.85,1.85-2.48,4.18-2.5,6.78-1.58,4.34,4.07,8.8,8.03,12.97,12.26,1.94,1.97,3.07,2.38,5.2.11,5.19-5.54,10.69-10.81,16.09-16.15,2.61-2.59,6.4-2.92,8.58-.83,2.21,2.12,2.09,5.92-.53,8.57-7.26,7.36-14.58,14.67-21.96,21.91-3.02,2.96-7.11,2.77-10.1-.17-3.64-3.57-7.3-7.11-10.95-10.67Z" style="fill: #fff;"/>
</svg>