<?xml version="1.0" encoding="UTF-8"?>
<svg id="Layer_1" data-name="Layer 1" xmlns="http://www.w3.org/2000/svg" viewBox="0 0 383.24 318.78">
  <path d="m0,244.7c0-35.42,0-70.84,0-106.26.23-.43.61-.84.66-1.29,2.35-19.37,20.55-33.93,39.44-33.92,100.77.08,201.53.04,302.3.04,18.07,0,32.72,10.47,38.57,27.5.41,1.2.32,2.85,2.08,3.25.03,35.39.27,70.79-.03,106.18-.12,14.53-6.82,25.86-19.27,33.78-3.4,2.16-7.46,2.74-10.62,5.23-2.27-.64-4.36.63-6.54.63-11.29,0-22.57-.06-33.86-.1.22-.3.4-.64.66-.9,19.33-20.16,26.37-44.09,20.9-71.34-3.74-18.65-13.82-33.69-29.04-45.17-16.39-12.35-35.01-16.8-55.18-14.77-9.55.96-18.78,3.57-27.07,8.76-5.03,1.99-9.31,5.22-13.31,8.71-16.95,14.81-26.64,33.2-27.46,56.01-.46,12.6,1.8,24.53,7.22,35.95,4.1,8.63,9.81,16.01,16.38,22.83-8.7.02-17.41.03-26.11.04-28.35.04-56.71.07-85.06.11-4.35-.04-8.69-.07-13.04-.14-17.21-.28-34.43.66-51.63-.63-.85-1.24-2.28-1.39-3.54-1.86-8.73-3.3-15.56-8.82-20.54-16.83-3.07-4.94-4.31-10.42-5.92-15.82Zm40.41-91.14c-.6,9.27,8.49,18.87,18,18.46,11.35-.49,18.63-7.85,18.48-18.7-.16-11.58-9.27-17.59-17.58-18.03-10.26-.54-19.68,9.2-18.9,18.27Zm107.76.13c1.46-8.99-7.05-18.11-17.74-18.34-12.1-.27-18.86,9.61-18.65,18.18.25,10.15,7.45,18.09,17.89,18.43,9.76.32,19.58-8.01,18.5-18.27Zm-55.4,74.61c7.5.08,12.93-2.2,17.51-6.52,2.58-2.44,2.89-6.43.82-8.59-2.11-2.21-5.69-2.03-8.5.43-5.31,4.63-11.51,4.62-16.57-.02-2.35-2.16-6.15-2.57-7.92-.86-2.43,2.35-2.58,6.1.03,8.66,4.34,4.27,9.44,7.05,14.63,6.91Zm55.39-15.6c0-1.74.14-3.49-.03-5.21-.31-3.25-2.27-4.65-5.48-4.73-3.24-.08-5.35,1.18-5.54,4.52-.2,3.46-.22,6.95-.02,10.41.18,3.07,2.04,5.03,5.14,5.24,3.08.21,5.64-2.26,5.91-5.41.13-1.6.02-3.22.02-4.84Zm-96.24-.03s-.08,0-.12,0c0-1.87.29-3.79-.07-5.59-.6-3.02-2.41-4.59-5.83-4.36-3.09.21-4.69,1.78-4.93,4.54-.29,3.46-.31,6.98-.07,10.44.22,3.12,2.32,5.05,5.37,5.19,3.14.14,5.38-2.38,5.63-5.74.11-1.49.02-2.99.02-4.48Z" style="fill: #d3d3ff;"/>
  <path d="m383.05,134.02c-1.76-.39-1.66-2.05-2.08-3.25-5.85-17.03-20.5-27.5-38.57-27.5-100.77,0-201.53.04-302.3-.04-18.9-.02-37.09,14.54-39.44,33.92-.05.45-.43.86-.66,1.29,0-28.93,0-57.87,0-86.8,1.28-1.19.69-2.84,1-4.25C6.98,19.37,30.78,0,60.45,0c87.03,0,174.06-.03,261.08.03,17.8.01,33.37,5.46,45.82,18.88,9.56,10.31,15.3,22.39,15.6,36.2.58,26.29.13,52.61.1,78.92Zm-65.72-91.21c3.11,0,6.23.08,9.34-.02,3.49-.12,5.64-2.09,5.65-5.16,0-3.34-1.72-5.69-5.04-5.82-6.58-.26-13.19-.28-19.77.03-3.35.16-5.41,2.88-5.19,5.66.23,2.95,2.75,5.22,6.04,5.3,2.99.07,5.98.02,8.96.01Zm-251.89-.01c3.23,0,6.47.2,9.67-.06,2.54-.21,4.84-1.16,5.02-4.37.21-3.79-1.13-6.27-4.43-6.52-6.79-.5-13.64-.65-20.42.09-3.03.33-4.8,2.46-4.49,5.77.31,3.21,2.16,4.95,5.34,5.07,3.1.12,6.2.03,9.3.02Zm252.05,17.57c-2.74,0-5.48,0-8.22,0-.25,0-.5,0-.75,0-3.44.19-6.03,2.39-6.2,5.25-.17,2.78,2.34,5.69,5.68,5.8,6.34.2,12.7.16,19.04-.12,3.18-.14,5.31-2.01,5.29-5.53-.02-3.21-2.16-5.23-5.87-5.38-2.98-.12-5.98-.02-8.97-.03Zm-252.04.03s0,.05,0,.07c-3.36,0-6.73-.13-10.08.04-3.23.16-4.39,2.45-4.57,5.3-.18,2.83,1.12,4.98,4,5.33,6.93.84,13.92.69,20.87.18,3.42-.25,4.69-2.61,4.49-6.06-.19-3.35-2.09-4.66-5-4.82-3.23-.17-6.47-.04-9.71-.04Z" style="fill: #eeecff;"/>
  <path d="m288.3,296.16c-1.54-1.26-2.79.18-4.01.6-8.63,2.97-17.54,5.05-26.6,4.68-16.94-.7-32.54-5.78-45.89-16.69-2-1.63-3.98-3.29-5.97-4.93-6.56-6.82-12.28-14.2-16.38-22.83-5.42-11.42-7.68-23.34-7.22-35.95.82-22.8,10.5-41.2,27.46-56.01,4-3.5,8.27-6.72,13.31-8.71-.84,10.07,3.1,18.08,10.58,24.58-.07.12-.09.25-.08.38-4.69,2.49-8.66,5.93-12,9.96-12.44,15.02-16.26,31.98-9.26,50.34,7.15,18.76,25.67,33.92,50.04,32.28,10.55-.71,20.08-4.16,28.15-11.18.21,0,.43.01.64.03.16,10.88,5.88,17.73,15.66,21.65-4.31,3.92-9.36,6.67-14.53,9.22-1.4.69-3.03,1.06-3.9,2.58Z" style="fill: #01c4fc;"/>
  <path d="m306.73,284.36c-9.78-3.92-15.51-10.77-15.66-21.65,13.5-12.46,19.72-27.48,17.32-46.08-2.99-23.16-23.2-41.37-46.47-42.35-10.17-.43-19.49,1.85-28.34,6.62-7.47-6.49-11.42-14.5-10.58-24.58,8.29-5.19,17.52-7.8,27.07-8.76,20.17-2.03,38.79,2.42,55.18,14.77,15.22,11.47,25.3,26.51,29.04,45.17,5.47,27.25-1.57,51.18-20.9,71.34-.25.27-.44.6-.65.9-2,1.54-4,3.08-6,4.62Z" style="fill: #59d5ff;"/>
  <path d="m94.66,279.98c-.16,6.45.56,12.91-.42,19.34-21.37-.32-42.75.77-64.1-.77-.05-6.44-.09-12.89-.14-19.33,17.2,1.29,34.42.35,51.63.63,4.35.07,8.69.09,13.04.14Z" style="fill: #3b5a9a;"/>
  <path d="m40.41,153.56c-.77-9.07,8.64-18.81,18.9-18.27,8.31.44,17.41,6.45,17.58,18.03.15,10.85-7.13,18.21-18.48,18.7-9.51.41-18.6-9.19-18-18.46Z" style="fill: #ff6f81;"/>
  <path d="m148.16,153.69c1.07,10.26-8.75,18.59-18.5,18.27-10.44-.34-17.64-8.28-17.89-18.43-.21-8.57,6.55-18.45,18.65-18.18,10.7.23,19.2,9.35,17.74,18.34Z" style="fill: #01c680;"/>
  <path d="m306.73,284.36c2-1.54,4-3.08,6-4.62,11.28.04,22.57.11,33.86.1,2.19,0,4.28-1.27,6.54-.63-.05,6.44-.09,12.89-.13,19.33-21.58,1.55-43.18.46-64.77.76.03-1.05.05-2.09.08-3.14.86-1.52,2.5-1.89,3.9-2.58,5.18-2.55,10.23-5.3,14.53-9.22Z" style="fill: #3b5b9a;"/>
  <path d="m92.76,228.3c-5.19.13-10.29-2.65-14.63-6.91-2.6-2.56-2.46-6.31-.03-8.66,1.77-1.71,5.57-1.3,7.92.86,5.06,4.65,11.26,4.66,16.57.02,2.81-2.45,6.39-2.63,8.5-.43,2.06,2.16,1.76,6.15-.82,8.59-4.58,4.32-10.01,6.6-17.51,6.52Z" style="fill: #435561;"/>
  <path d="m148.16,212.69c0,1.61.11,3.23-.02,4.84-.26,3.14-2.83,5.62-5.91,5.41-3.09-.21-4.96-2.17-5.14-5.24-.2-3.46-.18-6.95.02-10.41.19-3.34,2.3-4.6,5.54-4.52,3.21.08,5.17,1.48,5.48,4.73.16,1.72.03,3.47.03,5.21Z" style="fill: #435561;"/>
  <path d="m51.92,212.66c0,1.5.09,3-.02,4.48-.25,3.36-2.49,5.88-5.63,5.74-3.05-.14-5.15-2.08-5.37-5.19-.24-3.47-.23-6.98.07-10.44.23-2.75,1.83-4.33,4.93-4.54,3.42-.23,5.23,1.34,5.83,4.36.36,1.8.07,3.72.07,5.59.04,0,.08,0,.12,0Z" style="fill: #435561;"/>
  <path d="m317.33,42.81c-2.99,0-5.98.06-8.96-.02-3.29-.08-5.81-2.35-6.04-5.3-.22-2.79,1.84-5.51,5.19-5.66,6.58-.31,13.19-.29,19.77-.03,3.31.13,5.05,2.48,5.04,5.82,0,3.07-2.17,5.05-5.65,5.16-3.11.1-6.23.02-9.34.03Z" style="fill: #5a73a4;"/>
  <path d="m65.44,42.8c-3.1,0-6.21.09-9.3-.03-3.18-.12-5.03-1.87-5.34-5.07-.31-3.3,1.45-5.44,4.49-5.77,6.78-.74,13.63-.59,20.42-.09,3.3.24,4.64,2.73,4.43,6.52-.18,3.2-2.48,4.16-5.02,4.37-3.2.26-6.45.06-9.67.07Z" style="fill: #5a73a4;"/>
  <path d="m317.49,60.37c2.99,0,5.98-.09,8.97.02,3.71.15,5.86,2.17,5.87,5.38.02,3.52-2.11,5.39-5.29,5.53-6.34.28-12.7.31-19.04.12-3.34-.1-5.85-3.02-5.68-5.8.17-2.87,2.77-5.06,6.2-5.25.25-.01.5,0,.75,0,2.74,0,5.48,0,8.22,0Z" style="fill: #5a73a4;"/>
  <path d="m65.46,60.39c3.24,0,6.48-.13,9.71.04,2.91.16,4.81,1.46,5,4.82.19,3.45-1.07,5.81-4.49,6.06-6.95.51-13.93.67-20.87-.18-2.87-.35-4.17-2.5-4-5.33.18-2.85,1.34-5.14,4.57-5.3,3.35-.16,6.72-.04,10.08-.04,0-.02,0-.05,0-.07Z" style="fill: #5a73a4;"/>
  <path d="m288.23,299.3c21.59-.3,43.2.78,64.77-.76-.06,11.78-7.9,19.88-19.64,20.04-8.72.12-17.43.09-26.15-.02-8.92-.12-16.25-6.19-18.25-14.96-.31-1.38-1.36-2.73-.73-4.29Z" style="fill: #5972a4;"/>
  <path d="m30.13,298.54c21.35,1.54,42.74.45,64.1.77.2,9.86-6.75,18.28-16.87,19.02-10.26.75-20.59.42-30.9.02-8.99-.35-18.05-11.52-16.33-19.81Z" style="fill: #5972a4;"/>
  <path d="m233.58,180.9c8.85-4.77,18.17-7.05,28.34-6.62,23.28.99,43.49,19.19,46.47,42.35,2.4,18.6-3.82,33.62-17.32,46.08-.21-.02-.43-.03-.64-.03-5.79-.57-11.69-.63-17.36-1.78-28.67-5.83-41.92-25.49-43.33-52.44-.48-9.29,1.58-18.24,3.76-27.18-.01-.14.01-.27.08-.38Zm25.7,61.57c10.1,1.14,18.65-9.27,18.58-18.54-.08-10.09-8.34-18.74-19.05-18.84-9.97-.09-18.83,9.21-18.56,19.52.24,9.09,8.53,19.1,19.02,17.86Z" style="fill: #5972a4;"/>
  <path d="m233.5,181.28c-2.18,8.93-4.24,17.89-3.76,27.18,1.4,26.96,14.65,46.62,43.33,52.44,5.67,1.15,11.57,1.21,17.36,1.78-8.07,7.02-17.6,10.47-28.15,11.18-24.37,1.64-42.89-13.51-50.04-32.28-7-18.36-3.18-35.32,9.26-50.34,3.34-4.03,7.31-7.47,12-9.96Z" style="fill: #3b5b9a;"/>
  <path d="m259.27,242.47c-10.49,1.24-18.78-8.78-19.02-17.86-.27-10.31,8.59-19.62,18.56-19.52,10.71.1,18.97,8.75,19.05,18.84.07,9.27-8.48,19.68-18.58,18.54Z" style="fill: #3b5a9a;"/>
</svg>