<?xml version="1.0" encoding="UTF-8"?>
<svg id="Layer_1" data-name="Layer 1" xmlns="http://www.w3.org/2000/svg" viewBox="0 0 383.14 272.53">
  <path d="m0,109.21c3.6-8.67,10.12-11.66,19.36-11.55,27.47.35,54.96.12,82.44.13,1.49,0,2.97.12,4.46.18.18,1.88-.94,3.33-1.7,4.87-8.73,17.58-11.43,36.24-8.58,55.46,3.15,21.24,12.4,39.74,27.75,54.95,3.24,3.21,6.8,6.11,10.22,9.15-4.12.02-8.23.04-12.35.05-35.04.02-70.08.04-105.13.06-.3,0-.6-.01-.9-.02-7.96.07-12.18-5.04-15.56-11.3v-101.96Zm62.15,31.83c-.04-10.41-8.28-18.36-19.02-18.35-9.82.01-18.44,8.62-18.43,18.41,0,9.85,8.87,19.08,18.33,19.09,10.9,0,19.17-8.28,19.12-19.15Z" style="fill: #707dd3;"/>
  <path d="m128.04,97.8c2.52-1.49,3.94-4.02,5.87-6.08,11.48-12.28,25.35-20.57,41.93-23.66,20.84-3.88,40.4-.2,58.34,11.26,6.91,4.42,12.79,10.08,17.9,16.49.87,1.09,1.88,1.49,2.99,1.99-.23,1.96,1.15,3.24,2.06,4.67,10.72,16.77,14.47,35.12,11.28,54.61-3.03,18.52-11.76,34.09-26.12,46.44-10.43,8.97-22.28,14.73-35.7,17.5-2.26.47-4.72.02-6.81,1.36-5.48,0-10.97,0-16.45,0-.63-.8-1.54-.62-2.4-.72-6.44-.73-12.64-2.41-18.61-4.91-11.75-4.92-21.87-12.03-30.15-21.88-11.02-13.12-17.23-28.18-18.35-45.16-1.16-17.66,3.18-34.06,13.17-48.8.67-.99,1.03-1.96,1.04-3.11Zm93.47,3.09c-13.97-9.53-29.31-12.3-45.27-7.1-22.49,7.33-35.21,23.38-37.55,47.03-1.21,12.24,2.11,23.59,9.39,33.64.12.35.16.76.36,1.05,11.3,16.57,34.05,25.52,53.8,21.14,29.31-6.49,47.96-34.59,40.86-64.72-3.07-13.04-10.03-23.74-21.59-31.04Z" style="fill: #3d4fc3;"/>
  <path d="m276.85,97.97c18.15-.06,36.3-.11,54.45-.19,8.06-.03,16.12-.11,24.18-.17.13,1.08,1.09,1.28,1.82,1.68,6.04,3.29,8.68,8.29,8.65,15.25-.14,30.56-.07,61.12-.03,91.68,0,2.29-.33,4.44-1.2,6.54-2.04,4.96-6.17,7.57-10.78,9.64-34.92,0-69.85,0-104.77,0,.31-.38.55-.85.93-1.13,7.51-5.72,13.94-12.43,19.54-20.08,2.66-3.64,4.45-7.89,7.8-11.02.06,2.61.07,5.23.21,7.84.13,2.5,3.36,5.95,5.57,5.57,2.74-.47,5.34-1.6,5.7-4.96.25-2.35.49-4.72.43-7.08-.16-6.53-3.3-8.67-9.52-6.63.08-.62.03-1.28.26-1.84,3.8-9.38,6.31-19.01,7.41-29.14,1.56-14.4-.52-28.16-4.95-41.81-1.58-4.88-4.85-9.01-5.7-14.13Zm62.14,95.68c0-1.24,0-2.49,0-3.73-.01-3.01-1.52-5.05-4.38-5.69-2.98-.67-5.44.36-6.69,3.35-1.54,3.68-1.5,7.53-.28,11.21,1.22,3.68,3.69,4.93,7.26,4.09,3.22-.76,4.18-3.2,4.09-6.23-.03-1,0-1.99-.01-2.99Zm24.69-.07c0-1.37.04-2.74,0-4.11-.11-3.37-2.05-5.32-5.34-5.39-3.09-.07-5.64,1.98-5.84,5.04-.2,2.97-.18,5.98,0,8.96.17,2.75,3.29,5.63,5.67,5.55,2.92-.1,5.43-2.78,5.52-5.94.04-1.37,0-2.74,0-4.11Zm-50.16.03c0-1.24-.08-2.49.02-3.72.26-3.23-.98-5.31-4.32-5.77-3.39-.46-5.86,1.18-6.49,4.62-.6,3.29-.68,6.69.08,9.98.79,3.39,3.01,4.72,6.73,4.18,3.17-.46,4.32-2.48,4-5.56-.13-1.23-.02-2.48-.03-3.72Z" style="fill: #707dd3;"/>
  <path d="m249.17,222.39c34.92,0,69.85,0,104.77,0,.24.03.49.06.73.07,4.15,1.52,8.45.31,12.67.71.04,3.86.21,7.72.1,11.57-.21,7.59-5.69,12.85-13.55,13.17-1.74.07-3.47.1-5.21.14-.23-.09-.47-.13-.72-.1l-.04-.06c-.98-1.16-2.31-.69-3.49-.7-5.72-.05-11.44-.08-17.15,0-9.69.13-19.38-.39-29.06.28-10.58-.03-21.17-.08-31.75-.08-60.52,0-121.05.03-181.57.05-.61-.09-1.23-.25-1.84-.25-15.4-.02-30.81-.02-46.21-.02-.85,0-1.76-.14-2.42.63-5.26.25-10.56.68-14.74-3.61-2.5-2.56-4.23-5.36-4.07-9.14.17-3.96.12-7.92.16-11.88.23-.22.46-.45.69-.67,35.04-.02,70.08-.04,105.13-.06,4.12,0,8.23-.03,12.35-.04.25.02.51.05.76.07,1.13,1.17,2.58.68,3.89.69,35.31.03,70.63.03,105.94,0,1.31,0,2.76.48,3.89-.69.25-.02.51-.05.76-.07Z" style="fill: #407093;"/>
  <path d="m249.17,222.39c-.25.02-.51.05-.76.07-16.21-.03-32.42-.05-48.63-.08,2.08-1.34,4.54-.89,6.81-1.36,13.43-2.77,25.27-8.53,35.7-17.5,14.36-12.35,23.09-27.93,26.12-46.44,3.19-19.5-.56-37.84-11.28-54.61-.91-1.43-2.29-2.71-2.06-4.67,7.27-.56,14.53-.78,21.78.18.85,5.12,4.12,9.25,5.7,14.13,4.43,13.65,6.51,27.41,4.95,41.81-1.1,10.13-3.61,19.77-7.41,29.14-.23.56-.18,1.22-.26,1.84-1.25,1.55-2.59,3.05-2.39,5.26-3.35,3.13-5.14,7.39-7.8,11.02-5.6,7.65-12.03,14.36-19.54,20.08-.38.29-.62.75-.93,1.13Z" style="fill: #5766cb;"/>
  <path d="m134.69,222.46c-.25-.02-.51-.05-.76-.07-3.41-3.04-6.98-5.93-10.22-9.15-15.34-15.21-24.6-33.7-27.75-54.95-2.85-19.22-.14-37.88,8.58-55.46.76-1.54,1.88-2.98,1.7-4.87,7.25-.96,14.52-.73,21.78-.18-.02,1.15-.37,2.12-1.04,3.11-9.99,14.74-14.34,31.14-13.17,48.8,1.12,16.97,7.33,32.04,18.35,45.16,8.28,9.85,18.4,16.96,30.15,21.88,5.97,2.5,12.17,4.18,18.61,4.91.86.1,1.77-.08,2.4.72-16.21.03-32.42.05-48.63.08Z" style="fill: #5766cb;"/>
  <path d="m354.68,222.47c-.25-.01-.49-.04-.73-.07,4.61-2.07,8.73-4.68,10.78-9.64.87-2.1,1.2-4.25,1.2-6.54-.04-30.56-.11-61.12.03-91.68.03-6.96-2.61-11.96-8.65-15.25-.73-.4-1.7-.6-1.82-1.68,4.6-.28,9.2-.38,13.81.1,7.09.73,13.74,6.47,13.78,15.39.11,31.61.11,63.22,0,94.83-.03,7.71-7.02,14.02-15.48,14.57-4.3-.01-8.6-.03-12.9-.04Z" style="fill: #5766cb;"/>
  <path d="m84.7,247.88c.03,5.36.13,10.72.05,16.07-.08,5.29-3.06,8.45-8.3,8.5-11.44.12-22.89.07-34.33,0-3.73-.03-6.91-3.57-6.99-7.68-.11-5.61-.05-11.21-.07-16.82,16.54-.02,33.09-.04,49.63-.06Z" style="fill: #5766cb;"/>
  <path d="m348.13,248.65c-.04,4.98-.05,9.96-.13,14.94-.09,5.67-3.1,8.83-8.71,8.87-10.69.08-21.39.08-32.08,0-6.05-.04-8.81-2.86-8.87-8.9-.05-5.23.03-10.46.06-15.69,16.51,0,33.02.01,49.53.02,0,0,.04.06.04.06,0,.25.05.49.17.71Z" style="fill: #5766cb;"/>
  <path d="m190.66,11.65c-8.21.15-16.25,2.36-23.63,6.93-3.76,2.33-7.49,1.87-9.21-1.06-1.85-3.14-.88-6.43,3.06-8.74,12.51-7.35,25.73-10.6,40.36-7.77,7.59,1.47,14.68,3.69,21.17,7.82,3.71,2.36,4.73,5.81,2.8,8.84-1.74,2.74-5.45,3.23-8.96,1.01-7.69-4.87-16.15-6.9-25.59-7.03Z" style="fill: #b4e5a0;"/>
  <path d="m190.87,25.17c8.35-.01,15.99,2.1,22.33,7.82,2.79,2.52,3.17,5.49,1.28,7.93-2.18,2.82-5.41,3.41-8.52.84-8.19-6.74-20.87-6.72-28.92.04-3.06,2.57-6.34,1.9-8.48-.97-1.85-2.48-1.34-5.35,1.41-7.93,4.99-4.7,13.06-7.68,20.91-7.74Z" style="fill: #b4e5a0;"/>
  <path d="m84.7,247.88c-16.54.02-33.09.04-49.63.06-.23.02-.45-.03-.65-.15.66-.78,1.57-.63,2.42-.63,15.4,0,30.81,0,46.21.02.61,0,1.23.16,1.84.25.03.19-.04.34-.19.44Z" style="fill: #707dd3;"/>
  <path d="m347.93,247.89c-16.51,0-33.02-.01-49.53-.02-.16-.1-.21-.23-.17-.41,9.68-.66,19.37-.14,29.06-.27,5.72-.08,11.43-.04,17.15,0,1.18,0,2.52-.46,3.49.7Z" style="fill: #707dd3;"/>
  <path d="m354.68,222.47c4.3.01,8.6.03,12.9.04-.03.24-.1.46-.23.67-4.21-.4-8.52.82-12.67-.71Z" style="fill: #4c7a9a;"/>
  <path d="m16.46,222.5c-.23.22-.46.45-.69.67-.11-.22-.18-.45-.21-.69.3,0,.6.02.9.02Z" style="fill: #4c7a9a;"/>
  <path d="m348.13,248.65c-.12-.22-.18-.46-.17-.71.25-.02.49.01.72.1-.18.2-.37.4-.55.6Z" style="fill: #e3f4fe;"/>
  <path d="m62.15,141.04c.04,10.87-8.23,19.15-19.12,19.15-9.46,0-18.32-9.23-18.33-19.09,0-9.79,8.61-18.4,18.43-18.41,10.74-.01,18.98,7.93,19.02,18.35Z" style="fill: #de75a5;"/>
  <path d="m148.08,174.47c-7.28-10.05-10.6-21.4-9.39-33.64,2.34-23.65,15.06-39.7,37.55-47.03,15.96-5.2,31.3-2.43,45.27,7.1-.23,1.61.7,2.85,1.29,4.22,8.81,20.67,6.12,42.99-10.05,59.52-15.05,15.39-33.54,19.3-54.18,13.49-3.58-1.01-6.7-3.27-10.49-3.65Z" style="fill: #90d8f9;"/>
  <path d="m148.08,174.47c3.78.38,6.91,2.64,10.49,3.65,20.64,5.81,39.12,1.9,54.18-13.49,16.17-16.53,18.87-38.84,10.05-59.52-.58-1.37-1.52-2.61-1.29-4.22,11.56,7.3,18.52,18,21.59,31.04,7.1,30.14-11.55,58.23-40.86,64.72-19.75,4.38-42.5-4.57-53.8-21.14-.2-.3-.25-.7-.36-1.05Z" style="fill: #75cdf9;"/>
  <path d="m134.69,222.46c16.21-.03,32.42-.05,48.63-.08,5.48,0,10.97,0,16.45,0,16.21.03,32.42.05,48.63.08-1.13,1.17-2.58.68-3.89.69-35.31.03-70.63.03-105.94,0-1.31,0-2.76.48-3.89-.69Z" style="fill: #4c7a9a;"/>
</svg>