<?xml version="1.0" encoding="UTF-8"?>
<svg id="Layer_1" data-name="Layer 1" width="24" height="24" xmlns="http://www.w3.org/2000/svg" viewBox="0 0 156.23 84.56">
  <path d="m77.68.42c5.08.93,9.98,2.15,14.43,5.11,3.26,2.17,6.51,4.26,9.32,7.01.32.31.88.38,1.33.56,1.79,3.65,4.48,6.72,6.31,10.4,6.05,12.17,6.01,24.27.42,36.54-1.81,3.97-4.6,7.29-6.81,10.98-.49.29-1.09.49-1.46.89-6.7,7.41-15.6,10.38-25,12.06-6.53,1.17-13.12.73-19.22-2.12-4.5-2.1-9.21-3.88-12.93-7.49-1.66-1.61-2.93-3.61-4.88-4.92-1.11-1.65-2.28-3.25-3.32-4.94-7.33-11.91-8.58-24.36-3.73-37.55,1.55-4.21,3.91-7.8,6.46-11.36.57-1.12,1.88-1.71,2.18-3.02,1.89-.64,2.99-2.31,4.49-3.47,5-4.15,10.7-6.83,17.09-8.08.64-.12,1.25-.38,1.88-.58,4.48-.47,8.96-.66,13.45,0Zm9.99,58c.14-.2.27-.41.44-.59,6.27-6.77,7.73-14.82,4.77-23.19-2.82-7.98-8.58-13.24-17.44-14.68-9.35-1.53-16.84,1.23-22.7,8.6-1.56-2.31-3.8-3.91-5.87-5.7-1.09-.95-1.67-.21-2.2.54-2.91,4.07-4.77,8.7-5.3,13.55-.84,7.7.19,15.12,4.49,22.01,6.47,10.36,15.93,15.38,27.73,15.85,7.44.29,14.4-2.02,20.46-6.68,3.11-2.39,3.18-3.42-.12-5.63-1.66-1.11-3.18-2.36-4.25-4.07Z" style="fill: #575757;"/>
  <path d="m136.15,69.98c-2.13.45-4.19,1.31-6.44,1.09-.89-.16-1.74-.15-2.46.51-1.9.02-3.83-.51-5.68.34-1.37-.7-2.85-.5-4.31-.59-3.16-.18-6.36.5-9.49-.4,1.14-1.28,2.39-2.47,3.39-3.85,6.97-9.62,9.34-20.34,7.53-32.03-1.31-8.46-4.98-15.74-10.91-21.9,2.75-.93,5.58-.35,8.37-.39,4.42-.06,8.89.58,13.11,1.51,4.91,1.08,9.98,2.34,14.3,5.51,1.66,1.22,3.86,1.83,5.33,3.45,4.21,4.63,7.38,9.73,7.21,16.3-.03.99.08,1.99.12,2.98-.07,4.86-.87,9.66-3.4,13.8-2.81,4.6-6.67,8.35-11.37,11.14-.28.17-.51.42-.77.63-1.42.84-3.38.44-4.53,1.92Zm2.51-15.91c-3.65-.02-7.3,0-10.94-.09-1.16-.03-1.69.28-1.57,1.51.08.9,0,1.82.03,2.74.03.92.6,1.41,1.46,1.25,4.08-.74,8.12-1.62,11.07-4.92l.33-.42c-.13-.02-.26-.05-.39-.07Zm.99-23.25c.13-.02.26-.05.4-.07-.12-.09-.24-.17-.36-.26-2.27-2.89-5.4-4.25-8.87-5.02-5.12-1.15-4.34-1.83-4.49,3.66-.04,1.46.51,1.82,1.88,1.78,3.82-.1,7.63-.07,11.45-.09Zm4.28,13.8c-5.43,0-10.91,0-16.4,0-2.5,0-1.07,1.92-1.31,2.94-.24,1-.35,2.12,1.47,2.05,3.49-.14,6.99-.04,10.49-.04q4.75,0,5.89-4.57c.02-.07-.05-.16-.13-.38Zm-8.7-4.41c2.49,0,4.98.02,7.46-.01.52,0,1.16.25,1.47-.53.55-1.4-1.2-4.37-2.66-4.37-4.56-.01-9.12.1-13.68-.03-1.91-.05-1.78,1.03-1.64,2.19.13,1.1-.84,2.86,1.58,2.77,2.48-.09,4.97-.02,7.46-.02Z" style="fill: #bbcaff;"/>
  <path d="m.18,54.04c.67-1.94.28-3.95.29-5.91.02-6.56-.06-13.12-.1-19.68.14-.3.34-.62-.14-.82,0,0-.06-.14-.06-.14-.44-2.63.87-4.77,1.96-6.97,1.81-3.49,4.82-4.97,8.6-4.98,6.82-.01,13.65.07,20.47.11-5.81,6.78-8.8,14.79-9.43,23.55-.8,11.2,2.77,21.17,9.77,29.92-1.54.02-3.1-.08-4.62.1-1.27.15-2.72-.76-3.82.55-1.83-.56-3.71-.15-5.56-.29-2.91-.81-5.9-.14-8.84-.51C3.33,65.43-.95,61.28.18,54.04Z" style="fill: #bbcaff;"/>
  <path d="m31.54,69.11c-7-8.75-10.57-18.71-9.77-29.92.63-8.76,3.62-16.77,9.43-23.55,2.46-.03,4.93-.05,7.39-.08-2.55,3.56-4.91,7.15-6.46,11.36-4.86,13.19-3.6,25.65,3.73,37.55,1.04,1.69,2.21,3.3,3.32,4.94-2.5.02-5,.04-7.5.06.03-.16-.02-.28-.14-.37Z" style="fill: #3d3d3d;"/>
  <path d="m107.79,13.14c5.93,6.16,9.61,13.44,10.91,21.9,1.8,11.69-.56,22.42-7.53,32.03-1,1.38-2.25,2.57-3.39,3.85-1.7.03-3.4.05-5.1.08,2.22-3.69,5-7.01,6.81-10.98,5.59-12.27,5.63-24.36-.42-36.54-1.83-3.67-4.52-6.75-6.31-10.4,1.68.02,3.35.03,5.03.05Z" style="fill: #3d3d3d;"/>
  <path d="m.24,27.62c.48.2.27.52.14.82-.05-.27-.09-.55-.14-.82Z" style="fill: #575757;"/>
  <path d="m52.73,28.56c5.86-7.38,13.36-10.13,22.7-8.6,8.86,1.45,14.62,6.7,17.44,14.68,2.96,8.37,1.5,16.42-4.77,23.19-.16.18-.29.39-.44.59-6.07,5.5-13.01,8.48-21.27,6.52-10.84-2.57-18.05-11.78-18.23-22.69-.08-5.13,1.9-9.51,4.56-13.69Zm7.92,7.42c-4.48,6.66-.29,14.52,5.15,17.3,4.98,2.55,9.58,1.19,13.76-2.13,2.99-2.48,4.32-5.9,4.03-9.52-.65-8.29-7.42-13.47-16.21-11.23-3.15.8-5.24,2.82-6.74,5.57Z" style="fill: #f6f6f6;"/>
  <path d="m52.73,28.56c-2.66,4.18-4.64,8.56-4.56,13.69.18,10.91,7.39,20.12,18.23,22.69,8.26,1.96,15.2-1.02,21.27-6.52,1.07,1.72,2.59,2.96,4.25,4.07,3.3,2.21,3.22,3.25.12,5.63-6.06,4.66-13.02,6.97-20.46,6.68-11.8-.47-21.26-5.48-27.73-15.85-4.3-6.89-5.33-14.31-4.49-22.01.53-4.85,2.39-9.49,5.3-13.55.54-.75,1.11-1.48,2.2-.54,2.07,1.79,4.31,3.39,5.87,5.7Z" style="fill: #3d3d3d;"/>
  <path d="m120.74,78.1c-.98-.14-1.66-.73-2.17-1.51-.96-1.49-.4-2.87,1.33-3.1,1-.14,1.83-.29,1.68-1.58,1.85-.85,3.78-.31,5.68-.34-.5,2.57,2.04,1.49,2.9,2.43.28.9-.45,1.6-.5,2.44-.51.53-1.03,1.05-1.54,1.58-2.46.03-4.92.05-7.38.08Z" style="fill: #3d3d3d;"/>
  <path d="m143.93,44.63c.08.23.15.32.13.38q-1.14,4.57-5.89,4.57c-3.5,0-7-.1-10.49.04-1.82.07-1.7-1.05-1.47-2.05.24-1.02-1.18-2.93,1.31-2.94,5.48-.01,10.97,0,16.4,0Z" style="fill: #3d3d3d;"/>
  <path d="m135.23,40.21c-2.49,0-4.98-.07-7.46.02-2.42.09-1.45-1.67-1.58-2.77-.14-1.16-.27-2.24,1.64-2.19,4.56.13,9.12.01,13.68.03,1.46,0,3.2,2.97,2.66,4.37-.31.78-.95.52-1.47.53-2.49.03-4.98.01-7.46.02Z" style="fill: #3d3d3d;"/>
  <path d="m139.65,30.83c-3.82.02-7.64,0-11.45.09-1.37.04-1.92-.33-1.88-1.78.15-5.49-.63-4.81,4.49-3.66,3.47.78,6.6,2.13,8.87,5.02-.06.11-.07.21-.03.33Z" style="fill: #3d3d3d;"/>
  <path d="m138.72,54.57c-2.95,3.3-6.99,4.17-11.07,4.92-.87.16-1.43-.33-1.46-1.25-.03-.91.05-1.83-.03-2.74-.11-1.23.41-1.54,1.57-1.51,3.65.08,7.3.07,10.94.09.02.17.04.33.05.5Z" style="fill: #3d3d3d;"/>
  <path d="m139.65,30.83c-.04-.11-.03-.22.03-.33.12.09.24.17.36.26-.13.02-.26.05-.4.07Z" style="fill: #575757;"/>
  <path d="m138.72,54.57c-.02-.17-.04-.33-.05-.5.13.02.26.05.39.07l-.33.42Z" style="fill: #575757;"/>
  <path d="m23.28,69.89c0,.84-.05,1.69,1.03,1.97.81.21,2.12-.39,2.08,1.25-.04,1.54-.51,2.75-2.28,2.93-2.54-.01-5.09-.03-7.64-.04-1.6-.56-2.28-1.77-2.25-3.39.03-1.46,1.2-1.52,2.25-1.68.85-.13.83-.88,1.07-1.45,1.85.14,3.73-.27,5.56.29,0,0,.04.12.04.12h.14Z" style="fill: #3d3d3d;"/>
  <path d="m23.28,69.89h-.14s-.04-.12-.04-.12c1.1-1.32,2.55-.41,3.82-.56,1.52-.18,3.08-.08,4.62-.1.12.09.17.21.14.37-2.8.23-5.64-.48-8.41.41Z" style="fill: #f6f6f6;"/>
  <path d="m16.47,76c2.55.01,5.09.03,7.64.04-2.55.6-5.1.76-7.64-.04Z" style="fill: #575757;"/>
  <path d="m120.74,78.1c2.46-.03,4.92-.06,7.38-.08-2.45.68-4.91.58-7.38.08Z" style="fill: #575757;"/>
  <path d="m60.65,35.98c1.51-2.75,3.59-4.77,6.74-5.57,8.78-2.24,15.56,2.93,16.21,11.23.28,3.62-1.05,7.04-4.04,9.52-4.77-3.54-9.24-7.42-13.52-11.53-1.56-1.5-2.98-3.35-5.39-3.64Z" style="fill: #575757;"/>
  <path d="m60.65,35.98c2.41.29,3.83,2.15,5.39,3.64,4.28,4.11,8.75,7.99,13.52,11.53-4.19,3.32-8.79,4.67-13.76,2.13-5.44-2.79-9.64-10.64-5.15-17.3Z" style="fill: #3d3d3d;"/>
</svg>