<?xml version="1.0" encoding="UTF-8"?>
<svg id="Layer_1" data-name="Layer 1" width="24" height="24" xmlns="http://www.w3.org/2000/svg" viewBox="0 0 153.83 127.01">
  <path d="m54.04,43.91c.11-3.78,3.57-4.72,5.89-5.73,19-8.31,42.45-3.16,48.61,21.63,2.57,10.34-.07,20.8-8.02,29.02-1.39,1.43-2.82,2.82-4.21,4.25-1.74,1.79-4.21,3.61.28,5.16.63.22.93,1.3,1.43,1.95,3.93,5.19-2.97,8.38-2.41,12.71.69,5.3-1.57,8.1-8.5,9.08-.75.1-1.65-.31-2.1.78-1.71,4.15-5.21,4.22-9.01,4.26-3.84.04-7.3-.07-9.1-4.19-.65-1.49-2.02-.72-3.06-.84-4.26-.48-7.25-3.7-6.84-7.89.21-2.16.15-3.72-1.67-5.4-3.71-3.42-3.66-7.09.43-9.86,3.49-2.35,2.12-4.22.08-5.86-7.51-6.04-11.69-14.06-12.67-23.33-.81-7.68,1.01-15.18,5.76-21.7.96-1.31,2-.72,3.03-.94-.24.76-.29,1.66-.74,2.26-6.72,8.99-7.37,25.48.56,35.39,3.08,3.85,7.13,6.78,9.67,11.15,1.22,2.1,4.18,1.65,5.87.68,1.56-.9.24-2.85-.27-4.4-.6-1.81-3.26-4.24.93-5.29,4.55,2.3,9.26,3.09,14.1,1.06,1.55-.65,3.53-1.97,4.09.14.43,1.63-.48,4.52-1.79,5.47-1.94,1.4-2.96.12-1.78-2.15-.79-.06-1.86-.47-2.33-.11-1.68,1.29-3.58.37-5.3.84-1.55-.23-3.31-.99-4.6-.51-1.09.41.09,1.95.42,3.02.79,2.56,2.6,2.67,4.72,2.33.16-.03.32-.09.48-.14,4.15.07,8.3.12,12.45.21,1.2.02,2.76.03,3.03-1.15,1.06-4.63,5.33-6.52,7.92-9.82,6.61-8.41,9.29-17.88,5.76-28.12-5.24-15.22-17.79-22.61-33.15-20.57-5.69.16-10.5,2.56-14.83,6.01-1.07.86-1.81,1.83-3.14.6Zm20.95,63.84c5.46.05,10.93-.06,16.38.22,3.02.15,5.24-1.15,5.31-3.77.07-2.84-2.33-4.45-5.33-4.41-5.79.08-11.57.22-17.36.33-3.98-.11-7.96-.29-11.94-.31-2.78-.02-5.99-.19-6.04,3.85-.05,3.82,2.65,4.45,5.8,4.31,1.28-.06,3.1-.45,3.42,1.17.36,1.81-1.37,1.84-2.7,1.88-2.72.08-3.34,2.54-3.24,4.14.13,2,1.42,3.91,4.29,3.74,4.8-.28,9.63-.25,14.44-.35,3.42.96,6.92.29,10.37.45,2.78.12,4.45-1.35,4.44-4.08,0-2.74-1.78-4.19-4.47-4.19-3.47,0-6.93.21-10.4.33-3.09-1.22-7.03,1.04-10.07-2.12,2.52-1.55,4.95-.4,7.09-1.18Zm7.02,14.07c-4.1.09-7.49-.76-10.77.62-.06.03.12,1.34.51,1.63,3.05,2.26,5.85-.97,8.86-.55.24.03.58-.67,1.4-1.7Z" style="fill: #333;"/>
  <path d="m67.98,86.8c-4.19,1.05-1.53,3.48-.93,5.29.51,1.55,1.83,3.5.27,4.4-1.7.97-4.65,1.43-5.87-.68-2.54-4.37-6.59-7.3-9.67-11.15-7.93-9.91-7.28-26.39-.56-35.39.45-.6.5-1.5.74-2.26-.25-1.67,1.62-1.91,2.08-3.1,1.33,1.23,2.07.26,3.14-.6,4.32-3.45,9.14-5.85,14.83-6.01-.15,1.68-1.48,2.54-2.5,3.59-9.02,9.2-11.45,20.12-8.53,32.46,1.2,5.08,4.36,9.14,7.01,13.46Z" style="fill: #c6c6c6;"/>
  <path d="m77.06.08c1.23-.23,1.62.45,2.12,1.47,2.05,4.2,5.5,6.6,10.12,7.26,2.5.35,3.92,1.24,1.67,3.61-3.48,3.69-4.72,7.95-4.12,12.96.37,3.05-.82,4.55-4,2.66-3.92-2.33-7.75-2.23-11.84-.13-1.99,1.02-4.57,1.29-4.09-2.51.61-4.85-.76-8.88-4.34-12.36-1.49-1.45-2.52-3.35,1.32-4.16,3.89-.82,7.98-2.06,9.57-6.74.42-1.23,1.77-2.47,3.57-2.07Zm-11.73,11.5c2.04,2.43,3.66,4.22,4.67,6.5.82,1.86-2.64,6.12,2.6,5.46,2.49-.31,4.84-.78,7.28-.01.15.05.27.22.42.26,2.29.63,3.79-.29,3.56-2.62-.36-3.67,1.1-6.63,3.24-9.48-3.39-1.4-6.95-1.62-8.66-5.4-1.04-2.31-3.34-1.6-4.25.32-1.67,3.5-4.7,4.27-8.85,4.99Z" style="fill: #030303;"/>
  <path d="m28.53,83.9c1.29-3.49.1-6.59-2.71-8.37-3.62-2.29-7.75-2.31-11.35.53-7.39,5.82-5.64,15.51,3.56,20.97,3.58,2.12,7.13,1.33,10.73.63,1.59-.31,3.09-1.14,4.78-.4-12.15,7.25-23.31,1.9-26.38-11.43-1.45-6.29,4.95-13.36,12.6-14.82,4.3-.82,10.99,4.06,11.88,9.37.68,4.08-1.08,7.61-4.97,9.65-3.66,1.93-7.04,1.29-9.71-1.75-1.77-2.01-2.69-4.22-1.07-7.13,1.32-2.38,2.86-3.28,5.45-3.24,3.02.05,4.9,1.35,5.64,4.26.19.76-.04,1.73,1.56,1.73Zm-2.52,3.42c-1.99-.56-5.48-.42-2.34-3.82.64-.7.45-1.84-.38-2.68-.81-.82-1.57-1.06-2.52-.22-.86.76-2.62-.04-2.85,2.03-.27,2.52.99,4.04,2.68,5.41,1.82,1.48,3.57,1.36,5.41-.72Z" style="fill: #333;"/>
  <path d="m126.06,84.63c-.72-3.37,1.11-5.53,3.87-6.57,2.09-.79,4.22.06,5.63,2.11,1.68,2.46,1.99,5.2-.05,7.23-1.94,1.93-3.99,4.45-7.63,3.04-5.78-2.24-7.98-5.69-6.99-11.69.59-3.62,5.33-6.43,10.17-6.88,7.27-.67,10.73,3.57,12.53,7.51,2.65,5.83,1.15,10.93-3.14,15.59-5.37,5.84-11.65,7.41-19.06,4.96-.6-.2-1.16-.54-1.73-.84-.59-.31-1.18-.64-1.51-1.47,3.84-.74,7.31.71,10.93.38,4.94-.45,8.52-2.36,11.08-6.73,2.74-4.67,2.25-9.07-.33-13.4-2.62-4.41-9.59-5.17-14.37-1.75-3.24,2.31-3.37,5.84-.37,9.78.21.86.85,1.25,1.63,1.48,4.36,1.43,6.77.22,7.23-3.38.33-2.59-1.16-3.85-3.13-3.96-1.91-.11-2.76,1.48-2.16,3.49.46,1.52.4,2.68-1.72,2.27-.29-.4-.58-.79-.87-1.19Z" style="fill: #333;"/>
  <path d="m127.94,53.03c1.61.12,3.38-.15,4.78.46,1.46.63,2.55,2.16,2.09,4.02-.33,1.38-.76,2.96-2.83,1.92-1.53-.76-3.54-.32-4.76-1.86-.53-1.63.22-3.06.72-4.53Zm2.89,3.12c-.12-.99-.76-1.24-1.38-1.21-.22.01-.53.75-.55,1.16-.03.78.56,1.17,1.24.97.32-.09.51-.68.68-.93Z" style="fill: #333;"/>
  <path d="m19.97,60.07c-2.29-1.07-2.51-2.93-1.5-4.88.77-1.49,2.07-2.41,4.03-2.18,3.33.38,2.15,3.11,2.74,4.92-1.13.7-2.28,1.47-3.67.75-1.83-.96-1.14.85-1.59,1.4Zm2.98-2.97c.24-.23.75-.48.84-.84.18-.68-.17-1.19-.91-1.43-.8-.25-.8.44-.87.79-.11.59-.14,1.29.94,1.47Z" style="fill: #333;"/>
  <path d="m126.84,49.97c3.02-2.63,6.04-2.77,9.06.01-.19.17-.37.34-.55.53-2.62-1.01-5.22-1.02-7.81.11-.21-.24-.45-.46-.7-.65Z" style="fill: #333;"/>
  <path d="m124.81,59c.8-1.23,1.37.06,2.05.18,1.66,1.86,3.38,1.68,5.12.12,1.22,2.45-.6,2.64-2.15,2.61-2.13-.04-3.96-.89-5.02-2.91Z" style="fill: #333;"/>
  <path d="m19.91,59.98c2.38.75,4.77.13,7.15.02-2.39,1.96-4.78,3.58-7.15-.02Z" style="fill: #333;"/>
  <path d="m124.87,51.92c.45,2.38.63,4.76,0,7.14-2.06-2.38-2.14-4.76,0-7.14Z" style="fill: #333;"/>
  <path d="m4.51,100.99c1.35,0,1.41.68,1.51,1.32.12.82.27,1.68-.95,1.75-.77.04-1.27-.31-1.12-1.15.13-.7.39-1.38.56-1.93Z" style="fill: #030303;"/>
  <path d="m149.83,102.11c.23,1.19.27,2.01-.97,1.95-.77-.04-1.15-.47-1.03-1.27.11-.76-.12-1.78,1.11-1.78.92,0,.76.85.89,1.1Z" style="fill: #030303;"/>
  <path d="m9.96,106.12c-.36.94-1.21.79-1.95.85-1.06.08-1.57-.78-1.31-1.45.16-.4,1.37-.48,2.12-.53.66-.05,1.2.29,1.15,1.13Z" style="fill: #030303;"/>
  <path d="m147.35,105.59c-.62,1.68-1.8,1.59-3.04,1.03-.24-.11-.44-1.05-.32-1.13,1.09-.79,2.22-.85,3.36.11Z" style="fill: #030303;"/>
  <path d="m153.82,106.12c-.47.98-1.35.83-2.14.83-.83,0-1.27-.71-1.09-1.3.29-.98,1.31-.7,2.08-.68.73.02,1.22.36,1.15,1.16Z" style="fill: #030303;"/>
  <path d="m3.66,105.6c-1.22,1.65-2.32,1.66-3.49.83-.16-.12-.23-.72-.1-.85,1.06-1.03,2.2-.83,3.59.02Z" style="fill: #030303;"/>
  <path d="m27.65,57.38v-4.17c1.51,1.63,1.98,3.22.34,4.79-.12-.2-.23-.41-.34-.62Z" style="fill: #333;"/>
  <path d="m126.78,51.79c-.65.14-1.2,1.27-1.97.2.36-1,.99-1.71,2.03-2.02.25.2.48.41.7.65-.25.39-.51.78-.76,1.17Z" style="fill: #333;"/>
  <path d="m27.03,60.05c-.95-.64-.04-1.41-.16-2.12.19-.29.45-.47.78-.55.1.2.22.41.34.61-.03.82.14,1.74-.96,2.05Z" style="fill: #333;"/>
  <path d="m135.9,49.98c.45.08.95.19.6.77-.06.11-.75-.16-1.14-.25.17-.18.35-.36.55-.53Z" style="fill: #333;"/>
  <path d="m67.98,86.8c-2.65-4.32-5.81-8.37-7.01-13.46-2.92-12.34-.49-23.26,8.53-32.46,1.03-1.05,2.36-1.91,2.5-3.59,15.36-2.05,27.91,5.35,33.15,20.57,3.53,10.25.85,19.71-5.76,28.12-2.59,3.3-6.86,5.19-7.92,9.82-.27,1.19-1.83,1.18-3.03,1.15-4.15-.09-8.3-.14-12.45-.21-.34-1.57-.68-3.13-1.02-4.7,1.72-.47,3.63.44,5.3-.84.47-.36,1.54.05,2.33.11-1.18,2.27-.16,3.56,1.78,2.15,1.31-.95,2.21-3.84,1.79-5.47-.55-2.11-2.53-.79-4.09-.14-4.83,2.02-9.54,1.24-14.1-1.06Zm11.43-8.49c1.32-3.69-.4-4.8-2.62-5.23-2.63-.5-4.16.89-4.91,3.49,2.54,1.2,5.61-2.61,7.54,1.74Zm11.23-10.25c-.13-1.26-.76-1.86-2.21-1.78-1.89.1-2.46,1.03-2.53,2.83-.07,1.68.69,1.7,2.02,1.86,2.38.28,1.87-1.77,2.72-2.92Zm-23.28.78c.95-1.75-.28-1.9-1.19-1.92-1.29-.04-3.11-.74-3.11,1.7,0,1.08-.46,2.23,1.46,2.39,1.99.17,2.52-.91,2.85-2.17Z" style="fill: #eee;"/>
  <path d="m78.02,118.53c-4.81.1-9.64.07-14.44.35-2.87.17-4.15-1.74-4.29-3.74-.11-1.6.52-4.05,3.24-4.14,1.34-.04,3.06-.07,2.7-1.88-.32-1.62-2.14-1.23-3.42-1.17-3.15.15-5.85-.49-5.8-4.31.05-4.03,3.25-3.86,6.04-3.85,3.98.02,7.96.2,11.94.31-.26,2.62.03,5.17,1,7.63-2.14.77-4.56-.37-7.09,1.18,3.04,3.16,6.98.89,10.07,2.12.02,2.5.03,4.99.05,7.49Z" style="fill: #c6c6c6;"/>
  <path d="m74.98,107.75c-.96-2.46-1.26-5.01-1-7.63,5.79-.11,11.57-.26,17.36-.33,3-.04,5.4,1.57,5.33,4.41-.06,2.62-2.29,3.92-5.31,3.77-5.45-.28-10.92-.17-16.38-.22Z" style="fill: #eee;"/>
  <path d="m78.02,118.53c-.02-2.5-.03-4.99-.05-7.49,3.47-.12,6.93-.33,10.4-.33,2.68,0,4.46,1.45,4.47,4.19,0,2.73-1.67,4.2-4.44,4.08-3.46-.15-6.95.51-10.37-.45Z" style="fill: #eee;"/>
  <path d="m74.97,92.06c.34,1.57.68,3.13,1.02,4.7-.16.05-.32.11-.48.14-2.12.34-3.93.24-4.72-2.33-.33-1.07-1.52-2.61-.42-3.02,1.28-.49,3.04.28,4.6.51Z" style="fill: #c6c6c6;"/>
  <path d="m82,121.82c-.83,1.03-1.17,1.73-1.4,1.7-3.01-.42-5.81,2.81-8.86.55-.39-.29-.57-1.6-.51-1.63,3.28-1.38,6.67-.53,10.77-.62Z" style="fill: #a6a6a6;"/>
  <path d="m65.33,11.58c4.15-.72,7.19-1.48,8.85-4.99.91-1.92,3.21-2.63,4.25-.32,1.71,3.79,5.27,4,8.66,5.4-2.13,2.86-3.59,5.82-3.24,9.48.23,2.33-1.27,3.24-3.56,2.62-.15-.04-.27-.21-.42-.26-2.43-.76-4.79-.3-7.28.01-5.24.66-1.78-3.59-2.6-5.46-1-2.28-2.63-4.07-4.67-6.5Z" style="fill: #a6a6a6;"/>
  <path d="m79.41,78.31c-1.93-4.35-5-.54-7.54-1.74.75-2.6,2.29-4,4.91-3.49,2.23.43,3.94,1.54,2.62,5.23Z" style="fill: #030303;"/>
  <path d="m90.64,68.06c-.85,1.15-.34,3.2-2.72,2.92-1.34-.16-2.09-.18-2.02-1.86.07-1.8.65-2.73,2.53-2.83,1.46-.08,2.08.52,2.21,1.78Z" style="fill: #030303;"/>
  <path d="m67.36,68.84c-.32,1.26-.86,2.34-2.85,2.17-1.92-.17-1.46-1.31-1.46-2.39,0-2.43,1.82-1.74,3.11-1.7.92.03,2.14.18,1.19,1.92Z" style="fill: #030303;"/>
</svg>