<?xml version="1.0" encoding="UTF-8"?>
<svg id="Layer_1" data-name="Layer 1" width="24" height="24" xmlns="http://www.w3.org/2000/svg" viewBox="0 0 153 126.91">
  <path d="m53.79,44.05c-.64-1.92.9-2.83,2.01-3.56,14.58-9.52,30.91-9.01,43.43,3.31,12.42,12.22,12.62,31.31,1.11,44.42-1.09,1.24-2.36,2.32-3.5,3.51-2.2,2.29-5.08,4.26-.07,7.05,2.91,1.62,2.37,7.78-.68,10.37-1.29,1.1-1.82,1.55-1.27,3.41,1.35,4.58-1.7,8.6-6.64,8.98-2.03.16-3.33.5-4.73,2.37-3.1,4.16-12.85,3.92-16.1-.21-1.08-1.37-1.92-2.12-3.8-2.19-4.52-.19-7.71-3.72-6.77-8.14.53-2.5-.47-3.48-1.8-4.86-3.55-3.69-3.7-7.12.39-9.87,3.42-2.3,2.32-4.16.22-5.86-7.57-6.14-11.91-14.16-12.72-23.62-.63-7.28.88-14.43,5.5-20.66,1.04-1.4,1.92-1.38,3.14-1.5.41,1.33-.61,2.05-1.18,3.04-5.72,9.81-6.45,19.88-1.56,30.27,2.93,6.21,8.72,10.07,12.59,15.51,1.26,1.78,3.94,1.36,5.47.49,1.61-.92.38-2.79-.12-4.35-.57-1.78-3.28-4.17.78-5.37,4.5,2.69,9.21,2.8,14.06,1.12,1.27-.44,2.89-2.15,3.72-.13.82,2-.49,4.13-1.61,5.88-.33.51-2.4.57-2.02-.85.65-2.39-.83-2.24-1.81-1.6-2.04,1.31-4.23.29-6.25.89-1.22-.56-2.49-2.11-3.78-.54-.98,1.19.36,2.41.8,3.54.72,1.83,2.2,2.19,3.98,1.63l.46.08.44-.16c4.12.09,8.23.15,12.35.28,1.4.04,3.09-.12,3.33-1.48.71-4.06,4.18-5.78,6.62-8.29,7.98-8.23,9.16-18.06,6.62-28.53-3.34-13.77-16.57-23.14-31.91-21.15-5.94-.02-10.97,2.42-15.54,5.93-1.02.78-1.72,2.03-3.18.83Zm27.67,78.49c.83-.21.95-.55.21-1.07-2.81-.03-5.62-.13-8.43-.07-.98.02-2.69-.49-2.47,1.4.15,1.28,1.43,1.9,2.67,1.65,2.69-.53,5.35-1.26,8.01-1.91Zm-3.88-4.35c3.4.95,6.88.29,10.32.44,2.76.12,4.43-1.34,4.42-4.05-.01-2.7-1.75-4.18-4.44-4.17-3.45.01-6.9.2-10.34.32-3.07-1.18-6.91.97-10.49-2.48,3.13-.33,5.32-.56,7.52-.79,5.45.05,10.9.09,16.34.16,2.66.04,5.39-.44,5.32-3.62-.06-2.91-2.37-4.48-5.34-4.45-5.77.05-11.54.21-17.31.32-4.6-.1-9.19-.33-13.78-.25-2.17.04-4.21.72-4.17,3.64.04,2.82,1.49,4.17,4.18,4.38.82.06,1.65.02,2.47,0,1.19-.03,2.63.05,2.68,1.43.05,1.36-1.31,1.58-2.55,1.65-2.32.13-3.86,1.58-3.59,3.75.28,2.27,1.46,4.24,4.5,4.07,4.75-.25,9.52-.24,14.28-.35Z" style="fill: #333;"/>
  <path d="m67.51,86.6c-4.07,1.2-1.36,3.59-.78,5.37.5,1.56,1.73,3.43.12,4.35-1.53.87-4.21,1.29-5.47-.49-3.87-5.45-9.66-9.3-12.59-15.51-4.89-10.39-4.16-20.47,1.56-30.27.57-.98,1.59-1.7,1.18-3.04-.17-1.7,1.78-1.76,2.27-2.95,1.46,1.2,2.16-.04,3.18-.83,4.58-3.51,9.6-5.95,15.54-5.93-10.09,8.96-14.26,20.18-12.86,33.54-1.86,1.13-3.7,2.52-2.84,4.93.91,2.51,2.74,4.31,5.8,4.02,2.06,1.96,3.96,4.05,4.9,6.81Z" style="fill: #f7ad52;"/>
  <path d="m82.28,28.06c-3.72-2.64-8.48-1.44-13.3.04-1.45.44-2.67-.05-2.42-1.97.65-5.18-.71-9.56-4.61-13.25-1.22-1.15-1.94-3.01,1.16-3.67,4.33-.92,7.99-2.88,10.35-7.14,1.31-2.37,3.85-3.21,5.55.24,2.14,4.32,6.07,6.13,10.43,6.88,2.91.5,2.52,1.87,1.21,3.24-3.65,3.81-4.98,8.23-4.22,13.37.39,2.65-1.4,2.46-4.16,2.27Zm-16.98-15.94c1.26,1.54,3.02,2.69,2.99,3.8-.22,8.43,5.64,7.4,11.1,7.91,3,.28,4.17-.35,3.99-3.09-.2-3,1.92-5.29,2.33-7.74.59-3.55-5.02-1.45-6.16-4.45-.28-.74-.86-1.4-1.39-2.02-1.33-1.58-3.2-1.92-4.05-.05-1.69,3.71-5.34,3.93-8.82,5.64Z" style="fill: #343534;"/>
  <path d="m14.65,76.02c2.93,1.44,6.21.15,9.51-1.81,1.79-1.07,3.71-.06,3.5,1.86-.44,3.91,1.82,6.02,4.19,8.37,1.93,1.91,2.34,3.67-.98,4.8-2.97,1.01-5.29,2.76-6.31,6.08-.74,2.41-2.46,3.7-4.57,1.04-2.09-2.64-4.53-3.93-8.05-3.71-2.86.17-3.88-1.41-2.31-4.2,1.76-3.14,3.14-6.24,1.39-10.07-1-2.19.81-2.79,3.64-2.35Zm14.08,10.36c-.89-.97-1.96-1.6-2.15-2.42-1.22-5.25-4.22-5.5-8.96-4.49-2.08.44-2.77.62-2.72,2.41.05,1.84-.12,3.58-1.15,5.13-1.08,1.63-.26,2.55,1.25,2.66,2.23.16,4.08.91,5.7,2.4.86.79,1.78,1.01,2.14-.45.71-2.92,3.6-3.4,5.89-5.24Z" style="fill: #343434;"/>
  <path d="m141.09,79.89c-1.58,2.71-.02,5.39,1.55,7.95,2.13,3.47.36,4.9-2.76,4.81-3.28-.09-5.71.88-7.56,3.49-1.77,2.49-3.68,1.51-4.49-.45-1.34-3.25-3.54-5.12-6.61-6.55-1.15-.54-3.31-2.01-1-3.75,2.94-2.22,4.25-5.14,4.61-8.67.33-3.17,1.98-3.92,4.55-2.15,2.49,1.7,4.83,2.21,7.95,1.42,3.56-.89,3.99-.14,3.77,3.9Zm-1.87,9.48c-.86-3.06-3.38-5.59-1.47-8.92.75-1.3-.79-1.95-1.53-1.49-2.51,1.58-4.65.72-6.84-.51-1.34-.76-1.68.39-2.06,1.15-2.17,4.22-4.42,8.48,1.76,11.45.41.2.67.71,1.01,1.07.68.7,1.57.84,2.09.03,1.63-2.55,4.41-2.28,7.05-2.77Z" style="fill: #343434;"/>
  <path d="m137.93,54.73c-3.9,1.26.42,8.44-4.6,7.79-2.84-.37-5.85,2.18-8.23-.3-2.04-2.13.42-6.06-2.81-7.91,2.58-2.07,5.12-4.22,7.79-6.16.5-.36,7.89,5.76,7.85,6.58Zm-5.22.92c-.18-1.27-1.28-2.42-2.37-2.41-1.51.01-3.23.64-3.1,2.86.09,1.46.7,2.56,2.22,2.75,2.19.27,2.53-1.59,3.25-3.21Z" style="fill: #343434;"/>
  <path d="m22.3,62.95c-4.46,0-6.95-2.77-7.4-8.27-.06-.69,6.3-6.54,7.19-6.62.75-.06,7.63,5.51,7.69,6.23.29,3.69-4,8.65-7.48,8.66Zm-.07-9.9c-1.54.29-2.94,1.25-2.76,2.75.17,1.48.88,3.13,3.11,3.18,2.32.06,2.22-1.4,2.21-2.91-.02-1.66-.61-2.87-2.55-3.02Z" style="fill: #343434;"/>
  <path d="m27.92,93.16c2.21-1.4,3.47.58,4.67,1.58,8.48,7.1,13.9,15.99,15.08,27.16.09.85.54,2.23-.78,2.46-1.34.23-2.03-.84-2.19-2.11-1.32-10.53-6.72-18.71-14.51-25.6-.98-.87-2.64-1.6-2.28-3.48Z" style="fill: #343434;"/>
  <path d="m124.16,93.44c.14,1.67-.31,2.39-1.03,2.83-6.74,4.06-9.9,10.82-13.45,17.36-1.46,2.68-1,5.71-2.31,8.34-.43.86.56,2.77-1.39,2.41-1.41-.26-1.99-1.73-1.63-3.18,1.04-4.18,1.92-8.42,3.93-12.3,3.06-5.89,7.63-10.53,12.32-15.08.78-.75,1.54-1.15,2.62-1.02.89.11.95.72.94.64Z" style="fill: #333;"/>
  <path d="m11.04,110.16c6.15-1.02,16.99,6.35,17.71,12,.13.98-.42,1.71-1.13,1.97-1.16.42-1.65-.82-2.12-1.48-3.11-4.45-6.78-8.16-12.11-9.87-1.31-.42-2.44-.96-2.36-2.62Z" style="fill: #343434;"/>
  <path d="m142.84,110.96c-.26,1.32-1.44,1.53-2.46,1.92-5.31,2-9.56,5.26-12.1,10.44-.42.85-.69,1.56-1.65.99-.79-.47-1.53-1.04-1.27-2.34.77-3.81,10.54-12.17,14.54-12.36,1.26-.06,2.26.23,2.94,1.35Z" style="fill: #343534;"/>
  <path d="m4.79,100.77c.81-.02,1.06.49,1.13,1.18.07.77.3,1.66-.85,1.78-.66.07-1.28-.14-1.19-1.03.08-.74-.09-1.61.91-1.94Z" style="fill: #343434;"/>
  <path d="m147.03,102.51c.15-.71-.1-1.72,1.1-1.71.85,0,.85.74.95,1.35.14.85.13,1.63-1.04,1.6-.77-.02-1.07-.5-1.01-1.25Z" style="fill: #343434;"/>
  <path d="m3.23,105.31c-.05.74-.43,1.18-1.17,1.26-.78.08-1.71.27-2.01-.73-.23-.77.35-1.15,1.08-1.19.77-.04,1.6-.18,2.11.66Z" style="fill: #333;"/>
  <path d="m9.87,105.82c-.24,1.01-.96,1.15-1.79,1.05-.9-.11-1.54-.68-1.37-1.55.06-.32,1-.59,1.57-.66.81-.11,1.58.08,1.59,1.16Z" style="fill: #333;"/>
  <path d="m151.52,104.63c.95.02,1.7.35,1.42,1.34-.12.41-.88.85-1.38.89-.79.07-1.64-.25-1.67-1.25-.03-1.2,1.02-.84,1.63-.99Z" style="fill: #333;"/>
  <path d="m67.51,86.6c-.94-2.77-2.83-4.85-4.9-6.81,1.91-1.78,4.94-2.86,3.65-6.52-1.26-3.58-4.26-2.04-6.61-2.43-1.4-13.36,2.78-24.58,12.86-33.54,15.34-2,28.57,7.37,31.91,21.15,2.54,10.47,1.36,20.3-6.62,28.53-2.44,2.51-5.91,4.23-6.62,8.29-.24,1.36-1.92,1.52-3.33,1.48-4.12-.13-8.23-.19-12.35-.28,0-.2,0-.41.01-.61.16-1.7-1.25-2.64-1.92-3.94,2.02-.61,4.21.42,6.25-.89.99-.64,2.46-.79,1.81,1.6-.38,1.41,1.69,1.36,2.02.85,1.12-1.75,2.43-3.88,1.61-5.88-.83-2.03-2.46-.31-3.72.13-4.85,1.68-9.56,1.57-14.06-1.12Zm22.51-6.69c2.21-1.13,5.31-1.57,5.29-4.9-.03-4.7-4.46-2.99-6.82-3.77-2.4-.79-3.76,2.21-3.77,4.03-.02,2.85,2.83,3.61,5.3,4.63Zm-18.29-6.83c-.1,2.41,1.7,3.31,3.02,4.27,1.43,1.04,2.62-.53,3.79-1.19.94-.53,1.32-1.7.81-2.58-.93-1.6-1.93.28-2.91.18-1.54-.16-3.07-.44-4.71-.68Z" style="fill: #fcc889;"/>
  <path d="m74.56,107.46c-2.2.23-4.39.46-7.52.79,3.58,3.45,7.42,1.3,10.49,2.48.02,2.49.03,4.97.05,7.46-4.76.1-9.53.09-14.28.35-3.05.16-4.22-1.8-4.5-4.07-.27-2.17,1.27-3.62,3.59-3.75,1.25-.07,2.6-.29,2.55-1.65-.05-1.38-1.49-1.46-2.68-1.43-.82.02-1.65.07-2.47,0-2.69-.21-4.14-1.56-4.18-4.38-.04-2.92,2-3.6,4.17-3.64,4.59-.08,9.19.15,13.78.25-.26,2.61.03,5.14.99,7.59Z" style="fill: #c6c6c6;"/>
  <path d="m74.56,107.46c-.96-2.45-1.25-4.98-.99-7.59,5.77-.11,11.54-.27,17.31-.32,2.98-.03,5.28,1.54,5.34,4.45.07,3.18-2.65,3.65-5.32,3.62-5.45-.07-10.9-.11-16.34-.16Z" style="fill: #eee;"/>
  <path d="m77.58,118.19c-.02-2.49-.03-4.97-.05-7.46,3.45-.11,6.9-.31,10.34-.32,2.7,0,4.43,1.47,4.44,4.17.01,2.71-1.66,4.17-4.42,4.05-3.44-.15-6.91.51-10.32-.44Z" style="fill: #eee;"/>
  <path d="m73.61,91.91c.66,1.3,2.07,2.24,1.92,3.94-.31.23-.61.46-.92.69-1.78.56-3.26.2-3.98-1.63-.44-1.13-1.78-2.35-.8-3.54,1.29-1.57,2.56-.02,3.78.54Z" style="fill: #f7ad52;"/>
  <path d="m81.46,122.54c-2.67.65-5.32,1.38-8.01,1.91-1.24.24-2.51-.37-2.67-1.65-.23-1.89,1.48-1.38,2.47-1.4,2.81-.06,5.62.03,8.43.07-.07.36-.14.71-.21,1.07Z" style="fill: #4ad890;"/>
  <path d="m74.61,96.54c.31-.23.61-.46.92-.69,0,.2-.01.41-.01.61,0,0-.44.16-.44.16,0,0-.46-.08-.46-.08Z" style="fill: #f9c788;"/>
  <path d="m81.46,122.54c.07-.36.14-.71.21-1.07.74.52.62.86-.21,1.07Z" style="fill: #3c7358;"/>
  <path d="m59.65,70.84c2.35.39,5.35-1.15,6.61,2.43,1.29,3.66-1.74,4.74-3.65,6.52-3.06.29-4.89-1.5-5.8-4.02-.87-2.41.98-3.8,2.84-4.93Z" style="fill: #ff7484;"/>
  <path d="m65.31,12.12c3.47-1.71,7.12-1.93,8.82-5.64.85-1.87,2.72-1.54,4.05.05.52.63,1.1,1.28,1.39,2.02,1.14,3.01,6.75.91,6.16,4.45-.41,2.45-2.52,4.74-2.33,7.74.18,2.74-.99,3.38-3.99,3.09-5.47-.52-11.32.51-11.1-7.91.03-1.11-1.73-2.26-2.99-3.8Z" style="fill: #4ad890;"/>
  <path d="m28.73,86.37c-2.29,1.84-5.18,2.32-5.89,5.24-.36,1.46-1.28,1.25-2.14.45-1.62-1.5-3.46-2.24-5.7-2.4-1.51-.11-2.33-1.03-1.25-2.66,1.03-1.55,1.2-3.29,1.15-5.13-.05-1.79.64-1.97,2.72-2.41,4.74-1,7.74-.76,8.96,4.49.19.83,1.26,1.46,2.15,2.42Z" style="fill: #f9c788;"/>
  <path d="m139.22,89.37c-2.63.5-5.41.23-7.05,2.77-.52.81-1.4.67-2.09-.03-.34-.35-.6-.87-1.01-1.07-6.18-2.97-3.93-7.23-1.76-11.45.39-.76.72-1.9,2.06-1.15,2.19,1.23,4.33,2.09,6.84.51.74-.47,2.28.19,1.53,1.49-1.91,3.33.61,5.86,1.47,8.92Z" style="fill: #f9c788;"/>
  <path d="m132.71,55.65c-.72,1.62-1.06,3.48-3.25,3.21-1.52-.19-2.13-1.29-2.22-2.75-.13-2.22,1.59-2.85,3.1-2.86,1.1,0,2.19,1.14,2.37,2.41Z" style="fill: #ff7484;"/>
  <path d="m22.23,53.04c1.94.15,2.53,1.36,2.55,3.02.02,1.51.12,2.97-2.21,2.91-2.23-.06-2.94-1.71-3.11-3.18-.17-1.51,1.23-2.46,2.76-2.75Z" style="fill: #ff7484;"/>
  <path d="m90.02,79.91c-2.47-1.03-5.32-1.78-5.3-4.63.02-1.82,1.38-4.82,3.77-4.03,2.36.78,6.79-.94,6.82,3.77.02,3.32-3.09,3.77-5.29,4.9Z" style="fill: #ff7484;"/>
  <path d="m71.72,73.08c1.64.24,3.17.52,4.71.68.98.1,1.98-1.78,2.91-.18.51.87.13,2.04-.81,2.58-1.17.66-2.36,2.23-3.79,1.19-1.32-.96-3.12-1.86-3.02-4.27Z" style="fill: #343434;"/>
  <ellipse cx="62.07" cy="68.67" rx="1.5" ry="2.63" style="fill: #343434;"/>
  <ellipse cx="89.87" cy="69.26" rx="1.5" ry="2.63" style="fill: #343434;"/>
</svg>