<?xml version="1.0" encoding="UTF-8"?>
<svg id="Layer_1" data-name="Layer 1" xmlns="http://www.w3.org/2000/svg" viewBox="0 0 370.75 370.87">
  <path d="m294.21,190.67c-.04,9.99-.1,19.99-.11,29.98-.01,44.98,0,89.96,0,134.94,0,10.43-4.79,15.27-15.16,15.27-83.72,0-167.44,0-251.15,0-10.43,0-15.06-4.57-15.06-14.86,0-70.72,0-141.43,0-212.15,0-.87.05-1.75.08-2.62,34.02-.03,68.03-.05,102.05-.08.01,19.46.01,38.93.07,58.39,0,1.41-.81,3.46.64,4.1,1.24.54,2.53-1.14,3.74-1.95,10.36-6.89,20.77-13.71,31.04-20.72,2.22-1.51,3.79-1.49,5.98,0,10.7,7.28,21.49,14.4,32.26,21.58.91.6,1.84,1.73,2.94,1.13,1.13-.62.55-2.05.55-3.11.03-16.97.01-33.93.04-50.9,0-1.33-.41-2.76.56-3.97,3.74,5.97,7.96,11.61,12.82,16.67,8.72,9.08,18.89,16.27,30.42,21.32,9.9,4.34,20.19,7.38,31.16,7.8,9.05.35,18.05.3,26.97-1.43,0,.22.05.42.17.6Zm-205.02,154.59c14.37,0,28.73.01,43.1,0,6.12,0,8.18-2.01,8.2-7.95.02-11.74.02-23.49,0-35.23-.01-5.43-2.49-7.91-7.98-7.91-28.86-.02-57.72-.02-86.58,0-5.66,0-7.59,1.92-7.61,7.62-.04,11.87-.03,23.74,0,35.6.01,5.88,1.96,7.85,7.78,7.86,14.37.03,28.73,0,43.1,0Zm150.39-6.23c-9.25,0-18.49-.03-27.74.01-4.08.02-7.69,2.91-7.73,6.04-.04,3.47,3.45,6.69,7.5,6.7,18.61.04,37.23.05,55.84,0,4.66-.01,7.17-2.37,7.12-6.29-.05-4.39-2.29-6.43-7.27-6.45-9.24-.04-18.49-.01-27.74,0Zm9.87-51.13c-6.23,0-12.47-.06-18.7.02-4.32.06-7.02,2.4-7.15,5.95-.13,3.73,2.44,6.64,6.79,6.71,12.59.19,25.18.18,37.77.02,4.31-.05,6.61-2.88,6.43-7-.16-3.66-2.43-5.64-6.82-5.69-6.11-.07-12.22-.02-18.32-.01Zm6.1,25.58c-3.98,0-7.97-.06-11.95.01-4.66.08-7.08,2.22-7.24,6.24-.14,3.45,2.9,6.41,7.1,6.48,8.21.13,16.43.13,24.65,0,4.18-.07,6.6-2.71,6.48-6.52-.12-4.01-2.32-6.11-6.72-6.19-4.11-.08-8.22-.02-12.32-.02Z" style="fill: #f0c419;"/>
  <path d="m294.04,190.07c-8.93,1.73-17.92,1.78-26.97,1.43-10.97-.42-21.26-3.46-31.16-7.8-11.53-5.05-21.7-12.25-30.42-21.32-4.86-5.06-9.08-10.71-12.82-16.67-7.7-13.5-12.85-27.8-13.58-43.48-.11-10.78.06-21.48,3.21-31.99,4.07-13.6,10.41-25.88,19.65-36.67,13.89-16.22,31.24-26.7,52.08-31.3,15.77-3.48,31.41-2.94,46.99,1.48,17.32,4.91,32.17,13.84,44.31,27.06,12.64,13.76,20.41,29.92,23.84,48.39,3.38,18.2,1.17,35.68-5.44,52.65-4.38,11.24-10.88,21.27-19.37,30.03-7.5,7.74-15.83,14.26-25.38,19.17-7.03,3.61-14.39,6.44-22.13,8.18-.7.16-1.36.52-2.04.79-.26.02-.51.03-.77.05Zm50.34-87.16c1.51-4.44.29-9.01.65-13.51-.5-3.06-.78-6.17-1.53-9.17-5.32-21.03-17.14-37.01-36.74-46.88-.97-.79-2.07-1.31-3.2-1.85-7.04-3.33-14.5-4.92-22.18-5.74-4.29,0-8.59,0-12.88,0-2.69.37-5.43.55-8.07,1.15-21.55,4.87-37.52,17.19-48.06,36.52-3.7,6.78-5.99,14.14-7.42,21.74-.54,2.86-.03,4.82,3.75,4.32,2.7-.36,5.48-.12,8.22-.05,4.23.11,6.72,2.48,6.76,6.34.04,3.89-2.44,6.37-6.61,6.48-3.24.08-6.49.12-9.73,0-2.04-.08-2.7.78-2.43,2.65,1.17,8.03,3.25,15.75,7.53,22.75,11.81,22.82,30.9,34.98,56.05,38.26,4.3,0,8.61,0,12.91,0,2.56-.4,5.15-.7,7.69-1.23,16.98-3.57,30.91-12.16,41.44-25.91,8.07-10.54,13.59-22.24,13.85-35.87Z" style="fill: #3b97d3;"/>
  <path d="m179.09,102.23c.73,15.68,5.88,29.98,13.58,43.48-.97,1.21-.56,2.64-.56,3.97-.03,16.97,0,33.93-.04,50.9,0,1.06.58,2.49-.55,3.11-1.1.6-2.03-.53-2.94-1.13-10.76-7.18-21.56-14.3-32.26-21.58-2.18-1.48-3.76-1.51-5.98,0-10.28,7.01-20.68,13.83-31.04,20.72-1.21.8-2.51,2.49-3.74,1.95-1.46-.64-.64-2.69-.64-4.1-.06-19.46-.06-38.92-.07-58.39.03-12.93.07-25.86.1-38.79,21.38-.04,42.76-.09,64.15-.13Z" style="fill: #f29c1f;"/>
  <path d="m114.95,102.36c-.03,12.93-.07,25.86-.1,38.79-34.02.03-68.03.05-102.05.08-3.05-.29-6.19.58-9.12-1.15-2.22-1.31-3.66-2.91-3.66-5.61.01-8.61-.07-17.22.03-25.83.04-3.8,2.19-5.92,5.97-6.37.62-.07,1.25-.03,1.87-.03,34.94,0,69.88,0,104.82,0,.75,0,1.49.07,2.24.11Z" style="fill: #f3d55b;"/>
  <path d="m294.04,190.07c.26-.02.51-.03.77-.05-.2.22-.4.43-.6.65-.11-.19-.17-.39-.17-.6Z" style="fill: #fefbf0;"/>
  <path d="m89.19,345.27c-14.37,0-28.73.02-43.1,0-5.82-.01-7.76-1.99-7.78-7.86-.03-11.87-.03-23.74,0-35.6.02-5.71,1.94-7.62,7.61-7.62,28.86-.01,57.72-.02,86.58,0,5.49,0,7.97,2.48,7.98,7.91.02,11.74.02,23.49,0,35.23-.01,5.95-2.08,7.95-8.2,7.95-14.37.02-28.73,0-43.1,0Z" style="fill: #ecf0f1;"/>
  <path d="m239.58,339.04c9.25,0,18.49-.03,27.74.01,4.98.02,7.22,2.06,7.27,6.45.04,3.92-2.46,6.28-7.12,6.29-18.61.06-37.23.04-55.84,0-4.05,0-7.55-3.23-7.5-6.7.04-3.13,3.65-6.02,7.73-6.04,9.24-.04,18.49-.01,27.74-.01Z" style="fill: #3f5c6c;"/>
  <path d="m249.44,287.9c6.11,0,12.22-.05,18.32.02,4.39.05,6.66,2.03,6.82,5.69.18,4.11-2.12,6.94-6.43,7-12.59.16-25.18.16-37.77-.02-4.35-.06-6.92-2.97-6.79-6.71.13-3.55,2.82-5.89,7.15-5.95,6.23-.08,12.47-.02,18.7-.03Z" style="fill: #3f5c6c;"/>
  <path d="m255.54,313.48c4.11,0,8.22-.07,12.32.02,4.4.09,6.6,2.19,6.72,6.19.11,3.81-2.3,6.45-6.48,6.52-8.21.14-16.43.13-24.65,0-4.21-.07-7.25-3.03-7.1-6.48.17-4.02,2.58-6.16,7.24-6.24,3.98-.07,7.97-.01,11.95-.02Z" style="fill: #3f5c6c;"/>
  <path d="m212.45,127.66c-4.28-7-6.36-14.72-7.53-22.75-.27-1.87.39-2.73,2.43-2.65,3.24.13,6.49.09,9.73,0,4.17-.11,6.65-2.59,6.61-6.48-.04-3.86-2.53-6.24-6.76-6.34-2.74-.07-5.53-.3-8.22.05-3.77.5-4.29-1.46-3.75-4.32,1.43-7.59,3.72-14.95,7.42-21.74,10.54-19.32,26.51-31.65,48.06-36.52,2.64-.6,5.38-.78,8.07-1.15.02,3.97,0,7.95.08,11.92.08,4.28,2.37,6.77,6.18,6.86,4,.09,6.47-2.44,6.56-6.87.08-3.97.05-7.95.07-11.92,7.68.82,15.14,2.41,22.18,5.74,1.13.54,2.23,1.06,3.2,1.85.1.61.08,1.28.32,1.83,4.43,9.97,6.13,20.38,5.79,31.28-.5,15.9-5.89,29.82-16.06,41.96-5.57-4.06-9.8-9.52-14.81-14.17-1.09-1.01-.65-2.34-.66-3.54-.04-8.24-.02-16.48-.02-24.72,0-1.36-.07-2.65-.6-4-1.4-3.62-3.33-4.88-7.64-3.95-2.94.63-4.57,2.62-4.55,5.88.07,10.49.05,20.98,0,31.47-.01,2.41.88,4.18,2.61,5.87,5.53,5.41,10.9,10.98,16.33,16.49-17.48,14.82-37.68,18.74-59.73,14.59-5.21-.98-10.2-3.09-15.3-4.68Z" style="fill: #b0d3f0;"/>
  <path d="m212.45,127.66c5.09,1.59,10.09,3.7,15.3,4.68,22.04,4.15,42.25.23,59.73-14.59.74.66,1.44,1.37,2.23,1.96,2.16,1.59,4.28,2.74,7.12,1.14,2.67-1.51,3.34-3.58,3.34-6.45,0-2.77-1.92-4.16-3.35-5.97,10.17-12.14,15.56-26.06,16.06-41.96.34-10.89-1.36-21.31-5.79-31.28-.24-.55-.22-1.22-.32-1.83,19.6,9.87,31.41,25.85,36.74,46.88.76,2.99,1.04,6.11,1.53,9.17-3.72.02-7.45.05-11.17.07-5.12.04-7.67,2.23-7.59,6.53.07,4.11,2.58,6.07,7.52,6.26,3.53.14,7.14-.77,10.59.64-.26,13.64-5.78,25.33-13.85,35.87-10.53,13.75-24.47,22.34-41.44,25.91-2.54.53-5.13.83-7.69,1.23-.03-4.09.01-8.19-.1-12.28-.11-4.07-2.71-6.55-6.57-6.46-3.73.08-6.05,2.46-6.14,6.46-.1,4.09-.07,8.19-.1,12.28-25.15-3.28-44.24-15.44-56.05-38.26Z" style="fill: #90bae1;"/>
  <path d="m344.38,102.91c-3.45-1.41-7.06-.5-10.59-.64-4.94-.19-7.45-2.15-7.52-6.26-.08-4.3,2.47-6.49,7.59-6.53,3.72-.03,7.45-.05,11.17-.07-.36,4.49.85,9.07-.65,13.51Z" style="fill: #2a81ba;"/>
  <path d="m281.38,25.77c-.02,3.97.01,7.95-.07,11.92-.09,4.42-2.56,6.96-6.56,6.87-3.81-.09-6.1-2.58-6.18-6.86-.07-3.97-.05-7.95-.08-11.92,4.29,0,8.59,0,12.88,0Z" style="fill: #2a81ba;"/>
  <path d="m268.5,165.92c.03-4.09,0-8.19.1-12.28.1-4.01,2.42-6.38,6.14-6.46,3.86-.09,6.46,2.4,6.57,6.46.11,4.09.07,8.19.1,12.28-4.3,0-8.6,0-12.91,0Z" style="fill: #2a81ba;"/>
  <path d="m296.82,108.42c1.42,1.81,3.34,3.2,3.35,5.97,0,2.87-.67,4.94-3.34,6.45-2.84,1.6-4.96.45-7.12-1.14-.79-.58-1.49-1.3-2.23-1.96-5.43-5.51-10.8-11.08-16.33-16.49-1.73-1.69-2.62-3.46-2.61-5.87.06-10.49.07-20.98,0-31.47-.02-3.26,1.61-5.24,4.55-5.88,4.31-.93,6.23.32,7.64,3.95.52,1.35.6,2.64.6,4,0,8.24-.01,16.48.02,24.72,0,1.2-.43,2.52.66,3.54,5.01,4.65,9.24,10.11,14.81,14.17Z" style="fill: #405d6d;"/>
</svg>