<?xml version="1.0" encoding="UTF-8"?>
<svg id="Layer_1" data-name="Layer 1" xmlns="http://www.w3.org/2000/svg" viewBox="0 0 511.79 493.83">
  <path d="m0,464.89V103.03c52.61-.03,105.22-.06,157.83-.08-.49,22.57.56,45.15-.56,67.72-.06,1.18-.09,2.47,1.27,2.94,1.31.45,2.03-.55,2.89-1.4,4.37-4.35,6.97-4.51,10.78-.35,2.53,2.76,4.6,2.86,6.87-.1,1.94-2.53,4.52-3.4,7.51-2.36,6.28,2.18,8.86,2.19,13.22-.24-.46,2.28-.83,4.57-1.41,6.82-4.66,18.25-5.92,36.74-3.55,55.42,4.79,37.74,21.26,69.47,50.21,94.14,38.74,33.01,83.33,43.38,132.87,32.06,8.56-1.96,16.82-5.17,25.22-7.8.12.48.35.97.35,1.45.02,35.97.53,71.96-.2,107.92-.38,18.74-16.11,34.48-33.06,34.57-41.47.23-82.94.05-124.41.04.04-22.12.09-44.24.08-66.36,0-1.4.58-3.26-1.15-4-1.89-.81-2.42,1.19-3.43,2.17-3.39,3.29-6.73,3.18-10.28-.66-2.3-2.49-4.14-2.74-6.59-.17-4.13,4.34-6.64,4.36-10.82.05-2.44-2.51-4.22-2.39-6.58.12-3.86,4.1-6.82,4.12-10.49.09-2.52-2.76-4.41-2.73-6.91.03-3.59,3.96-6.96,3.96-10.55,0-2.5-2.76-4.4-2.8-6.91-.03-3.49,3.85-6.58,3.83-10.22.35-.9-.86-1.35-2.62-3.05-1.93-1.55.63-1.17,2.26-1.17,3.51.03,22.28.1,44.57.17,66.85-41.81,0-83.61,0-125.42,0-3.02,0-5.78-.94-8.58-2.01-12.65-4.84-19.63-14.66-23.95-26.88Zm74.48-241.83c9.11,0,9.48-.19,9.35-9.64-.05-4.07,1.17-5.55,5.37-5.47,6.8.12,8.52-2.79,5.35-8.67-4.97-9.21-10.09-18.35-15.29-27.44-2.73-4.77-6.8-4.8-9.52-.06-5.21,9.08-10.32,18.22-15.3,27.43-3.19,5.9-1.49,8.92,5.23,8.72,4.69-.14,5.51,1.84,5.44,5.92-.16,8.77.48,9.22,9.37,9.22Zm-9.53,66.83c0,2.49.03,4.99-.01,7.48-.02,1.31.08,2.81-1.57,3.3-1.65.48-2.37-.7-3.01-1.94-1.15-2.21-2.77-3.45-5.22-1.95-2.26,1.39-2.17,3.47-1.35,5.71,1.44,3.91,5.58,6.79,9.18,6.27,5.22-.74,8.66-3.83,9-8.49.27-3.64.1-7.31.19-10.97q.23-10.44,10.38-10.35c1.16,0,2.33.02,3.49.01,6.12-.06,7.78-2.07,6.6-7.95-1.97-9.85-10.61-18.1-19.97-19.07-11.96-1.24-21.08,3.69-25.66,13.85-4.13,9.17-2.73,11.68,6.96,12.43.17.01.33.03.5.04q10.62.97,10.49,11.62Zm-22.91,79.12c.49,5.06,3.27,7.32,7.56,7.66,3.63.29,7.3.17,10.95.15,2.73-.02,5.08-.14,5.97,3.55.54,2.26,3,3.12,5.3,1.59,3.17-2.12,6.32-4.28,9.3-6.65,2.34-1.86,2.19-4.04-.27-5.74-2.59-1.79-5.32-3.38-7.99-5.07-3.42-2.16-6.06-2.02-6.81,2.58-.35,2.18-1.61,2.73-3.46,2.64-1.82-.09-3.63-.31-5.45-.46q-6.62-.53-3.4-6.55c.61-1.14,1.79-2.48.02-3.36-1.51-.74-3.13-3.28-4.72-1.66-3.21,3.29-5.98,7.07-7.02,11.31Zm41.86-18.2h-.06c0,.83,0,1.66,0,2.49-.02,6.24.22,6.52,6.21,5.22,1.72-.37,2.49.43,3.26,1.53,1.25,1.76,2.36,3.62,3.65,5.35,2.26,3.04,2.16,4.77-2.24,4.54-1.99-.1-3.98.02-5.98.04-2.32.02-2.55,1.59-2.64,3.39-.1,1.89.24,3.39,2.52,3.39,3.82,0,7.68.29,11.43-.22,6.2-.85,8.48-6.03,5.27-11.43-1.7-2.85-3.64-5.55-5.52-8.29-1.09-1.59-1.95-2.85.09-4.63,2.95-2.57,1.43-4.66-1.39-6.14-1.76-.92-3.62-1.66-5.42-2.51-7.98-3.78-9.03-3.11-9.18,5.79,0,.5,0,1,0,1.49Zm-31.01-4.17c0,1.5-.03,3,0,4.5.05,1.84,0,3.75,2.21,4.56,1.69.63,12.89-3.55,14.18-5.35,1.13-1.56,1.12-3.33-.26-4.54-2.4-2.12-1.65-3.94-.07-6.01,1.21-1.58,2.36-3.24,3.33-4.98,1.68-2.99,3.04-2.38,4.45.18.48.87,1.16,1.63,1.63,2.51,1.44,2.67,2.73,3.25,5.73,1.29,3.11-2.04,1.53-3.31.38-5.06-1.19-1.81-2.33-3.66-3.62-5.39-3.9-5.23-8.83-5.3-12.7-.12-1.89,2.53-3.58,5.21-5.31,7.87-1.28,1.97-2.57,3.19-5.3,2.22-3.22-1.15-4.63.72-4.66,3.84-.02,1.5,0,3-.01,4.5Zm26.57,67.26c8.97,0,17.94,0,26.92,0,2.69,0,6.01.15,6.07-3.46.06-3.67-3.26-3.56-5.95-3.56-17.78-.01-35.56-.01-53.33,0-2.71,0-5.94-.05-5.81,3.68.11,3.27,3.12,3.35,5.7,3.35,8.81,0,17.61,0,26.42,0Zm0,11.85c-8.8,0-17.6-.03-26.41.02-2.41.02-5.62-.5-5.78,3.04-.17,3.64,2.89,3.94,5.67,3.94,17.94.02,35.87.01,53.81,0,2.61,0,5.19-.12,5.12-3.79-.07-3.56-2.73-3.19-5.01-3.2-9.13-.04-18.27-.02-27.4-.02Zm.36,25.29c8.97,0,17.94.03,26.9-.02,2.23-.01,4.97.52,5.15-3.05.18-3.61-2.29-3.93-4.97-3.93-18.1,0-36.21,0-54.31.01-2.65,0-5.36.49-5.35,3.8.01,3.27,2.83,3.18,5.17,3.18,9.13.03,18.27.01,27.4.02Zm.16,11.86c-9.14,0-18.28,0-27.41,0-2.46,0-5.11.36-5.24,3.32-.14,3.4,2.69,3.69,5.31,3.69,18.11,0,36.22,0,54.33,0,2.6,0,5.54-.2,5.5-3.54-.04-3.3-2.97-3.49-5.57-3.49-8.97,0-17.94,0-26.92,0Z" style="fill: #c9b77d;"/>
  <path d="m511.79,200.99c-3.28,5.01-2.46,10.99-3.74,16.47-5.48,23.51-15.68,44.43-31.13,63.09-14.54,17.56-32.31,30.52-52.7,40.13-6.63,3.12-13.65,5.4-20.5,8.06-.28.03-.55.1-.81.19-1.95.38-3.94.65-5.86,1.15-15.63,4.03-31.67,5.26-47.51,3.52-31.83-3.49-60.4-15.21-84.63-36.77-25.66-22.83-41.75-50.95-48.1-84.69-2.57-13.64-2.82-27.38-2.04-41.18,2.19-16.04,5.74-31.7,12.48-46.52,1.08-2.39,2.78-4.59,2.72-7.41l-.06.03c.39-.35.77-.7,1.16-1.05,2.58-4.29,5.15-8.58,7.73-12.87,2.06-3.02,4.12-6.03,6.18-9.05,1.13-1.2,2.31-2.36,3.38-3.61,28.43-33.25,64.39-51.27,108.14-53.76,7.51-.43,14.96.53,22.44.28.73.34,1.45.92,2.2.98,9.33.75,18.32,3.07,27.2,5.89,25.69,8.17,47.41,22.25,65.41,42.45,16.23,18.2,27.19,38.9,33.28,62.46,1.82,7.04,1.56,14.52,4.76,21.22v30.99Zm-271.91-15.43c-.49,66.65,53.4,123.18,123.25,123.1,69.06-.08,123.3-54.57,123.33-123.24.03-69.76-55.76-123.31-123.47-123.52-67.35-.21-124.22,55.98-123.11,123.67Z" style="fill: #e05858;"/>
  <path d="m0,102.03c6.32-16.47,12.66-32.93,18.96-49.41,3.75-9.8,7.1-19.76,11.23-29.39C36.34,8.93,47.56.5,63.06.26c34.31-.53,68.63-.1,102.94-.06-.68,6.42-1.88,12.83-1.93,19.25-.07,10.34-1.85,20.5-2.38,30.8-.9,17.58-2.52,35.12-3.84,52.68h-.02c-52.61.04-105.22.07-157.83.1,0-.33,0-.67,0-1Z" style="fill: #ffeead;"/>
  <path d="m214.78,170.97c-.78,13.8-.53,27.54,2.04,41.18,6.35,33.74,22.44,61.85,48.1,84.69,24.24,21.57,52.8,33.29,84.63,36.77,15.85,1.74,31.88.5,47.51-3.52,1.92-.5,3.9-.77,5.86-1.15.24.33.48.67.72,1-.1,6.61.75,13.25-.47,19.84-8.4,2.63-16.67,5.85-25.22,7.8-49.54,11.32-94.13.95-132.87-32.06-28.95-24.68-45.43-56.41-50.21-94.14-2.37-18.68-1.11-37.17,3.55-55.42.57-2.25.94-4.55,1.41-6.82.4-.11.8-.21,1.2-.31,1.99.13,4.07.36,5.27,2.12,2.9,4.24,5.65,3.53,8.48.03Z" style="fill: #aa9865;"/>
  <path d="m245.86,493.75c-29.3,0-58.61.02-87.91.03-.06-22.28-.13-44.57-.17-66.85,0-1.26-.38-2.88,1.17-3.51,1.7-.7,2.16,1.07,3.05,1.93,3.64,3.48,6.74,3.5,10.22-.35,2.51-2.77,4.41-2.72,6.91.03,3.59,3.96,6.96,3.96,10.55,0,2.5-2.76,4.4-2.79,6.91-.03,3.67,4.03,6.63,4.01,10.49-.09,2.36-2.51,4.15-2.63,6.58-.12,4.18,4.31,6.69,4.29,10.82-.05,2.45-2.57,4.29-2.31,6.59.17,3.55,3.84,6.89,3.95,10.28.66,1.01-.98,1.54-2.98,3.43-2.17,1.73.74,1.15,2.6,1.15,4,0,22.12-.05,44.24-.08,66.36Z" style="fill: #99734a;"/>
  <path d="m201.03,168.83c-.4.1-.8.21-1.2.31-4.37,2.44-6.94,2.42-13.22.25-2.99-1.04-5.57-.17-7.51,2.36-2.27,2.96-4.34,2.86-6.87.1-3.81-4.16-6.42-3.99-10.78.35-.86.85-1.58,1.86-2.89,1.4-1.36-.47-1.33-1.76-1.27-2.94,1.12-22.57.06-45.15.56-67.72,0,0,.02-.01.02-.01,26.98.07,53.97.14,80.95.21-2.58,4.29-5.15,8.58-7.73,12.87-.39.35-.77.7-1.16,1.05,0,0,.06-.03.06-.03-13.76,14.96-23.14,32.38-28.95,51.79Z" style="fill: #99734a;"/>
  <path d="m74.48,223.06c-8.89,0-9.53-.45-9.37-9.22.07-4.08-.75-6.06-5.44-5.92-6.72.21-8.42-2.81-5.23-8.72,4.98-9.21,10.1-18.35,15.3-27.43,2.72-4.74,6.79-4.72,9.52.06,5.2,9.09,10.32,18.22,15.29,27.44,3.17,5.88,1.44,8.78-5.35,8.67-4.19-.07-5.42,1.4-5.37,5.47.12,9.45-.24,9.64-9.35,9.64Z" style="fill: #9a744b;"/>
  <path d="m64.95,289.89q.12-10.64-10.49-11.62c-.17-.02-.33-.03-.5-.04-9.68-.76-11.09-3.26-6.96-12.43,4.58-10.16,13.7-15.08,25.66-13.85,9.36.97,18,9.21,19.97,19.07,1.18,5.88-.48,7.88-6.6,7.95-1.16.01-2.33,0-3.49-.01q-10.14-.08-10.38,10.35c-.08,3.66.08,7.33-.19,10.97-.34,4.66-3.78,7.75-9,8.49-3.6.51-7.75-2.36-9.18-6.27-.82-2.24-.92-4.33,1.35-5.71,2.44-1.5,4.07-.26,5.22,1.95.64,1.24,1.37,2.42,3.01,1.94,1.65-.48,1.55-1.98,1.57-3.3.04-2.49.01-4.99.01-7.48Zm2.97-30.92c-5.35.41-10.28,2.94-13.51,8.41-1.42,2.41-1.01,3.6,2.02,3.65,8.28.13,16.56-.24,24.83.69,3.7.41,3.96-1.57,2.27-4.2-3.44-5.36-8.19-8.57-15.62-8.55Z" style="fill: #9a754b;"/>
  <path d="m42.04,369.01c1.04-4.23,3.8-8.02,7.02-11.31,1.59-1.63,3.21.92,4.72,1.66,1.78.87.59,2.21-.02,3.36q-3.22,6.02,3.4,6.55c1.82.14,3.63.37,5.45.46,1.84.09,3.11-.45,3.46-2.64.74-4.6,3.39-4.74,6.81-2.58,2.67,1.68,5.4,3.27,7.99,5.07,2.46,1.7,2.61,3.88.27,5.74-2.98,2.37-6.13,4.54-9.3,6.65-2.3,1.53-4.75.67-5.3-1.59-.89-3.69-3.24-3.57-5.97-3.55-3.65.02-7.32.14-10.95-.15-4.29-.35-7.08-2.61-7.56-7.66Z" style="fill: #9a754b;"/>
  <path d="m83.9,350.81c0-.5,0-1,0-1.49.15-8.9,1.2-9.56,9.18-5.79,1.8.85,3.66,1.59,5.42,2.51,2.82,1.48,4.34,3.57,1.39,6.14-2.04,1.78-1.17,3.04-.09,4.63,1.88,2.74,3.82,5.44,5.52,8.29,3.21,5.39.93,10.58-5.27,11.43-3.75.52-7.62.22-11.43.22-2.28,0-2.62-1.5-2.52-3.39.1-1.8.33-3.37,2.64-3.39,1.99-.01,3.99-.14,5.98-.04,4.4.23,4.5-1.5,2.24-4.54-1.29-1.73-2.4-3.59-3.65-5.35-.78-1.1-1.54-1.9-3.26-1.53-5.99,1.3-6.23,1.02-6.21-5.22,0-.83,0-1.66,0-2.49h.06Z" style="fill: #9a754b;"/>
  <path d="m52.9,346.64c0-1.5-.01-3,0-4.5.04-3.13,1.44-4.99,4.66-3.84,2.73.98,4.02-.25,5.3-2.22,1.72-2.65,3.42-5.33,5.31-7.87,3.86-5.18,8.8-5.12,12.7.12,1.29,1.73,2.44,3.58,3.62,5.39,1.15,1.75,2.73,3.03-.38,5.06-3,1.97-4.29,1.38-5.73-1.29-.47-.88-1.15-1.64-1.63-2.51-1.41-2.56-2.77-3.16-4.45-.18-.98,1.74-2.12,3.39-3.33,4.98-1.58,2.07-2.33,3.89.07,6.01,1.38,1.21,1.38,2.98.26,4.54-1.3,1.8-12.49,5.98-14.18,5.35-2.2-.82-2.16-2.72-2.21-4.56-.04-1.5,0-3,0-4.5Z" style="fill: #9a754b;"/>
  <path d="m79.47,413.9c-8.81,0-17.61,0-26.42,0-2.57,0-5.59-.07-5.7-3.35-.13-3.73,3.11-3.67,5.81-3.68,17.78-.02,35.56-.02,53.33,0,2.69,0,6.01-.11,5.95,3.56-.06,3.61-3.38,3.46-6.07,3.46-8.97.01-17.94,0-26.92,0Z" style="fill: #9a744b;"/>
  <path d="m79.47,425.75c9.13,0,18.27-.02,27.4.02,2.28.01,4.94-.36,5.01,3.2.07,3.66-2.51,3.78-5.12,3.79-17.94.01-35.87.02-53.81,0-2.78,0-5.84-.3-5.67-3.94.16-3.54,3.37-3.03,5.78-3.04,8.8-.05,17.6-.02,26.41-.02Z" style="fill: #99734a;"/>
  <path d="m79.82,451.04c-9.13,0-18.27.02-27.4-.01-2.34,0-5.15.08-5.17-3.18-.01-3.31,2.7-3.79,5.35-3.8,18.1-.02,36.21-.01,54.31-.01,2.68,0,5.15.32,4.97,3.93-.18,3.57-2.92,3.04-5.15,3.05-8.97.06-17.94.02-26.9.02Z" style="fill: #99734a;"/>
  <path d="m79.99,462.9c8.97,0,17.94,0,26.92,0,2.6,0,5.53.19,5.57,3.49.04,3.34-2.89,3.54-5.5,3.54-18.11,0-36.22,0-54.33,0-2.63,0-5.46-.3-5.31-3.69.13-2.97,2.77-3.32,5.24-3.32,9.14,0,18.28,0,27.41,0Z" style="fill: #9a744b;"/>
  <path d="m403.64,329.94c-.24-.33-.48-.67-.72-1,.26-.1.53-.16.81-.19-.03.4-.06.8-.08,1.2Z" style="fill: #c9b77d;"/>
  <path d="m239.89,185.57c-1.11-67.68,55.76-123.88,123.11-123.67,67.72.21,123.5,53.77,123.47,123.52-.03,68.67-54.28,123.16-123.33,123.24-69.85.08-123.74-56.45-123.25-123.1Zm183.23,10.09c.39,8.31-4.73,20.28-13.63,30.84-14.35,17.02-42.49,25.15-64.26,14.63-12.83-6.2-22.41-15.23-28.75-27.94-2.64-5.3-8.33-6.98-13.05-4.35-4.28,2.39-5.58,7.39-2.95,12.51,13.8,26.91,35.81,41.98,66.06,42.28,53.01.53,87.03-50.68,70.71-98.37-7.49-21.9-22.71-36.81-44.31-45.16-2.12-.82-4.64-1.06-3.91-4.54,1.19-5.65,1.98-11.38,3.18-17.03,1.11-5.22.83-10.18-3.56-13.63-4.19-3.3-9.19-2.44-13.77-.66-17.52,6.81-35.01,13.71-52.45,20.72-10.16,4.08-11.55,13.67-3.12,20.57,6.82,5.59,13.68,11.14,20.54,16.7,8.53,6.92,16.93,14.02,25.65,20.69,7.27,5.56,15.96,1.92,17.41-6.96.72-4.39,1.35-8.8,2.13-13.19,1.06-6,1.43-6.25,6.82-3.46,20.51,10.6,30.71,27.57,31.27,56.35Z" style="fill: #ff6f69;"/>
  <path d="m238.8,103.14c-26.98-.07-53.97-.14-80.95-.21,1.32-17.56,2.94-35.1,3.84-52.68.53-10.29,2.31-20.46,2.38-30.8.05-6.42,1.25-12.84,1.93-19.25,23.93,0,47.86.01,71.79.02,1.08,15.82,2.07,31.66,3.28,47.47,1.19,15.48,2.6,30.93,3.91,46.4-2.06,3.02-4.12,6.03-6.18,9.05Z" style="fill: #c9b77d;"/>
  <path d="m244.99,94.09c-1.31-15.47-2.73-30.92-3.91-46.4-1.21-15.81-2.2-31.65-3.28-47.47,34.74-.04,69.49-.48,104.23.07,13.71.22,24.28,7.56,30.7,19.92,2.75,5.29,4.74,10.97,6.23,16.78-7.48.25-14.93-.71-22.44-.28-43.75,2.5-79.71,20.51-108.14,53.76-1.07,1.25-2.25,2.41-3.38,3.61Z" style="fill: #ffeead;"/>
  <path d="m201.03,168.83c5.81-19.41,15.18-36.83,28.95-51.79.07,2.82-1.63,5.02-2.72,7.41-6.74,14.82-10.29,30.49-12.48,46.52-2.84,3.5-5.59,4.21-8.48-.03-1.2-1.76-3.28-1.98-5.27-2.12Z" style="fill: #845e3c;"/>
  <path d="m229.91,117.07c.39-.35.77-.7,1.16-1.05-.39.35-.77.7-1.16,1.05Z" style="fill: #845e3c;"/>
  <path d="m67.92,258.97c7.43-.02,12.17,3.19,15.62,8.55,1.69,2.62,1.43,4.61-2.27,4.2-8.26-.92-16.55-.55-24.83-.69-3.03-.05-3.44-1.24-2.02-3.65,3.23-5.47,8.16-8,13.51-8.41Z" style="fill: #c9b77d;"/>
  <path d="m423.12,195.66c-.55-28.78-10.76-45.75-31.27-56.35-5.39-2.78-5.75-2.54-6.82,3.46-.78,4.38-1.41,8.79-2.13,13.19-1.45,8.88-10.14,12.52-17.41,6.96-8.72-6.67-17.12-13.77-25.65-20.69-6.85-5.56-13.71-11.11-20.54-16.7-8.43-6.91-7.03-16.49,3.12-20.57,17.44-7.01,34.93-13.91,52.45-20.72,4.58-1.78,9.58-2.64,13.77.66,4.39,3.45,4.67,8.41,3.56,13.63-1.2,5.65-1.99,11.38-3.18,17.03-.73,3.48,1.79,3.72,3.91,4.54,21.6,8.35,36.82,23.26,44.31,45.16,16.32,47.69-17.7,98.9-70.71,98.37-30.25-.3-52.26-15.37-66.06-42.28-2.63-5.13-1.33-10.13,2.95-12.51,4.72-2.63,10.41-.95,13.05,4.35,6.34,12.72,15.92,21.74,28.75,27.94,21.77,10.52,49.92,2.4,64.26-14.63,8.89-10.55,14.01-22.53,13.63-30.84Z" style="fill: #ffedac;"/>
</svg>