<?xml version="1.0" encoding="UTF-8"?>
<svg id="Layer_1" data-name="Layer 1" width="24" height="24" xmlns="http://www.w3.org/2000/svg" viewBox="0 0 172.98 170.81">
  <path d="m172.98,61.99c-.82,1.06-1.77,2.04-2.43,3.19-2.02,3.49-3.63,7.22-3.99,11.24-.31,3.48-.03,7.02,0,10.54,0,.54.05,1.09.09,1.63.19,2.57.26,5.15.61,7.7.55,4.07-.26,7.87-2.02,11.48-.58,1.19-1.62,2.21-2.62,3.12-.98.9-2.18,1.56-3.26,2.36-.17.13-.33.47-.28.65.14.52.44.99.6,1.51.31,1,.77,2.01.81,3.04.09,2.16.33,4.36-.54,6.45-.37.89-.72,1.8-1.17,2.65-.61,1.13-1.31,2.21-1.98,3.31-.09.15-.17.3-.3.42-2.65,2.44-4.8,5.31-6.93,8.19-1.77,2.39-3.68,4.71-5.18,7.26-1.93,3.27-3.17,6.86-3.51,10.68-.17,1.93-.14,3.89-.19,5.83,0,.22,0,.45,0,.71-2.74-1.68-5.73-1.93-8.77-2.18-7.2-.6-13.62,1.83-20,4.71-3.64,1.64-7.29,3.37-11.29,4.02-2.01.33-4.09.53-6.08.01-1.41-.36-2.77-1.04-4.04-1.77-1.2-.7-2.26-1.65-3.4-2.5-1.3.97-2.47,2.07-3.84,2.81-1.37.74-2.83,1.45-4.47,1.52-.09,0-.18-.01-.26,0-3.23.68-6.26-.34-9.32-1.07-.46-.11-.89-.39-1.34-.57-1.7-.68-3.39-1.35-5.09-2.03-.21-.08-.44-.14-.64-.25-4.36-2.55-9.13-3.96-14.05-4.78-3.59-.6-7.23-.3-10.78.53-1.38.32-2.7.86-4.13,1.32-.01-.27-.06-.59-.04-.92.19-3.29-.23-6.52-1-9.71-.16-.66-.39-1.32-.65-1.95-1.29-3.13-2.86-6.09-4.93-8.81-2.31-3.03-4.65-6.01-7.28-8.8-1.83-1.94-3.36-4.23-4.68-6.56-.91-1.62-1.49-3.44-1.8-5.39-.44-2.79.81-5.12,1.14-7.82-.98-.7-2.12-1.55-3.29-2.36-1.59-1.1-2.69-2.57-3.63-4.26-1.86-3.33-2.4-6.84-2.03-10.58.31-3.19.51-6.39.69-9.59.16-2.8.26-5.6.34-8.41.07-2.53-.74-4.91-1.4-7.3-.28-1.01-.69-2.01-1.18-2.95-1.08-2.07-2.24-4.09-3.47-6.31.12-.36.55-.55,1.24-.61,2.09-.16,3.95-1.1,5.8-2.01,5.07-2.48,8.68-6.56,11.89-11.04,1.45-2.02,2.71-4.18,4.02-6.3,1.77-2.86,3.72-5.59,6.15-7.92,3.63-3.49,7.96-4.86,12.95-4.09.22.03.44.03.7.05.09-.37.2-.7.24-1.03.18-1.9.98-3.57,1.89-5.2.15-.27.36-.51.56-.75.85-.97,1.7-1.93,2.56-2.88.17-.18.39-.32.61-.46,3.65-2.4,7.72-3.63,11.95-4.55,3.52-.77,7.06-1.56,10.44-2.79,4.89-1.77,9.5-4.16,12.9-8.33.83-1.02,1.64-2.06,2.43-3.12.19-.26.23-.62.36-.99.69.27,1.46.39,1.78,1.36.21.64.78,1.18,1.23,1.73.7.86,1.4,1.75,2.17,2.54,2.01,2.07,4.25,3.81,6.99,4.86,2,.76,3.88,1.89,5.93,2.47,4.4,1.24,8.9,2.16,13.31,3.34,4.22,1.13,7.94,3.17,10.45,6.88,1.2,1.77,2.15,3.72,2.36,5.93.02.17.09.33.13.48.9-.04,1.78-.06,2.66-.13,1.66-.13,3.25.2,4.82.68.32.1.63.25.92.43.44.26.86.58,1.29.85.75.46,1.71.75,2.23,1.39,2.18,2.68,4.62,5.14,6.29,8.24,3.13,5.8,6.84,11.2,11.91,15.5,1.38,1.17,3.02,2.09,4.65,2.89,2.28,1.11,4.61,2.15,7.16,2.55ZM34.64,161.52c.18-.03.32-.04.45-.08,2.51-.77,5.06-1.18,7.7-1.09,1.89.06,3.81-.17,5.66.12,3.85.6,7.59,1.62,11.09,3.47,2.22,1.17,4.55,2.17,6.91,3.01,2.55.91,5.17,1.69,7.81,2.27,1.38.3,2.9.23,4.32.02,2.69-.4,5-1.76,7.08-3.48.45-.38.79-.89,1.08-1.23,1.79,1.17,3.72,2.43,5.64,3.7,1.31.87,2.8,1.14,4.31,1.25,3.08.23,5.95-.82,8.75-1.82,3.74-1.33,7.36-2.99,10.98-4.64,6.21-2.82,12.68-3.25,19.32-2.31,1.15.16,2.28.42,3.47.64.02-.22.03-.44.06-.66.2-1.93.3-3.88.63-5.79.24-1.43.75-2.82,1.18-4.21.86-2.76,2.12-5.37,3.86-7.63,3.24-4.22,6.78-8.21,10.08-12.4,1.28-1.63,2.44-3.42,3.3-5.3,1.1-2.39,1.05-5.03.61-7.58-.31-1.8-.67-3.64-2.09-5.13.4-.02.66,0,.9-.05.25-.05.49-.15.71-.28,4.58-2.68,7.41-6.53,7.49-11.96.05-3.23-.17-6.47-.44-9.68-.39-4.59-.96-9.13-.38-13.78.34-2.75,1.16-5.3,2-7.85.63-1.92,1.93-3.62,2.93-5.42.15-.26.28-.53.31-.59-2.38-1.11-4.86-1.91-6.92-3.32-2.53-1.72-5.05-3.68-6.99-6.02-2.93-3.53-5.5-7.4-7.97-11.28-2.11-3.32-4.13-6.67-7.16-9.26-.5-.42-1.01-.95-1.6-1.12-1.94-.57-3.83-1.34-5.94-1.17-1.33.11-2.67.02-4.01.02-.16-.8-.31-1.47-.43-2.14-.48-2.8-1.88-5.13-3.8-7.14-1.15-1.21-2.57-1.98-4.18-2.56-2.27-.81-4.52-1.62-6.88-2.11-4.9-1.03-9.69-2.39-14.39-4.15-3.74-1.4-6.63-4.04-9.63-6.5-1.28-1.05-2.24-2.49-3.37-3.78-.07.08-.2.19-.29.32-1.7,2.35-3.83,4.2-6.11,5.98-2.58,2.02-5.33,3.7-8.39,4.77-2.85,1-5.8,1.72-8.73,2.49-3.37.89-6.85,1.32-10.08,2.77-1.97.88-3.89,1.84-5.4,3.36-2.33,2.35-3.67,5.27-4.35,8.5-.08.39-.01.81-.01,1.06-.78-.27-1.45-.68-2.13-.7-1.3-.05-2.6.21-3.91.19-1.88-.03-3.41.85-4.92,1.75-2.39,1.42-4.15,3.53-5.72,5.75-3.08,4.38-6.02,8.85-9.03,13.29-.16.24-.32.48-.51.69-2.48,2.73-5.29,5.08-8.33,7.14-.96.65-2.03,1.18-3.11,1.62-1.3.54-2.66.94-4.03,1.41.37.53.8.98,1.05,1.51,1.1,2.42,2.39,4.78,3.16,7.31.79,2.55,1.29,5.19,1.26,7.94-.04,3.39-.29,6.75-.65,10.11-.17,1.62.02,3.28-.22,4.88-.46,3.14-.35,6.18.53,9.25.97,3.36,3.02,5.75,5.94,7.52,1.05.64,2.29,1.04,2.87,1.95-.38.49-.8.81-.95,1.24-.79,2.16-.98,4.38-.78,6.69.21,2.5,1.13,4.61,2.47,6.66,1.78,2.72,3.84,5.18,6.03,7.57,3.07,3.36,6.14,6.75,8.14,10.92.89,1.86,2.02,3.67,2.48,5.64.69,2.9,1.47,5.85,1.19,8.9-.01.16.03.33.05.53Z"/>
  <path d="m47.46,35.4c.27-1.03.51-2,.77-2.96.92-3.42,2.34-6.46,5.71-8.19,3.02-1.55,6.17-2.73,9.5-3.31,3.77-.66,7.34-1.92,10.92-3.22,4.85-1.77,8.98-4.5,12.27-8.48.18-.21.37-.42.63-.71.27.31.49.56.7.82,1.94,2.32,4.05,4.43,6.86,5.73,1.39.65,2.62,1.69,4.06,2.2,4.77,1.67,9.58,3.23,14.57,4.23,2.11.42,4.07,1.58,6.15,2.23,1.99.62,2.91,2.33,4.07,3.76.64.78.94,1.86,1.29,2.85.49,1.4.9,2.83,1.27,4.26.13.5.41.53.81.53,1.32,0,2.64-.06,3.95.01,1.39.07,2.8.15,4.15.46.82.18,1.57.75,2.29,1.24.61.41,1.15.93,1.71,1.42.35.3.74.57,1,.94,1,1.4,2.07,2.76,2.9,4.25,2.87,5.16,6.3,9.93,10.31,14.23,1.97,2.12,4.43,3.8,7.11,5.04,1.03.48,2.03,1,3.09,1.53-.13.26-.17.41-.25.5-2.19,2.45-3.12,5.42-3.5,8.6-.24,1.99-.63,3.98-.6,5.96.03,2.54.5,5.07.63,7.61.21,4.06.36,8.13.41,12.19.03,2.44-1.07,4.62-2.58,6.41-1.16,1.37-2.81,2.31-4.27,3.42-1.85,1.41-1.81,1.38-1.14,3.59.56,1.85,1.11,3.72,1.4,5.63.14.89-.35,1.87-.56,2.81-.05.22-.2.42-.24.64-.54,2.67-2.25,4.64-3.91,6.65-3.1,3.75-6.25,7.48-9.21,11.34-1.13,1.47-1.86,3.27-2.66,4.97-1.36,2.86-1.71,5.98-2.17,9.06-.13.87-.55.85-1.16.72-2.42-.5-4.87-.65-7.34-.63-2.22.02-4.32.54-6.37,1.27-4.03,1.46-8.01,3.08-12.06,4.5-3.02,1.05-6.08,1.98-9.18,2.79-2.58.68-5.01-.08-7.19-1.51-1.5-.99-2.9-2.14-4.42-3.28-1.28.98-2.61,2.01-3.95,3.03-1.36,1.04-2.86,1.66-4.6,1.59-.49-.02-.98-.04-1.46,0-3.42.31-6.57-.65-9.64-2-2.25-.99-4.42-2.2-6.72-3.04-5.06-1.85-10.23-3.39-15.69-3.32-1.36.02-2.71.38-4.06.59-.17.03-.33.1-.5.13-1.38.2-1.44.07-1.54-1.32-.24-3.48-1.01-6.82-2.72-9.92-2.85-5.19-6.79-9.57-10.32-14.25-.24-.32-.53-.61-.84-.86-2.52-2.05-3.9-4.87-4.87-7.82-.45-1.36-.22-3.02-.03-4.51.21-1.69.75-3.34,1.09-5.02.04-.22-.12-.59-.31-.72-1.73-1.27-3.52-2.47-5.21-3.78-.62-.48-1.11-1.16-1.53-1.83-1.26-2.03-1.87-4.21-1.89-6.66-.05-5.34.31-10.65.69-15.96.15-2.07-.24-4.17-.22-6.25.04-3.89-1.71-7.17-3.37-10.5-.11-.22-.2-.46-.31-.71.13-.09.21-.19.31-.21,2.15-.35,3.89-1.63,5.76-2.6,1.83-.95,3.31-2.4,4.54-4.02,3.14-4.15,6.16-8.41,9.29-12.57,1.89-2.51,3.52-5.22,5.96-7.29.99-.84,2-1.51,3.29-1.88,2.99-.85,5.97-.91,9.11-.44Zm-17.6,72.11c-.31,1.3-.62,2.75-.99,4.19-.93,3.66.53,6.8,2.52,9.59,1.97,2.76,4.44,5.16,6.62,7.77,2.04,2.44,3.86,5.04,5.08,8,.52,1.26.94,2.56,1.32,3.87.26.89.42,1.82.52,2.74.08.81.02,1.63.02,2.57.6-.16,1.03-.27,1.46-.4,1.83-.53,3.7-.91,5.59-.63,3.45.5,6.92.97,10.19,2.29.61.25,1.28.34,1.88.58.81.33,1.6.73,2.39,1.1.8.37,1.59.75,2.4,1.09.5.21,1.07.27,1.54.51,2.7,1.39,5.54,1.85,8.56,1.71,1.7-.07,3.12-.6,4.42-1.6,1.04-.79,2.05-1.62,3.08-2.44.7.58,1.31,1.09,1.93,1.59,2.04,1.64,4.37,2.98,6.96,2.68,2.74-.31,5.46-1.19,8.09-2.1,3.24-1.13,6.36-2.57,9.55-3.83,3.94-1.56,8.01-2.1,12.21-1.35.91.16,1.79.47,2.8.74,0-.83-.1-1.56.02-2.25.66-3.78,1.96-7.28,4-10.58,2.91-4.71,6.56-8.81,10-13.09.41-.5.78-1.08.99-1.68.38-1.11.75-2.24.9-3.4.22-1.77.2-3.53-.71-5.19-.45-.81-.69-1.74-1-2.56,1.5-.97,2.95-1.83,4.32-2.81,1.36-.97,2.29-2.32,2.76-3.92.95-3.29.55-6.66.44-10-.13-3.98-.54-7.95-.57-11.92-.03-3.92.77-7.68,3.34-10.84.07-.08.09-.2.11-.26-.72-.26-1.49-.39-2.08-.78-1.71-1.13-3.36-2.35-5-3.59-.72-.55-1.39-1.18-2.02-1.84-1.21-1.26-2.53-2.45-3.54-3.85-1.87-2.6-3.65-5.28-5.27-8.05-1.24-2.13-2.8-3.96-4.55-5.64-.3-.29-.68-.59-1.07-.67-1.5-.3-2.93-1.01-4.52-.8-.48.06-.97.02-1.46,0-.91-.03-2.05.24-2.65-.21-.56-.42-.63-1.6-.74-2.47-.22-1.73-1.09-3.19-1.99-4.56-.85-1.3-2.17-2.25-3.66-2.83-.72-.28-1.45-.52-2.19-.75-1.94-.58-3.88-1.18-5.83-1.71-1.98-.54-4.01-.92-5.98-1.52-1.25-.38-2.45-.96-3.62-1.56-2.1-1.08-4.24-2.12-6.2-3.43-1.38-.92-2.49-2.25-3.75-3.42-.49.55-.88,1.17-1.44,1.58-1.44,1.06-2.59,2.49-4.27,3.27-1.65.77-3.15,1.89-4.83,2.57-4.57,1.86-9.43,2.74-14.18,3.97-.28.07-.59.08-.83.21-1.64.91-3.26,1.84-4.88,2.78-.21.12-.38.35-.53.55-1.17,1.61-2.11,3.32-2.5,5.31-.14.73-.4,1.43-.65,2.13-.07.19-.34.42-.52.43-.86.03-1.78.19-2.56-.06-1.36-.43-2.6.13-3.88.22-.8.05-1.74.25-2.35.73-1.45,1.15-2.95,2.34-4.04,3.81-2.8,3.73-5.31,7.68-8.08,11.44-2.93,3.97-6.45,7.26-11.48,8.79.35.86.7,1.76,1.08,2.64.24.55.68,1.04.78,1.6.34,1.78,1.21,3.42,1.13,5.33-.08,2.1.38,4.24.17,6.32-.43,4.43-.62,8.85-.65,13.3-.02,2.86,1.11,5.18,3,7.06,1.38,1.38,3.18,2.33,4.86,3.53Z"/>
  <path d="m101.06,63.99c.62.54,1.28,1.04,1.86,1.63,1.22,1.25,2.46,2.49,3.58,3.83.61.73,1.08,1.62,1.46,2.51.97,2.28,2.15,4.54,2.68,6.93.52,2.35.57,4.82.17,7.31-.58,3.54-1.27,7.02-3.33,9.99-1.66,2.38-3.36,4.8-5.95,6.32-2.02,1.18-4,2.53-6.17,3.31-2.09.75-4.4.86-6.62,1.25-.3.05-.6.05-1.09.09.66.54.88.97.25,1.49-.16.14-.25.45-.26.68-.02,1.95-.01,3.89-.01,6.1,1.73-3.02,4.13-4.95,7.38-5.94-.3.98-1.04,1.41-1.79,1.7-1.34.51-2.42,1.27-3.34,2.37-1.17,1.4-2.07,2.93-2.71,4.63-.07.18-.26.31-.3.37-.54-.93-.94-1.87-1.56-2.65-1.11-1.4-2.35-2.71-3.54-4.05-.02-.02-.03-.05-.06-.06-1.94-.79-3.72-2.11-6.08-1.14-1.96.8-4.06,1.27-6.08,1.93-.73.24-1.4.66-2.12.89-1.39.45-2.8.83-4.2,1.22-.68.19-1.38.34-2.06.52-.09.02-.2.13-.24.22-.51,1.42-1.01,2.84-1.57,4.42,1.2-.26,2.3-.36,3.27-.75,1.56-.63,3.18-.96,4.8-1.32.61-.14,1.15-.61,1.71-.94.78-.46,1.46-1.13,2.49-.98.17.03.38-.11.54-.22,1.53-.98,3.24-1.33,5.01-1.22.94.05,1.95.17,2.79.57.89.42,1.68,1.14,2.4,1.85,1.03,1.02,1.98,2.12,2.92,3.22.43.51.76,1.11,1.26,1.86v-2.49q.66-.03.66.78c0,.43,0,.85.07,1.32.6-1.7,1.91-2.72,3.29-3.7.38-.27.59-.77.93-1.12.56-.58,1.16-1.13,1.75-1.7.04-.04.09-.08.14-.09,1.48-.18,3.03-.69,4.42-.42,1.26.25,2.6.45,3.87,1.08,1.38.69,2.7,1.56,4.16,2.08.85.3,1.76.43,2.64.64.25.06.5.11.74.18,1.44.43,2.87.86,4.3,1.29.13.04.27,0,.54,0-.43-1.51-.82-2.93-1.24-4.34-.03-.1-.19-.22-.3-.24-.94-.18-1.89-.34-2.84-.51-.11-.02-.23-.01-.34-.05-2.26-.85-4.51-1.7-6.79-2.74.54-.02,1.13-.19,1.61-.03,1.77.59,3.5,1.33,5.27,1.92.91.3,1.87.52,2.82.58.79.05,1.09.35,1.27,1.07.37,1.46.82,2.9,1.3,4.54.53-.77.98-1.42,1.53-2.21.27.98.5,1.83.72,2.62.85-.08,1.74-.16,2.8-.26-.09.52-.1.88-.21,1.21-.34.98-.29,1,.77,1.09.83.07,1.64.31,2.43.64-1.15.24-2.31.47-3.46.71,0,.07.02.15.03.22,2.09.56,4.18-.18,6.28-.22.06.09.12.18.18.26-.61.6-1.24,1.17-1.81,1.8-.8.88-1.61,1.76-2.27,2.74-.16.24.16.96.45,1.29.81.92,1.74,1.75,2.59,2.64.48.51.9,1.07,1.47,1.76-.47.14-.94.39-1.42.4-2.21.04-4.41.04-6.62,0-.53,0-1.05-.18-1.69-.3,0,.72-.02,1.42,0,2.13.02.6-.26.88-.83,1.06-1.03.31-2.02.72-3.04,1.07-1.64.56-3.27.48-4.95.04-2.72-.72-5.5-1.25-8.23-1.95-1.82-.47-3.59-1.09-5.38-1.64-.08-.03-.16-.07-.24-.08-1.35-.13-2.71-.23-4.06-.38-.73-.08-1.47-.37-2.18-.32-1.69.13-3.38.41-5.07.61-.76.09-1.56,0-2.3.19-3.51.89-7,1.83-10.5,2.78-1.12.3-2.2.87-3.33.98-1.36.14-2.77.04-4.12-.19-1.23-.21-2.39-.78-3.6-1.11-.57-.16-.79-.44-.78-.99.01-.74,0-1.48,0-2.01-1.73.04-3.4.18-5.06.1-1.61-.08-3.31.47-5.05-.49,1.83-1.84,3.52-3.54,5.33-5.37-1.64-1.6-3.27-3.19-4.9-4.77.03-.08.06-.16.1-.24,1.9.15,3.81.3,5.71.46,0-.06.01-.12.02-.17l-3.72-1.52c.02-.1.04-.2.06-.3,1.34-.12,2.67-.27,4.01-.35,1.36-.07,2.33,1.05,3.68,1.33-1.73-1.96-1.05-3.86,0-5.82.33.31.64.6,1,.94.39-1.1.79-2.16,1.15-3.23.16-.48.46-.62.95-.79,1.39-.48,2.85-.7,4.25-1.17,1.71-.57,3.33-1.43,5.11-1.82,1.26-.27,2.46-.82,3.69-1.24,1.41-.47,2.89-.96,4.32-.55,1.29.37,2.63.99,3.64,1.85,1.48,1.26,2.68,2.83,4.01,4.28v-8.48c-12.02-1.05-19.47-7.64-22.16-19.09-2.25-9.57,2.54-19.45,9.44-23.84-.23.37-.38.6-.52.83-1.1,1.74-2.37,3.39-3.24,5.24-.68,1.43-.88,3.1-1.27,4.67-.62,2.48,0,4.89.57,7.26.94,3.86,2.62,7.3,5.98,9.68,1.55,1.1,2.82,2.66,4.73,3.19,1.87.53,3.61,1.55,5.69,1.39.65-.05.7-.2.67-.71-.05-1-.06-2-.07-3,0-.64.02-1.29.01-1.93-.03-3.74-.06-7.49-.1-11.23,0-.08-.05-.16-.08-.28-.83.12-1.15-.19-1.15-1.09,0-.46-.51-.91-.84-1.44.04.02-.01-.02-.06-.02-1.71-.09-1.7-.09-1.8-1.86-.19-3.46-.4-6.92-.59-10.38-.02-.33-.23-.77.39-.86.61-.09.71.3.79.75.3,1.6.62,3.2.93,4.81.23,1.19.48,2.38.67,3.57.08.52.26.73.82.72,1.54-.04,3.09-.01,4.83-.01-.03-.59-.05-1.13-.07-1.66,0-.14,0-.28.04-.41.57-2.4,1.13-4.8,1.73-7.18.06-.23.43-.37.66-.55.15.22.45.44.44.65-.21,3.95-.44,7.89-.71,11.83-.01.21-.37.49-.62.56-.37.09-.78.02-1.18.02.05.08.1.16.15.24-.28.29-.57.58-.84.89-.08.1-.15.26-.13.39.14.91-.34,1.16-1.22,1.05-.03.48-.07.89-.08,1.31-.03,2.26-.08,4.53-.08,6.79,0,.84.2,1.67.19,2.51-.01.9-.18,1.79-.25,2.68-.02.18.03.38.07.56.05.24.2.47.19.7-.05.89-.14,1.78-.23,2.76,1.41-.42,2.97,0,4.42-.76.99-.52,2.26-.57,3.18-1.16,3.22-2.07,6.26-4.43,8.05-7.91,2.15-4.18,2.87-8.62,1.92-13.31-.69-3.36-2.17-6.29-4.37-8.89-.12-.14-.08-.42-.12-.63l-.02-.02Zm-18.51,54.45c.76.86,1.53,1.71,2.29,2.57.09-.09.18-.18.27-.27-.84-.78-1.68-1.56-2.52-2.33-.42-1.46-1.9-1.83-2.91-2.64-.66-.52-1.81-.47-2.75-.6-.8-.11-1.54.24-2.3.4-.9.18-1.68.43-2.41.94-.09.06-.21.13-.32.12-1.34-.13-2.19.84-3.22,1.4-.37.2-.74.45-1.14.55-1,.24-2.04.34-3.04.61-1.42.38-2.83.84-4.22,1.33-.32.11-.55.49-.83.75.08.11.15.22.23.33,1.43-.43,2.86-.86,4.29-1.29.27-.08.53-.25.8-.28,1.87-.22,3.62-.75,5.16-1.9.37-.27.86-.38,1.31-.54.44-.16.9-.29,1.34-.44,1.06-.35,2.1-.94,3.17-.99,1.41-.07,2.84.28,4.26.46.05,0,.1.05.15.08.79.59,1.58,1.18,2.37,1.76Zm27.6,13.83c-.4-.37-.76-.96-1.23-1.06-.43-.09-.96.35-1.38.53-.07-.23-.17-.59-.27-.95-.1.02-.2.04-.3.06l-.41,2.74c-.32-.84-.48-1.7-.68-2.55-.06-.25-.19-.61-.39-.69-.59-.25-1.23-.39-1.88-.59-.33.92-.64,1.79-.95,2.66-.11-.82-.16-1.61-.1-2.4.05-.65-.2-.97-.9-1.03-.25,1.43-.5,2.87-.76,4.32-.23-1.43-.34-2.85-.42-4.27-.03-.47-.14-.77-.71-.7-.41.92-.83,1.85-1.21,2.71,0-.64.05-1.29-.01-1.94-.07-.76-.28-1.61-1.13-1.72-.51-.06-1.09.39-1.65.61-.35-.85-.89-1.16-2.33-1.12-.18,1.52-.36,3.04-.57,4.79-.68-1.83-1.58-3.44.27-4.86-.76-.53-.98-.04-1.25.37-.25.38-.5.75-.76,1.12-.13-.58-.08-1.06-.1-1.55,0-.13-.21-.26-.32-.39-.09.12-.24.23-.26.36-.09.7-.15,1.41-.22,2.06-.07-.4-.11-.86-.23-1.3-.16-.61-.47-1.13-1.2-1.16-.72-.03-1.17.45-1.29,1.05-.18.91-.29,1.86-.24,2.79.04.67.33,1.39,1.16,1.51.85.12,1.21-.48,1.51-1.14.03-.06.08-.09.18-.2,0,.2-.02.32,0,.42.07.27.16.53.24.8.14-.26.31-.51.41-.78.15-.43.25-.88.38-1.32.72,1.03.35,2.75,2.33,2.48.09-.65.18-1.29.28-2.02,1.11.57.39,2.23,1.85,2.72-.25-.98-.45-1.74-.65-2.55.17-.1.35-.21.58-.34.03,1.07-.14,2.22.96,2.79.38.19.96-.01,1.42-.03.03.07.11.3.2.52.31-.26.61-.53,1.07-.92.26.25.84.56.83.86-.03,1,.57,1.1,1.35,1.22.17-.92.33-1.81.49-2.7.1.82.07,1.62.11,2.42.01.24.18.48.28.72.17-.18.4-.34.49-.56.25-.59.44-1.21.65-1.82.03.75-.12,1.45-.19,2.16-.02.23.1.6.27.68.47.22,1,.33,1.54.49.16-1.03.29-1.93.43-2.82.24.61.31,1.25.51,1.83.17.51-.13,1.33.86,1.47.09-.44.16-.84.27-1.41.2.52.29.9.48,1.24.48.86,1.49.93,2.03.13.23-.35.43-.77.47-1.18.08-.84.05-1.7.06-2.55.27-.02.53-.04.83-.06v4.25c.14.02.29.05.43.07.45-1.37.06-2.89.35-4.3.6,0,1.09-.1.74-.95-.47,0-.95.04-1.42,0-.81-.08-1.12.23-.91,1.02Zm.89-10.14c-.77-.15-1.54-.27-2.3-.45-.58-.13-1.15-.33-1.73-.48-1.21-.31-2.45-.5-3.62-.92-1.81-.65-3.6-1.26-5.48-1.73-1.71-.43-3.2.16-4.8.18-.14,0-.29.16-.42.27-.99.75-1.98,1.5-2.97,2.26-.8.61-1.42,1.35-1.63,2.44,1.29.13,2.51.21,3.71.4,1.89.3,3.76.67,5.64,1.01.08.02.16.05.24.08.84.26,1.68.55,2.53.79,2,.56,3.99,1.13,6.01,1.63,1.07.27,2.18.4,3.38.6,0-1.6,0-2.94,0-4.28,0-1.06.38-1.5,1.45-1.8Zm-46.05,6.15c1.67-.35,3.22-.58,4.73-1,2.61-.72,5.19-1.54,7.78-2.31.3-.09.61-.12.92-.17.7-.12,1.39-.24,2.09-.35.81-.13,1.62-.25,2.43-.36.88-.12,1.77-.22,2.77-.35-.18-.3-.24-.42-.32-.53-1.3-1.63-2.87-2.89-4.71-3.91-1.36-.75-2.77-.87-4.21-.97-.54-.03-1.11.19-1.65.35-1.64.48-3.28.98-4.91,1.5-.54.17-1.03.51-1.57.63-.93.21-1.9.27-2.84.48-.7.15-1.38.44-2.05.66.03.13.03.17.05.19.09.06.18.14.28.18,1.04.36,1.3,1.13,1.24,2.16-.07,1.16-.02,2.34-.02,3.81Zm10.47.88c-.35-.17-.87-.64-1.17-.52-.53.2-.93.75-1.37,1.14-.25-.64-.84-.5-1.54-.27-1.05.35-2.11.74-3.2.87-.56.07-.74.13-.77.67-.06.95-.16,1.9-.24,2.84-.06,0-.12,0-.18,0-.35-1.01-.7-2.03-1.04-3.02-.69.08-1.3.15-1.99.23-.07.85-.14,1.79-.21,2.72-.35-.74-.64-1.47-.77-2.22-.16-.89-.65-1.19-1.53-1.13-.03.21-.06.43-.08.65-.08.94-.12,1.89-.25,2.82-.03.22-.32.4-.48.6-.2-.19-.46-.34-.57-.57-.1-.21-.06-.51-.05-.76.05-.89.13-1.77.15-2.66,0-.23-.21-.45-.33-.68-.09.03-.18.07-.27.1-.07.88-.15,1.76-.21,2.64-.03.46-.12.96.02,1.36.17.5.47,1.1.89,1.33.36.2.97-.06,1.45-.12.1.14.27.4.45.65.07-.04.14-.09.22-.13.05-.85.11-1.69.16-2.54.36.57.55,1.15.72,1.74.36,1.22.36,1.22,1.01,1.19.09-1.42.17-2.84.26-4.26.15,1.09.2,2.18.31,3.26.04.4.24.78.37,1.18.1-.39.28-.79.28-1.17-.02-1.11-.12-2.22-.19-3.34.59,1.1.96,2.24,1.39,3.35.1.27.37.47.57.7.15-.27.39-.52.43-.81.14-1.09.22-2.19.32-3.28.06,0,.12,0,.18,0,.19,1.3.38,2.6.59,4,.84-.26,1.56-.54,2.3-.69.67-.14.71-.5.61-1.05-.09-.45-.12-.9-.17-1.36.11-.04.21-.09.32-.13.45.58.91,1.17,1.38,1.78.3-.13.63-.41.88-.36.91.18,1.4-.27,1.72-.91.21.13.4.25.59.37.06-.22.2-.44.18-.65-.1-.91-.22-1.82-.38-2.72-.11-.62.08-.93.83-.87.18,1.34.37,2.69.55,4.03.65.15.64-.19.58-.62-.16-1.21-.31-2.43-.46-3.63.34-.14.59-.24.9-.37-.06-.28-.11-.51-.15-.69-.96.13-1.85.23-2.73.39-.14.03-.3.28-.34.45-.04.21.04.44.04.46Zm7.07-52.82h9.17c.08-1.47.16-2.83.23-4.18-1.39-.3-1.42-.29-1.67.97-.1.53-.31.77-.9.76-1.52-.04-3.04-.04-4.55,0-.56.01-.75-.23-.84-.72-.25-1.29-.33-1.33-1.68-.99.08,1.38.16,2.77.24,4.17Zm31.52,45.17c.07-.66-.13-.91-.68-.99-.81-.11-1.62-.28-2.41-.5-1.72-.47-3.46-.89-5.12-1.52-1.58-.6-3.17-1.29-4.58-2.21-1.19-.78-2.54-.75-3.78-1.04-1.18-.27-2.53.26-3.81.45-.07.01-.15.08-.21.14-.66.66-1.3,1.33-1.97,1.98-.4.4-.82.78-1.25,1.15-.9.76-1.9,1.44-2.11,2.74,1.33-1.24,2.59-2.55,3.88-3.83.45-.45.9-1.02,1.47-1.22.94-.33,1.97-.53,2.96-.54.91-.01,1.82.41,2.73.42,1.73.01,3.06,1.05,4.56,1.64.9.35,1.69.97,2.6,1.29,1.38.49,2.81.86,4.23,1.23,1.14.3,2.29.53,3.5.81Zm-33.59,10.05c.1.24.15.5.3.7.11.14.33.27.51.28.35.01.73,0,1.04-.13.41-.18.92-.41,1.12-.77.64-1.15.05-2.27-1.21-2.6-.24-.06-.5-.25-.65-.45-.06-.08.15-.5.27-.52.22-.03.46.14.69.21.17.05.34.06.52.09.02-.15.12-.36.06-.45-.24-.32-.57-.85-.81-.83-.43.04-1.01.34-1.21.7-.58,1.02.03,2.05,1.22,2.36.25.07.59.32.62.53.03.23-.24.51-.37.77-.24-.14-.48-.29-.73-.4-.24-.1-.5-.16-.83-.26-.31-.88-.63-1.85-1-2.81-.06-.17-.27-.35-.44-.39-.11-.02-.38.19-.4.33-.25,1.68-.46,3.37-.69,5.06.07.04.14.08.21.12.16-.17.47-.34.47-.51.01-.85.51-1.05,1.33-1.03Zm6.04-52.17v9.71c.87-.35,1.18-.85,1.18-1.69-.02-2.46.05-4.92.08-7.37,0-.22-.04-.44-.06-.64h-1.2Zm29.04,54.62c-.11-.71-.15-1.2-.26-1.66-.15-.6-.4-1.18-1.13-1.22-.78-.04-1.21.48-1.43,1.14-.38,1.12-.39,2.27.08,3.36.16.36.61.8.95.82.4.02.99-.28,1.19-.62.35-.59.46-1.32.61-1.81Zm-29-4.17c-.08.22-.09.37-.18.48-.2.24-.43.45-.65.67-.19-.26-.49-.49-.55-.77-.1-.55-.14-1.14-.06-1.69.05-.35.3-.74.58-.94.12-.08.55.28,1.02.53.05-.23.21-.53.14-.76-.26-.89-1.14-1.07-1.79-.4-.86.89-.92,3.67-.1,4.61.44.5.93.5,1.44.12.5-.38.81-1.38.53-1.73-.06-.07-.2-.07-.38-.13Zm2.37-51.94h-3.65v1.09c1.01,0,1.94,0,2.88,0,.96,0,.99-.04.77-1.09Zm-2.12,38.86c.1,0,.2.01.3.02v-7.52c-.24.21-.41.49-.41.77-.01,2.06,0,4.12.02,6.18,0,.18.06.37.09.55Zm-2.22-39.98c-.03.14-.06.27-.09.41.34.11.68.29,1.03.3,1.2.04,2.4.04,3.59,0,.23,0,.45-.24.67-.37-.21-.11-.42-.32-.64-.33-.94-.04-1.88-.02-2.82-.02-.58,0-1.16,0-1.74,0Zm7.83-12.67c-.13-.02-.26-.04-.39-.06-.28,1.42-.56,2.84-.85,4.3h1.01c.08-1.44.16-2.84.23-4.24Zm-10.2-.05c-.13.02-.26.04-.39.05.08,1.42.16,2.83.24,4.3.38-.02.66-.03,1-.05-.29-1.48-.57-2.89-.85-4.3Zm9.79,6.59c-1.6-.14-1.62-.14-1.69.98h1.69v-.98Zm-8.35.98v-.99h-1.43v.99h1.43Zm4.18,30.77c-.47.48-1.5.36-1.16,1.39.5-.33,1.35-.36,1.16-1.39Zm3.63-32.64c.28-.3.43-.47.59-.64-.17-.13-.34-.36-.5-.35-.21,0-.42.21-.63.32.14.18.29.35.55.67Zm-3.64,20.51c-.55.41-1.4.54-1.49,1.67.63-.63,1.44-.79,1.49-1.67Zm-4.79-20.67l.23-.42c-.26-.14-.52-.3-.79-.41-.03-.01-.18.27-.27.42.28.14.55.28.83.41Zm3.59,37.58c.09.08.18.16.26.24.38-.33,1.05-.41.8-1.27-.36.34-.71.69-1.07,1.03Zm-.13-8.47c.48-.37.96-.74,1.43-1.11-.05-.06-.1-.13-.15-.19-.51.33-1.28.35-1.28,1.3Zm1.42-4.72c-.06-.06-.12-.12-.18-.18-.47.38-.94.75-1.41,1.13.06.06.11.13.17.19.48-.37,1.27-.38,1.43-1.14Z"/>
  <path d="m87.42,118.53c.99-1.7,2.32-3.12,3.97-4.18,1.32-.84,2.38-1.89,3.1-3.26,1.26-2.4,3.34-4.03,5.37-5.82.1.13.22.28.5.66.36-.78.63-1.43.96-2.06.17-.33.38-.74.68-.87,3.79-1.67,7.58-3.35,11.42-4.91,1.39-.57,2.94-.75,4.36-1.26,2.76-.99,5.49-2.09,8.22-3.14-.34.76-.71,1.63-1.13,2.47-.06.12-.34.14-.5.21-.6.28-1.28.46-1.78.86-1.78,1.44-3.5,2.96-5.72,3.72-.69.23-1.4.38-2.11.56,0,.08,0,.16,0,.24.61.06,1.21.11,1.89.17-1.4,1.91-3.22,2.72-5.57,2.42v.37c.58.22,1.17.43,1.91.7-3.26,1.53-5.92,3.97-9.58,4.36.04.12.07.24.11.36.71-.11,1.43-.21,2.14-.32.04.09.08.18.12.28-.87.43-1.7.95-2.61,1.26-2.03.69-4.09,1.31-6.16,1.87-1.04.28-2.14.37-3.21.56-.27.05-.59.1-.78.26-1.11.94-2.19,1.93-3.29,2.88-.7.61-1.43,1.19-2.15,1.78-.06-.06-.11-.12-.17-.17Zm26.22-17.23c-.02-.07-.04-.14-.06-.21-.29.06-.59.09-.85.2-3.21,1.36-6.47,2.61-9.59,4.15-1.85.92-3.4,2.41-5.2,3.45-1.4.81-2.53,1.87-3.6,3.01-.32.34-.44.86-.65,1.29.11.08.22.17.33.25,5.8-5.27,12.68-8.76,19.63-12.14Zm3.17-2.64c.66.74,2.24.33,3.13-.78-.99.25-1.98.49-3.13.78Z"/>
  <path d="m124,60.01c-.85-.08-1.62-.12-2.38-.25-.44-.08-.81-.28-.86-.87-.06-.83-1.04-1.68-1.77-1.66-.69.02-1.48.83-1.52,1.53-.01.21-.04.42-.08.84-.24-.5-.48-.8-.51-1.12-.1-1.1-.75-1.34-1.7-1.26-.91.07-.96.77-1.07,1.68-.32-.6-.51-1-.73-1.38-.19-.32-.37-.65-.63-.9-1.25-1.19-2.71-2.09-4.12-3.08-1.88-1.31-4.07-1.87-6-3.04-1.18-.71-2.59-1.03-3.9-1.52-.37-.14-.8-.18-1.13-.39-1.53-.96-3.08-1.92-4.54-2.98-1.1-.8-2.1-1.74-3.13-2.61.13-.3.23-.47.27-.65.13-.57.4-.63.84-.28,1.25.99,2.5,1.96,3.75,2.94.13.1.27.22.43.28,1.84.7,3.67,1.39,5.52,2.06.23.09.51.04.76.09.74.15,1.47.32,2.21.5.14.03.26.15.39.17,1.91.28,3.83.54,5.75.81.08.01.18-.02.26,0,3.07,1.12,6.52,1.07,9.29,3.17,2.29,1.73,3.82,3.88,4.43,6.68.09.43.14.88.2,1.24Z"/>
  <path d="m84.07,41.89c.22.39.38.68.59,1.06-1.08.88-2.14,1.8-3.26,2.63-1.37,1.01-2.74,2.03-4.21,2.86-1.08.61-2.34.9-3.5,1.39-1,.41-1.97.89-2.95,1.34-.49.23-.96.52-1.46.71-.98.38-1.89.84-2.81,1.36-1.28.72-2.38,1.59-3.52,2.48-.94.74-1.69,1.49-2.17,2.55-.07.15-.18.28-.3.47-.17-.23-.39-.41-.45-.64-.25-.94-.97-.93-1.7-.86-.7.06-.71.69-.9,1.17-.13.35-.29.68-.4.96-.35-.64-.62-1.25-.99-1.79-.13-.19-.46-.26-.72-.33-.91-.26-1.22.41-1.51,1.04-.17.37-.18.92-.46,1.13-.46.35-1.07.52-1.63.72-.33.12-.69.16-1.16.26.1-1.35.3-2.71.94-3.95,1.24-2.41,3.05-4.34,5.51-5.45,1.51-.68,3.21-.92,4.84-1.33.3-.08.66.05.93-.06,2.42-.94,4.98-1.1,7.5-1.45.39-.05.76-.24,1.13-.37.24-.09.48-.27.72-.27,2.62-.03,4.84-1.42,7.19-2.28,1.6-.59,2.92-1.97,4.36-3,.11-.08.22-.18.39-.32Z"/>
  <path d="m85.02,43.21c.85,1.46.03,2.58-.75,3.67-1.01,1.4-2.03,2.8-3.12,4.14-.44.54-1.04.97-1.64,1.34-1.42.86-2.91,1.6-4.32,2.48-.76.48-1.4,1.17-2.1,1.75-.72.59-1.46,1.16-2.33,1.85-.04-.08-.14-.21-.16-.34-.16-.9-.83-.98-1.5-.83-.68.15-1.09.68-1.13,1.4-.04.59,0,1.19,0,1.79-.1.04-.19.08-.29.12-.13-.23-.35-.44-.38-.68-.06-.45.12-.98-.05-1.36-.22-.49-.62-1.05-1.08-1.24-.55-.22-1.28-.15-1.48.7-.16.69-.34,1.38-.58,2.38-.12-1.65-.2-3.14-2.28-3.21.29-.28.5-.5.73-.69.57-.47,1.12-.96,1.72-1.39.52-.38,1.08-.7,1.62-1.05.43-.27.87-.53,1.3-.8.31-.19.62-.39.95-.55,1.18-.56,2.36-1.13,3.56-1.65.81-.36,1.63-.67,2.47-.97,1.52-.55,3.06-1.02,4.33-2.14.75-.66,1.75-1.04,2.56-1.63,1.33-.97,2.61-2.02,3.97-3.09Z"/>
  <path d="m89.55,43.19c1.2,1.03,2.32,2.04,3.5,2.98.55.44,1.21.73,1.83,1.08.15.08.36.09.47.2,1.78,1.86,4.3,2.14,6.5,3.1,1.72.75,3.46,1.49,5.12,2.37,1.3.69,2.57,1.48,3.73,2.4.66.52,1.05,1.38,1.73,2.03-1.28-.62-1.62.65-2.29,1.55-.21-.4-.42-.64-.48-.92-.23-.99-1.03-.87-1.61-.69-.61.2-1.17.68-1.12,1.51.03.54,0,1.09-.18,1.62-.18-.66-.29-1.35-.55-1.97-.19-.45-.5-1.03-.88-1.16-.67-.22-1.44-.12-1.7.8-.01.04-.08.07-.08.07-.85-.76-1.61-1.63-2.54-2.24-1.14-.75-2.47-1.23-3.63-1.96-.87-.54-1.61-1.3-2.41-1.96-.13-.11-.25-.24-.4-.31-1.27-.65-2.21-1.61-2.84-2.88-.04-.08-.07-.17-.13-.22-1.41-1-1.84-2.64-2.66-4.02-.22-.37-.31-.65.17-.89.18-.09.3-.32.45-.48Z"/>
  <path d="m74.72,60.05c-.08-1.2-.16-2.37-1.62-2.96.89-.85,1.73-1.65,2.84-2.19,1-.49,1.88-1.21,2.82-1.81.6-.39,1.25-.7,1.83-1.12.4-.29.72-.7,1.06-1.06.13-.14.22-.34.36-.48,1.73-1.66,3.05-3.58,3.81-5.93.54.08.89.09.77.9-.37,2.56-1.82,4.57-3.14,6.65-.56.88-1.23,1.7-1.89,2.51-.48.58-1.03,1.1-1.53,1.66-.78.87-1.63,1.71-1.77,3.05-.15-.42-.3-.85-.45-1.27-.19-.54-.56-.78-1.16-.79-.66-.01-1.19.12-1.39.82-.19.67-.36,1.34-.54,2.02Z"/>
  <path d="m84.01,38.04c.44-1.32.75-2.41,1.16-3.46.21-.53.08-.82-.35-1.14-.93-.7-1.83-1.45-2.97-2.36,1.2,0,2.16-.06,3.1.02.85.07,1.28-.16,1.47-1.06.23-1.11.66-2.18,1.06-3.45.43,1.39.82,2.61,1.17,3.83.14.49.36.69.89.67,1.08-.04,2.17-.01,3.53-.01-1.01.83-1.82,1.56-2.71,2.18-.65.45-.81.87-.49,1.62.4.93.66,1.93,1.07,3.16-1.29-1.01-2.36-1.86-3.47-2.73-1.1.88-2.17,1.72-3.45,2.74Z"/>
  <path d="m101.59,57.09c-1.82.37-1.94,1.69-2.24,2.98-.02-.4-.03-.8-.06-1.2-.07-1.04-.61-1.64-1.46-1.64-.84,0-1.44.57-1.48,1.42-.01.2-.02.39-.13.61-.18-.51-.34-1.03-.55-1.53-.14-.33-.31-.66-.55-.92-1.24-1.39-2.66-2.65-3.72-4.17-1.15-1.65-2.03-3.51-2.91-5.33-.32-.67-.33-1.49-.51-2.34.11-.07.3-.18.57-.34.23.4.53.77.65,1.19.29,1.03.86,1.85,1.65,2.55.25.22.47.51.63.8.64,1.2,1.55,2.09,2.73,2.77.64.37,1.09,1.05,1.71,1.45,1.16.74,2.41,1.35,3.58,2.08.72.45,1.35,1.03,2.08,1.6Z"/>
  <path d="m85.13,60.21c0-.49,0-.83,0-1.17,0-1.23-.67-1.8-1.89-1.84-.83-.03-.63.74-1.02,1.03-.18.13-.28.36-.41.55-.12-.17-.27-.33-.35-.52-.32-.7-.67-1.33-1.69-1,1.51-1.91,3.05-3.66,4.37-5.56,1.33-1.92,2.54-3.95,3.04-6.33v11.76c-1.98.09-1.15,2-2.05,3.08Z"/>
  <path d="m95.01,57.26c-2.47-.34-2.18,1.46-2.51,2.84-.04-.17-.14-.36-.09-.5.3-.95-.48-1.53-.88-2.16-.16-.25-1.28-.26-1.58.03-.52.5-1.09,1.17-.85,2.09.05.21-.04.46-.24.71-.03-.14-.09-.29-.07-.43.11-.99-.2-1.81-.88-2.53-.14-.14-.21-.41-.21-.62-.01-3.41,0-6.81,0-10.22,0-.08.05-.15.11-.35,1.17,4.54,4.06,7.85,7.22,11.15Z"/>
  <path d="m117.46,119.85c-.27-.82-.54-1.61-.81-2.45.57-.6,1.15-.72,1.84-.17.43.34.86.3,1.42.17.8-.19,1.84-.34,2.49,0,1.34.72,1.4,1.96.43,3.22.22.27.46.52.65.8.13.19.2.43.29.64-.28.09-.58.28-.84.25-.98-.11-1.96-.3-2.91-.45-.04-.11-.08-.17-.07-.21.61-1.65.46-1.88-1.27-1.87-.44,0-.89.04-1.24.05Z"/>
  <path d="m131.89,111.01c.33.02.59,0,.82.07.21.07.49.23.54.4.06.24.02.6-.13.78-.51.6-2.7.84-3.3.35-.24-.19-.41-.55-.47-.86-.2-1.04-.37-1.19-1.33-.83-.4.15-.77.37-1.21.59-.47-.6-.98-1.21-1.42-1.87-.08-.13.1-.63.25-.68.56-.19,1.07-.61,1.78-.23.26.14.86-.14,1.2-.38.77-.54,1.88-.77,2.41-.38,1.23.91,1.47,1.66.87,3.04Z"/>
  <path d="m125.37,117.47c-.19-1.94-.46-2.06-2.81-1.25-.35-.93-.71-1.86-1.08-2.84.52-.44,1.05-.74,1.75-.15.48.4.98.38,1.56.06,1.15-.64,1.97-.44,2.93.45.61.57.48,1.2.39,1.89-.04.27.04.62.21.83.25.32.63.55,1.02.87-1.38.91-2.64.65-3.96.15Z"/>
  <path d="m127.99,104.11c.37-.1.74-.26,1.12-.29.64-.05,1.17,0,1.66-.7.4-.58,1.24-1.01,2.14-.69,1.44.52,1.8.92,1.84,2.09,0,.2.04.39.06.51.63.27,1.2.51,1.77.75.02.11.04.23.05.34-.42.19-.83.39-1.25.57-.31.13-.63.22-.94.33-.76.26-1.51,0-1.94-.74-.17-.29-.27-.61-.47-1.07-.41.25-.79.45-1.14.71-.55.42-.99.53-1.5-.1-.41-.51-.95-.9-1.43-1.35,0-.12.01-.24.02-.36Z"/>
  <path d="m138.14,92.84c.06,1.73-1.39,1.65-2.27,2.17-.16.09-.59-.13-.8-.32-1.3-1.17-1.65-1.1-2.26.51-.03.08-.06.16-.15.37-.73-1.1-2.43-.56-2.95-1.98.25-.62.75-.78,1.38-.72.43.04.75-.02.81-.6.11-.95.86-1.51,1.82-1.48,1.02.04,2.13.84,2.52,1.77.06.14.33.26.52.28.47.04.95.01,1.39.01Z"/>
  <path d="m131.69,89.72c-1.03-.79-2.51-.13-3.46-1.52.52-.29.98-.51,1.39-.8.19-.13.36-.39.4-.61.18-.95,1.14-2.03,1.92-1.88.91.17,1.88.39,2.4,1.34.05.1.11.2.14.26.52-.07,1.01-.18,1.5-.19.65-.01.75.49.47.87-.43.59-1.01,1.07-1.56,1.56-.08.08-.32.02-.47-.02-.19-.06-.36-.17-.54-.26q-1.7-.84-2.19,1.24Z"/>
  <path d="m135.26,101.36c-.53-.67-1.05-1.35-1.65-2.11-.61.73-1.07,1.29-1.51,1.83-.86-.72-1.64-1.36-2.65-2.2.62-.23,1.04-.49,1.49-.53.55-.04.93-.1,1.22-.67.49-.97,1.43-.91,2.78-.72.73.11,1.36.61,1.28,1.55-.05.59.39.47.74.55.37.08.71.28,1.07.42-.29.34-.52.78-.88,1-.49.31-1.09.45-1.64.66-.08.07-.16.14-.24.21Z"/>
  <path d="m129.66,84c-1.14-.11-2.15-.18-3.15-.31-.7-.09-.55-.59-.26-.93.31-.36.74-.61,1.12-.92-.4-1.33.18-2.03,1.61-2.1,1.04-.05,1.92.11,2.4.89.8-.07,1.46-.13,2.1-.18.29,1.1-.57,2.47-1.53,2.53-.14,0-.3-.12-.45-.2-.25-.13-.49-.31-.75-.41-.8-.28-1.08-.07-1.09.78,0,.28,0,.56,0,.84Z"/>
  <path d="m120.59,72.87c.31.63.54,1.1.79,1.63-.95.27-1.76.56-2.59.7-.31.05-.8-.14-.99-.39-.13-.16.13-.62.2-.95.06-.28.19-.6.1-.84-.31-.87.14-1.71.95-2.05,1-.41,1.87-.31,2.64.32.35-.25.68-.44.95-.69.35-.31.78-.42,1.03-.04.22.35.31.87.26,1.29-.05.42-.36.8-.64,1.36-.79-.1-1.7-.22-2.71-.35Z"/>
  <path d="m113.07,70.29c-.33-.67-.95-1.4-.78-1.72.25-.5,1.01-.86,1.62-1.02.64-.17,1.36-.04,2.2-.04.1-.07.35-.32.65-.47.29-.15.63-.2.95-.31.28.35.48,2.28.17,2.51-.27.2-.68.23-1.03.3-.56.11-1.13.2-1.87.33.3.6.49,1,.71,1.45-.74.21-1.49.49-2.26.63-.25.04-.72-.21-.8-.43-.1-.28.06-.69.16-1.02.04-.13.26-.2.28-.21Z"/>
  <path d="m127.19,75.66c.38-.19.75-.43,1.15-.53.26-.07.72-.02.83.15.17.25.23.7.12.98-.49,1.27-1.17,1.53-2.39,1.1-.29-.1-.74-.07-.98.1-.14.1-.03.58-.01.89.01.19.06.38.11.67-1.03,0-1.99.02-2.95-.02-.22-.01-.57-.23-.61-.4-.04-.21.13-.62.31-.69.65-.28.67-.61.43-1.25-.36-.99.16-1.6,1.2-1.61.31,0,.63-.04.94,0,.63.1,1.26.25,1.89.38-.01.07-.03.15-.04.22Z"/>
  <path d="m55.72,72.95c.3-2.22,4.01-4.91,7.58-5.13-.13,1.98-5.94,5.57-7.58,5.13Z"/>
  <path d="m102.76,144.79c-2.04,0-3.17-1.04-2.98-2.75.16-1.4,1.6-2.26,3.43-2.04,1.75.21,2.72,1.25,2.54,2.7-.17,1.32-1.27,2.09-2.98,2.08Zm.03-4.01c-1.11-.01-1.78.6-1.78,1.62,0,.96.68,1.61,1.7,1.64,1.06.03,1.76-.62,1.76-1.65,0-1.02-.6-1.6-1.68-1.61Z"/>
  <path d="m90.15,144.84c-.43-.08-.92-.11-1.37-.26-1.11-.36-1.62-1.13-1.58-2.27.03-1.07.67-1.95,1.75-2.14.77-.14,1.6-.14,2.37,0,1.18.21,1.86,1.14,1.87,2.25,0,1.09-.63,1.9-1.79,2.23-.38.11-.79.13-1.24.2Zm1.74-2.43c0-1.04-.57-1.61-1.65-1.63-1.11-.02-1.79.58-1.8,1.6-.01.99.71,1.67,1.77,1.66,1.03,0,1.68-.63,1.69-1.63Z"/>
  <path d="m81.36,144.67c-.83.15-1.44.14-1.71-.69-.05-.14-.35-.27-.54-.29-.57-.04-1.14-.04-1.71,0-.19.01-.48.16-.52.31-.25.82-.83.8-1.61.67.28-.57.54-1.12.81-1.65.38-.74.77-1.46,1.14-2.21.21-.42.38-.77.98-.77.58,0,.86.21,1.11.71.65,1.3,1.35,2.57,2.06,3.92Zm-3.12-3.57c-.32.7-.54,1.19-.79,1.73h1.63c-.27-.56-.5-1.03-.84-1.73Z"/>
  <path d="m132.23,113.42c-.58.3-1.17.6-1.75.89-.56.27-1.13.53-1.72.81-.58-2.34-1.94-2.95-4.73-2.05.36-1.09.67-2.02,1.06-3.21.58.85,1.04,1.53,1.55,2.28.33-.2.64-.44.99-.61.35-.17.73-.27,1.17-.42.06.32.11.53.14.75.18,1.02.64,1.42,1.66,1.42.54,0,1.08,0,1.62,0v.15Z"/>
  <path d="m133.68,99.86c.37.44.73.88,1.1,1.31.35.41.69.59,1.25.22.41-.28.96-.36,1.62-.58-.79,1.14-1.46,2.09-2.03,2.92-.94-.6-1.72-1.18-2.57-1.63-1.09-.57-1.86.4-2.87.73-.12-.99-.23-1.98-.37-3.14.75.65,1.47,1.26,2.29,1.96.48-.54.96-1.08,1.59-1.79Z"/>
  <path d="m138.14,94.59c-.59,1.12-1.06,2.01-1.56,2.94-1.88-1.67-4.38-1.27-5.28.41-.29-.93-.59-1.85-.88-2.79,1.06-.38,1.61.47,2.4,1.03.19-.47.35-.88.51-1.29.24-.62.59-.7,1.1-.25,1.16,1.03,1.17,1.01,2.56.35.29-.14.61-.21,1.14-.38Z"/>
  <path d="m126.43,81.71c-.9-.72-1.81-1.45-2.71-2.17.02-.06.04-.11.05-.17.82.05,1.64.1,2.65.17-.06-.53-.12-1.14-.19-1.82.69.08,1.53.4,2.18.18.61-.21,1.03-1,1.57-1.58.16.98.32,1.96.49,3.01-.96.06-1.87-.09-2.57.22-.7.31-1.38.96-1.17,2.01-.1.06-.21.11-.31.17Z"/>
  <path d="m132.89,109.88c-.33-.97-1.48-2.39-2.1-2.45-1.03-.11-2.06-.12-2.75.97-.07-.05-.15-.1-.22-.16v-3.21c.58.48,1.37,1.13,2.24,1.86.42-.27,1.04-.66,1.68-1.08.45.66.88,1.29,1.29,1.9.86-.22,1.67-.42,2.49-.63-.09-.07-.18-.14-.27-.21-.79,1-1.58,2.01-2.37,3.01Z"/>
  <path d="m131.36,92.13c-.71-.89-1.36-1.69-2.14-2.66.57.12,1.04.14,1.45.32.96.41,1.4.21,1.61-.81.04-.22.15-.42.26-.74.84.44,1.63.85,2.37,1.23.6-.58,1.19-1.14,1.78-1.71.04.04.08.09.12.13-.32,1.03-.63,2.05-.97,3.16-1.71-.56-3.47-1.39-4.48,1.08Z"/>
  <path d="m71.91,143.03v1.63h-1.18v-4.52c1.17,0,2.31-.07,3.44.03.69.06,1.21.5,1.2,1.32-.01.8-.51,1.21-1.2,1.34-.7.13-1.42.13-2.25.2Zm.05-2.26v1.44c.6-.05,1.14-.03,1.65-.15.2-.05.43-.37.46-.6.02-.16-.26-.47-.45-.51-.51-.11-1.05-.12-1.66-.18Z"/>
  <path d="m94.28,140.12c1.13,0,2.22-.06,3.3.02.72.06,1.31.44,1.34,1.3.02.74-.45,1.29-1.33,1.41-.67.1-1.36.11-2.13.17v1.65h-1.17v-4.56Zm1.18,2.09c.62-.05,1.17-.03,1.69-.15.2-.05.44-.38.46-.6.02-.16-.27-.47-.47-.5-.54-.11-1.1-.11-1.68-.15v1.41Z"/>
  <path d="m113.74,72.25c.89-.21,1.79-.42,2.78-.65-.34-.46-.64-.88-1.08-1.5.64-.07,1.09-.15,1.54-.15,1.6-.03,1.39.15,1.4-1.35,0-.2.01-.4.04-.6.01-.07.09-.14.06-.09.52.52,1.08,1.02,1.57,1.57.14.16.12.46.16.6-.78.38-1.68.55-2.12,1.1-.43.53-.38,1.44-.58,2.37-1.09-.33-2.4-.73-3.71-1.13-.01-.06-.03-.11-.04-.17Z"/>
  <path d="m121.93,74.88c-.17-.46-.33-.91-.51-1.38h2.52c.18-.71.33-1.33.54-2.13.64,1.14,1.16,2.08,1.76,3.15-1.62.34-3.84-.58-3.49,2.23-1.47.37-2.33-1.14-3.65-.99,0-.07-.02-.14-.03-.21.95-.22,1.91-.44,2.86-.67Z"/>
  <path d="m129.59,86.51c-.8-.72-1.59-1.42-2.38-2.12.03-.09.07-.17.1-.26.45.05.93.03,1.35.17,1.23.42,1.36.35,1.38-.97,0-.2.02-.4.04-.78.47.22.88.37,1.24.6.56.35,1.06.39,1.53-.13.42-.47.83-.94,1.4-1.58-.13,1.39-.23,2.49-.33,3.58-2.56-.89-3.04-.7-4.33,1.47Z"/>
  <path d="m39.52,106.32c1.15.49,2.21,1.06,3.35,1.4,1.67.5,1.97,2.01,2.88,3.27-3.05-.15-5.92-2.38-6.23-4.67Z"/>
  <path d="m54.67,120.95c-3.18,1.15-5.45-.14-7.63-1.76,0-.1.01-.2.02-.3,1.4.08,2.8.16,4.2.24.36.02.78-.04,1.05.13.76.47,1.46,1.03,2.36,1.69Z"/>
  <path d="m51.73,118.37c-.97-.6-1.15-1.64-1.44-2.61-.04-.13-.05-.3.01-.42.55-1.11,1.13-2.22,1.72-3.37,1.58,1.81,1.32,4.51-.29,6.4Z"/>
  <path d="m46.76,97.55c.34,2.33-1.2,4.88-3.7,5.36-.49-1.08-.25-2.26.8-3.18.85-.76,1.83-1.38,2.9-2.18Z"/>
  <path d="m89.44,59.89c-.08-.78.06-1.45.69-1.99.46-.4.77-.24,1.19.14.77.7.73,1.54.66,2.41-.03.34-.3.66-.42,1-.23.68-.42,1.37-.66,2.05-.08.23-.24.43-.37.64-.11-.22-.31-.43-.33-.66-.07-.82.16-1.68-.65-2.35-.23-.19-.1-.81-.13-1.23Z"/>
  <path d="m61.05,59.91c-.06-.77.04-1.45.68-2.01.46-.39.75-.25,1.19.15.8.73.72,1.6.67,2.49-.02.29-.25.57-.37.86-.13.3-.29.6-.34.92-.06.36.08.78-.05,1.1-.11.29-.45.49-.7.73-.12-.24-.31-.48-.33-.74-.07-.79.16-1.62-.63-2.26-.23-.19-.1-.81-.13-1.24Z"/>
  <path d="m48.41,104.99c.74,2.43-.13,4.76-2.17,6.13-1.13-1.65-1.24-3.45.77-4.51.55-.29.88-.99,1.4-1.61Z"/>
  <path d="m42.54,103.13c-3.01-.77-4.28-2.72-4.26-6.12,1.02,1.67,3,2.07,3.63,3.85.25.71.41,1.44.64,2.28Z"/>
  <path d="m120.6,60.11c-.25.49-.55.95-.73,1.46-.23.64-.35,1.31-.56,1.96-.07.22-.26.4-.39.6-.1-.2-.28-.4-.29-.6-.06-.85.1-1.68-.66-2.43-.57-.56,0-2.83.68-3.3.36-.25.74-.36,1.08.24.35.63.93,1.14.61,1.99.09.03.18.06.27.08Z"/>
  <path d="m43.85,115.15c.85.06,1.66.15,2.48.18,1.25.04,2.32.44,3.19,1.36.43.45.9.87,1.27,1.4-2.85.17-5.23-.63-6.94-2.94Z"/>
  <path d="m110.64,61.01c-.13-1.05-.14-2.18.7-3.08.19-.2.78-.34.9-.22.37.37.8.85.86,1.33.12,1.02.16,2.05-.56,3-.27.36-.09,1.05-.17,1.58-.03.18-.2.34-.3.51-.13-.17-.33-.33-.38-.53-.16-.65-.22-1.32-.4-1.95-.07-.24-.39-.4-.65-.64Z"/>
  <path d="m74.38,59.91c-.27.6-.63,1.19-.8,1.82-.15.56-.07,1.18-.15,1.76-.03.22-.21.43-.33.64-.12-.21-.28-.41-.34-.64-.22-.79-.46-1.54-.87-2.29-.36-.65-.06-1.69.02-2.55.02-.24.33-.44.47-.68.32-.54.67-.42,1.09-.12.7.5.79,1.19.65,1.96.08.03.17.06.25.09Z"/>
  <path d="m48.19,115c-.94-.18-1.79-.26-2.58-.53-.8-.27-1.62-.63-2.27-1.15-.7-.56-1.22-1.35-1.75-2.1,3.17.12,6.13,1.8,6.6,3.78Z"/>
  <path d="m84.95,60.06c-.28.64-.61,1.26-.81,1.92-.15.47-.09,1-.18,1.5-.04.23-.22.43-.33.64-.11-.21-.28-.42-.34-.64-.18-.7-.09-1.72-.52-2.03-.64-.45-.63-.91-.53-1.41.15-.77.43-1.53.76-2.23.06-.13.73-.1,1.02.05.9.44.7,1.33.7,2.11.08.03.15.06.23.1Z"/>
  <path d="m42.19,98.99c-2.83-1.14-3.94-3.33-3.58-6.09.64.59,1.27,1.23,1.97,1.8,1.36,1.1,1.48,2.64,1.61,4.3Z"/>
  <path d="m41.57,83.76c1.01,2.2,2.73,4.2,1.37,6.8-1.79-1.04-3.03-4.62-1.37-6.8Z"/>
  <path d="m108.21,62.86c-.22-.42-.55-.83-.64-1.28-.16-.79-.24-1.61-.21-2.41.02-.42.26-.9.55-1.22.48-.55.88-.42,1.27.2.44.7.8,1.4.69,2.27-.05.39-.05.64-.48.94-.39.27-.47,1.01-.64,1.56-.07.21.03.47-.03.68-.06.2-.23.36-.35.54-.11-.19-.26-.37-.32-.58-.05-.18-.01-.4-.01-.6.06-.03.12-.06.17-.09Z"/>
  <path d="m47.62,90.13c-.84,2.78-1.82,3.55-4.94,4.42.23-2.84,2.18-4.1,4.94-4.42Z"/>
  <path d="m55.24,121.46c-.47-.78-1.1-1.51-1.38-2.35-.34-1.04-.16-2.12.57-3.04.23-.29.43-.61.65-.93.94.65,1.58,2.83,1.11,3.92-.32.75-.61,1.52-.95,2.39Z"/>
  <path d="m47.14,101.27c.56,2.87-.78,4.54-2.78,5.89-.74-1.09-.37-3.11.63-3.9.72-.57,1.36-1.25,2.15-1.99Z"/>
  <path d="m66.89,60c-.04.67.18,1.47-.59,2.16-.28.25-.09,1.03-.15,1.56-.01.14-.15.26-.23.4-.15-.1-.43-.23-.42-.31.22-1.63-1.22-2.99-.78-4.64.12-.45.23-.95.49-1.31.14-.19.67-.27.92-.16.31.14.63.5.73.83.12.42.03.9.03,1.48Z"/>
  <path d="m101.08,64.01c.22-1.08-.18-1.96-.85-2.76-.32-.38-.24-2.26.11-2.68.16-.19.26-.47.45-.59.26-.16.78-.38.87-.28.36.39.81.89.84,1.37.06.94.32,1.94-.58,2.79-.29.28-.1,1.09-.09,1.66,0,.61-.19.82-.76.47,0,0,.02.02.02.02Z"/>
  <path d="m56.55,60c-.28.67-.62,1.32-.82,2-.15.5-.08,1.06-.17,1.58-.03.2-.22.37-.33.55-.11-.19-.28-.36-.33-.56-.15-.65-.25-1.3-.38-1.95-.01-.06-.01-.13-.05-.16-1.35-.9-.6-2-.21-2.99.14-.36.27-1.13,1-.81.57.25,1.08.63,1.03,1.38-.02.28,0,.57,0,.85.08.03.16.07.24.1Z"/>
  <path d="m44.13,86.6c-.96-2.14-2.17-4.17-.25-6.3,1.81,2.13,1.94,4.5.25,6.3Z"/>
  <path d="m78.73,59.65c.27-.58.45-1.23.83-1.72.4-.53.83-.37,1.19.19.44.7.81,1.41.7,2.28-.05.38-.06.64-.46.96-.4.31-.47,1.07-.64,1.65-.07.27.01.57-.04.85-.02.11-.2.24-.33.26-.08.02-.3-.16-.29-.21.4-1.51-1.02-2.69-.75-4.16-.07-.03-.14-.06-.21-.1Z"/>
  <path d="m42.33,94.43c-1.57-.32-2.32-1.29-2.83-2.38-.5-1.08-.25-2.26-.16-3.4.08-.03.16-.05.23-.08.33.41.65.82.99,1.22.39.46,1,.84,1.17,1.37.32,1.01.39,2.09.58,3.27Z"/>
  <path d="m42.61,98.41c-.19-1.48.58-2.93,1.87-3.61.5-.26.97-.6,1.46-.87.25-.14.55-.2.9-.32-.76,2.93-1.15,4.03-4.24,4.8Z"/>
  <path d="m95.28,59.96c-.04.72.2,1.54-.6,2.19-.25.21-.06.92-.13,1.4-.03.2-.21.38-.32.57-.12-.19-.36-.39-.35-.57.07-.91-.41-1.64-.66-2.45-.31-1.01-.35-2.21.35-3.18.15-.2.67-.34.89-.24.33.16.68.51.79.85.14.41.03.9.03,1.42Z"/>
  <path d="m43.71,107.2c-1.96.18-4.62-2.53-4.78-4.73.94.43,1.94.84,2.89,1.35.97.52,1.43,1.49,1.78,2.49.09.26.07.56.11.9Z"/>
  <path d="m47.45,82.26c.51-1.89,3.93-2.86,6.16-2.51-.85,1.9-4.14,3.24-6.16,2.51Z"/>
  <path d="m49.02,86.47c-.54,2.44-3.2,3.62-5.52,3.66.24-.61.34-1.22.68-1.61.48-.54,1.09-1.06,1.76-1.32.95-.37,2-.49,3.08-.73Z"/>
  <path d="m46.39,82.62c-1.78-2.46-.92-5.18.81-6.49.15,1.42.33,2.81.42,4.21.06.84-.55,1.85-1.23,2.28Z"/>
  <path d="m114.3,60.79c.14.11.28.22.6.46-.1-.38-.09-.61-.19-.72-.72-.76-.26-1.58-.07-2.34.16-.66,1.18-.8,1.58-.22.66.96.76,2.1.46,3.16-.28.98-.86,1.88-1.29,2.78.1-1.09-.33-2.16-1.28-3.01.06-.04.12-.08.18-.12Z"/>
  <path d="m49.79,108.38c1.14,2.52.74,4.67-1.02,6.36-.29-.39-.62-.77-.87-1.19-.51-.86-.13-1.65.31-2.4.47-.8.95-1.59,1.42-2.39.06-.1.09-.2.16-.38Z"/>
  <path d="m54.2,69.84c-.1,2.27.14,4.57-2.27,5.85-1.14-1.67.11-5.08,2.27-5.85Z"/>
  <path d="m58.59,64.05c-.02-.24-.09-.48-.06-.71.12-.8-.17-1.4-.75-1.94-.18-.17-.33-.49-.31-.73.09-.83.2-1.66.42-2.46.18-.66,1.02-.85,1.4-.32.32.45.59,1.04.61,1.58.06,1.19-.33,2.3-.91,3.35-.19.34-.16.81-.23,1.23-.06,0-.12,0-.18,0Z"/>
  <path d="m76.53,64.03c.11-1.12-.56-1.92-1.11-2.8-.4-.64-.05-2.76.47-3.32.42-.44,1.28-.4,1.42.16.32,1.25,1.02,2.49-.16,3.79-.46.5-.43,1.44-.62,2.18Z"/>
  <path d="m99.11,59.97c-.27.7-.59,1.39-.79,2.11-.13.48-.06,1.01-.14,1.51-.03.19-.23.36-.35.53-.11-.16-.3-.33-.3-.5-.04-.75-.24-1.39-.55-2.12-.41-.94-.19-2.18-.08-3.27.02-.24.87-.66,1.13-.55.39.18.67.73.86,1.17.13.29.02.68.02,1.02.07.03.14.05.2.08Z"/>
  <path d="m50.16,78.64c1.84-1.62,3.94-2.37,6.4-1.77-1.03,2.08-3.41,2.74-6.4,1.77Z"/>
  <path d="m48.82,78.95c-1.06-2.39-.21-4.3,1.58-5.96.17.9.37,1.79.48,2.69.04.33-.08.73-.25,1.03-.47.8-1.01,1.56-1.52,2.34-.1-.03-.19-.07-.29-.1Z"/>
  <path d="m45.02,86.08c.35-.4.58-.71.86-.97.25-.23.6-.37.81-.63.74-.93,1.66-1.32,2.86-1.2.45.04.92-.19,1.4-.3-.33,1.95-3,3.42-5.92,3.09Z"/>
  <path d="m70.5,58.75c-.54.87-1.08,1.75-1.63,2.63q.57-.09,1.52-1.68c.07.02.15.04.22.05-.14.57-.29,1.14-.41,1.71-.15.7-.25,1.41-.41,2.1-.05.2-.23.37-.35.56-.11-.19-.33-.38-.33-.56,0-.78-.29-1.42-.57-2.14-.42-1.09-.49-2.39.23-3.5.32-.5,1.12-.41,1.39.13.11.22.22.45.34.7Z"/>
  <path d="m86.43,144.7h-4.24v-4.56h1.18v3.82c.92,0,1.71.02,2.51,0,.53-.01.76.16.56.74Z"/>
  <path d="m53.25,75.16c1.05-.48,2.14-.88,3.15-1.44,1.24-.69,2.29.6,3.47.13-1.78,1.41-3.81,2.85-6.62,1.32Z"/>
  <path d="m87.64,61.01v-3.08c.89,1.14.96,2.53.39,3.62-.4.78-.68,1.62-1.01,2.41,0,0-.09-.09-.08-.18.08-.99,0-1.91-.94-2.54-.11-.07-.16-.31-.14-.46.11-.88.2-1.77.4-2.64.05-.21.46-.34.71-.5.1.23.27.46.28.7.03.89.01,1.78.01,2.68.13,0,.25,0,.38-.01Z"/>
  <path d="m128.16,118.66c-1.38.42-2.76.83-4.38,1.32.45-1.54-.72-2.19-1.22-3.22.31-.16.61-.36.95-.48.96-.36,1.38-.08,1.38.92,0,.51.12.75.7.81.85.09,1.68.34,2.52.52.02.04.03.09.05.13Z"/>
  <path d="m87.36,36.97c.65,1.06,1.27,2.07,2.03,3.31h-4.27c.85-1.26,1.54-2.28,2.24-3.31Z"/>
  <path d="m105.91,61.63c-.52-.72-.98-1.5-1.59-2.14-.45-.47-.47-.93-.19-1.35.18-.27.73-.56.94-.46.33.15.56.6.74.96.18.37.36.79.36,1.19,0,.6-.17,1.19-.26,1.79h0Z"/>
  <path d="m122.13,60.01c.63.26,1.26.52,1.81.75-.24,1.09-.42,1.98-.64,2.86-.05.19-.24.34-.37.52-.1-.17-.26-.33-.29-.51-.05-.37.03-.75-.03-1.11-.05-.34-.2-.66-.33-.99-.15-.39-.33-.77-.5-1.15.11-.12.23-.24.34-.36Z"/>
  <path d="m84.85,41.11c.75-1.02,1.55-.11,2.32-.34v2.93c-.83-.93-1.54-1.73-2.32-2.59Z"/>
  <path d="m119.84,116.83c.46-1.01.9-1.97,1.4-3.07.31,1,.61,2,.94,3.07h-2.34Z"/>
  <path d="m105.91,61.63c-.58.13-.83.5-.82,1.09.01.44,0,.89,0,1.36-.16-.05-.25-.06-.25-.07.06-1.06-.45-1.89-.98-2.77-.25-.42-.15-1.06-.2-1.6.07-.03.15-.06.22-.09.45.49.9.99,1.36,1.48.2.22.44.4.66.6,0,0,0,0,0,0Z"/>
  <path d="m52.26,60.59c0,.21.07.48-.01.53-.85.6-.61,1.48-.67,2.3-.02.24-.23.47-.35.71-.11-.24-.24-.48-.32-.74-.12-.36-.15-.76-.3-1.1-.43-.99.3-1.8,1.65-1.71Z"/>
  <path d="m87.67,43.28c0-.62-.05-1.25.03-1.86.03-.25.32-.62.54-.65.42-.07.88.07,1.32.11-.16.36-.27.75-.49,1.07-.35.5-.78.94-1.18,1.41-.07-.03-.14-.05-.21-.08Z"/>
  <path d="m109.62,133.61c-.12.48-.2,1.02-.4,1.51-.08.21-.4.43-.63.45-.17.01-.53-.29-.53-.45,0-.89-.03-1.8.19-2.65.16-.61.86-.54,1.12.08.13.3.15.66.24,1.06Z"/>
  <path d="m97.94,129.84c-.08.35-.16.89-.35,1.39-.08.22-.42.5-.6.47-.24-.04-.62-.34-.62-.54-.03-.75,0-1.51.14-2.25.05-.26.48-.44.74-.66.21.27.46.52.63.82.09.16.04.39.07.77Z"/>
  <path d="m89.54,129.04c-.08.37-.09.79-.25,1.14-.11.25-.42.56-.64.56-.21,0-.59-.35-.61-.56-.06-.78-.05-1.57.06-2.34.03-.23.46-.52.72-.54.18-.01.47.37.57.63.12.34.1.73.15,1.12Z"/>
  <path d="m93.87,129.17c.04-.53.06-.83.1-1.37.4.15.81.2,1.02.42.14.15.1.72-.05.82-.24.16-.64.09-1.07.13Z"/>
  <path d="m70.43,131.98c-.44.11-.87.23-1.31.34q-.44-1.09,1.37-1.49c.18,1.08.36,2.16.55,3.29-.55.17-1.06.32-1.57.47-.53-1.08-.48-1.26.56-1.57.6-.18.7-.48.4-1.03Z"/>
  <path d="m73.66,132.39c-.07.11-.2.32-.35.56-.21-.25-.43-.53-.6-.73.19-.53.36-1,.46-1.3.34.22.75.47,1.16.73.3.19.66.34.85.61.07.1-.3.72-.39.7-.34-.07-.64-.3-1.13-.57Z"/>
  <path d="m75.59,130.06c.03.22.07.55.12.89-.52-.15-1-.26-1.45-.43-.18-.07-.41-.27-.43-.43-.02-.17.16-.44.32-.52.14-.06.38.08.57.15.26.09.51.2.87.34Z"/>
  <path d="m71.38,131.75c-.06-.53-.55-1.09.28-1.35.21-.06.68.08.72.22.25.75-.26.99-1,1.12Z"/>
  <path d="m113.13,133.84c.09-.79-.02-1.73.86-1.75.87-.02.73.93.79,1.54.04.44-.02.92-.17,1.33-.09.24-.42.55-.64.56-.21,0-.52-.32-.62-.56-.15-.38-.17-.82-.22-1.12Z"/>
  <path d="m99.93,108.31c1.86-2.06,4.34-3.09,6.91-3.96-2.3,1.32-4.61,2.64-6.91,3.96Z"/>
  <path d="m98.12,109.49c-1.18,1-2.36,1.99-3.53,2.99l-.19-.23c1.16-1.01,2.33-2.02,3.49-3.03.08.09.15.18.23.28Z"/>
</svg>